<?xml version="1.0" encoding="utf-8"?>
<!DOCTYPE svg PUBLIC "-//W3C//DTD SVG 1.1//EN" "http://www.w3.org/Graphics/SVG/1.1/DTD/svg11.dtd">
<svg version="1.1" id="features_uikit" xmlns="http://www.w3.org/2000/svg" xmlns:xlink="http://www.w3.org/1999/xlink" x="0px"
	 y="0px" width="200px" height="200px" viewBox="0 0 200 200" enable-background="new 0 0 200 200" xml:space="preserve">
<path id="icon" fill="#444444" d="M150.574,51.02c2.045,0,3.797,0.729,5.244,2.217c1.463,1.475,2.182,3.227,2.182,5.258v85.012
	c0,2.032-0.719,3.798-2.182,5.271c-1.447,1.475-3.199,2.205-5.244,2.205H45.478c-2.031,0-3.799-0.73-5.272-2.205
	C38.73,147.304,38,145.539,38,143.506V58.493c0-2.031,0.73-3.783,2.205-5.258c1.474-1.487,3.241-2.217,5.272-2.217L150.574,51.02
	L150.574,51.02z M148.035,61.043H48.027v79.927h100.008V61.043z M68.139,91.102c-2.855,0-5.273-0.969-7.226-2.92
	c-1.953-1.952-2.923-4.303-2.923-7.037c0-2.854,0.97-5.271,2.923-7.223C62.865,71.97,65.283,71,68.139,71
	c2.736,0,5.087,0.97,7.04,2.922c1.952,1.95,2.922,4.367,2.922,7.223c0,2.734-0.97,5.085-2.922,7.037
	C73.226,90.134,70.875,91.102,68.139,91.102z M138.006,131.013H57.99v-6.839l18.039-23.435l12.233,10.156l23.047-34.957
	l26.697,27.604V131.013L138.006,131.013z"/>
</svg>
