<?xml version="1.0" encoding="utf-8"?>
<!DOCTYPE svg PUBLIC "-//W3C//DTD SVG 1.1//EN" "http://www.w3.org/Graphics/SVG/1.1/DTD/svg11.dtd">
<svg version="1.1" id="salt_logo" xmlns="http://www.w3.org/2000/svg" xmlns:xlink="http://www.w3.org/1999/xlink" x="0px" y="0px"
	 width="54px" height="70px" viewBox="0 0 54 70" enable-background="new 0 0 54 70" xml:space="preserve">
<path fill="#FFFFFF" d="M26.459,18.106v-1.394c0-1.148-0.943-2.091-2.091-2.091s-2.091,0.943-2.091,2.091
	c0,0.533,0,0.533,0.123,0.697l5.7,7.544c0.983,1.312,0.983,1.312,0.983,2.624c0,2.583-2.132,4.715-4.715,4.715
	s-4.715-2.132-4.715-4.715v-1.394c0-0.369,0.287-0.656,0.656-0.656h1.312c0.369,0,0.656,0.287,0.656,0.656v1.394
	c0,1.148,0.943,2.091,2.091,2.091s2.091-0.943,2.091-2.091c0-0.533,0-0.533-0.123-0.697l-5.699-7.544
	c-0.984-1.312-0.984-1.312-0.984-2.624c0-2.583,2.132-4.715,4.715-4.715s4.715,2.132,4.715,4.715v1.394
	c0,0.369-0.287,0.656-0.655,0.656h-1.313C26.747,18.762,26.459,18.475,26.459,18.106z"/>
<path fill="#FFFFFF" d="M43.548,16.753v14.883c0,0.369-0.286,0.656-0.655,0.656H41.58c-0.369,0-0.656-0.287-0.656-0.656v-8.159
	h-5.223v8.159c0,0.369-0.287,0.656-0.656,0.656h-1.313c-0.369,0-0.656-0.287-0.656-0.656V16.753c0-2.583,2.41-4.715,5.033-4.715
	c0.05,0,0.643,0.001,0.69,0.002C41.318,12.12,43.548,14.219,43.548,16.753z M40.924,16.753c0-1.105-1.053-2.021-2.143-2.087
	c-0.043-0.003-0.629-0.004-0.672-0.004c-1.188,0-2.408,0.943-2.408,2.091v4.1h5.223V16.753z"/>
<path fill="#FFFFFF" d="M1,0v70h52V0H1z M51,68H3V2h48V68z"/>
<path fill="#FFFFFF" d="M29.662,56.199v1.312c0,0.328-0.287,0.656-0.656,0.656h-4.838c-0.738,0-1.312-0.615-1.312-1.312V37.527
	c0-0.369,0.287-0.656,0.656-0.656h1.312c0.328,0,0.656,0.287,0.656,0.656v18.016h3.526C29.375,55.543,29.662,55.83,29.662,56.199z"
	/>
<path fill="#FFFFFF" d="M43.385,37.527v1.313c0,0.369-0.287,0.656-0.656,0.656h-2.845v18.015c0,0.328-0.286,0.656-0.655,0.656
	h-1.313c-0.369,0-0.656-0.328-0.656-0.656V39.496h-3.479c-0.369,0-0.656-0.287-0.656-0.656v-1.313c0-0.369,0.287-0.656,0.656-0.656
	h8.947C43.098,36.871,43.385,37.158,43.385,37.527z"/>
</svg>