<?xml version="1.0" encoding="utf-8"?>
<!DOCTYPE svg PUBLIC "-//W3C//DTD SVG 1.1//EN" "http://www.w3.org/Graphics/SVG/1.1/DTD/svg11.dtd">
<svg version="1.1" id="widgetkit_icon" xmlns="http://www.w3.org/2000/svg" xmlns:xlink="http://www.w3.org/1999/xlink" x="0px"
	 y="0px" width="175px" height="175px" viewBox="0 0 175 175" enable-background="new 0 0 175 175" xml:space="preserve">
<path id="icon" fill-rule="evenodd" clip-rule="evenodd" fill="#444444" d="M140.074,37.52c2.046,0,3.798,0.729,5.245,2.217
	c1.462,1.475,2.181,3.227,2.181,5.258v85.012c0,2.032-0.719,3.797-2.181,5.271c-1.447,1.474-3.199,2.204-5.245,2.204H34.978
	c-2.031,0-3.799-0.73-5.272-2.204c-1.475-1.474-2.205-3.238-2.205-5.271V44.994c0-2.031,0.73-3.783,2.205-5.258
	c1.474-1.487,3.241-2.217,5.272-2.217H140.074L140.074,37.52z M137.535,47.544H37.528v79.926h100.007V47.544z M57.639,77.602
	c-2.855,0-5.273-0.968-7.226-2.92c-1.953-1.952-2.923-4.302-2.923-7.037c0-2.854,0.97-5.271,2.923-7.222
	c1.952-1.953,4.37-2.922,7.226-2.922c2.736,0,5.087,0.969,7.04,2.922c1.952,1.95,2.922,4.367,2.922,7.222
	c0,2.735-0.97,5.085-2.922,7.037C62.726,76.634,60.375,77.602,57.639,77.602z M127.507,117.513H47.49v-6.838L65.529,87.24
	l12.233,10.157l23.046-34.958l26.698,27.604V117.513z"/>
</svg>
