<?xml version="1.0" encoding="utf-8"?>
<!-- Generator: Adobe Illustrator 16.0.4, SVG Export Plug-In . SVG Version: 6.00 Build 0)  -->
<!DOCTYPE svg PUBLIC "-//W3C//DTD SVG 1.1//EN" "http://www.w3.org/Graphics/SVG/1.1/DTD/svg11.dtd">
<svg version="1.1" id="icon" xmlns="http://www.w3.org/2000/svg" xmlns:xlink="http://www.w3.org/1999/xlink" x="0px" y="0px"
	 width="32px" height="32px" viewBox="0 0 32 32" enable-background="new 0 0 32 32" xml:space="preserve">
<g id="emoticon">
	<g>
		<path fill="#333333" d="M24.414,18.974c-0.508-0.228-1.097,0.002-1.32,0.506c-0.021,0.045-2.066,4.507-7.17,4.566
			c-0.031,0-0.062,0.001-0.094,0.001c-4.801,0-6.873-4.387-6.958-4.575c-0.229-0.5-0.818-0.723-1.322-0.496
			c-0.503,0.228-0.727,0.819-0.499,1.323c0.106,0.236,2.668,5.748,8.776,5.748c0.04,0,0.081-0.001,0.121-0.001
			c6.371-0.075,8.87-5.521,8.973-5.752C25.146,19.789,24.918,19.198,24.414,18.974z M16,0C7.163,0,0,7.163,0,16s7.163,16,16,16
			s16-7.163,16-16S24.837,0,16,0z M16,30C8.28,30,2,23.72,2,16S8.28,2,16,2s14,6.28,14,14S23.72,30,16,30z M10.984,14.995
			c1.103,0,1.995-0.894,1.995-1.995c0-1.101-0.893-1.994-1.995-1.994S8.989,11.899,8.989,13
			C8.989,14.102,9.882,14.995,10.984,14.995z M20.984,14.995c1.103,0,1.995-0.894,1.995-1.995c0-1.101-0.893-1.994-1.995-1.994
			S18.989,11.899,18.989,13C18.989,14.102,19.882,14.995,20.984,14.995z"/>
	</g>
</g>
</svg>
