<?xml version="1.0" encoding="utf-8"?>
<!-- Generator: Adobe Illustrator 16.0.4, SVG Export Plug-In . SVG Version: 6.00 Build 0)  -->
<!DOCTYPE svg PUBLIC "-//W3C//DTD SVG 1.1//EN" "http://www.w3.org/Graphics/SVG/1.1/DTD/svg11.dtd">
<svg version="1.1" id="icon" xmlns="http://www.w3.org/2000/svg" xmlns:xlink="http://www.w3.org/1999/xlink" x="0px" y="0px"
	 width="180px" height="180px" viewBox="0 0 180 180" enable-background="new 0 0 180 180" xml:space="preserve">
<g id="circle" opacity="0.03">
	<circle fill="#333333" cx="90" cy="90" r="90"/>
</g>
<path id="icon_1_" fill-rule="evenodd" clip-rule="evenodd" fill="#444444" d="M126.79,55.025c1.432,0,2.658,0.511,3.671,1.552
	c1.022,1.031,1.525,2.258,1.525,3.679v59.488c0,1.422-0.503,2.657-1.525,3.688c-1.013,1.031-2.239,1.542-3.671,1.542H53.247
	c-1.422,0-2.658-0.511-3.69-1.542c-1.031-1.031-1.543-2.267-1.543-3.688V60.256c0-1.421,0.512-2.647,1.543-3.679
	c1.032-1.041,2.269-1.552,3.69-1.552H126.79L126.79,55.025z M125.014,62.04H55.031v55.93h69.982V62.04z M69.104,83.073
	c-1.998,0-3.69-0.677-5.057-2.043s-2.045-3.011-2.045-4.925c0-1.997,0.679-3.688,2.045-5.054c1.366-1.366,3.059-2.044,5.057-2.044
	c1.915,0,3.56,0.678,4.926,2.044c1.366,1.365,2.045,3.057,2.045,5.054c0,1.914-0.679,3.559-2.045,4.925S71.02,83.073,69.104,83.073z
	 M117.996,111.002H62.003v-4.785l12.623-16.398l8.561,7.107l16.127-24.462l18.683,19.315V111.002z"/>
</svg>
