<?xml version="1.0" encoding="utf-8"?>
<!-- Generator: Adobe Illustrator 16.0.4, SVG Export Plug-In . SVG Version: 6.00 Build 0)  -->
<!DOCTYPE svg PUBLIC "-//W3C//DTD SVG 1.1//EN" "http://www.w3.org/Graphics/SVG/1.1/DTD/svg11.dtd">
<svg version="1.1" id="icon" xmlns="http://www.w3.org/2000/svg" xmlns:xlink="http://www.w3.org/1999/xlink" x="0px" y="0px"
	 width="32px" height="32px" viewBox="0 0 32 32" enable-background="new 0 0 32 32" xml:space="preserve">
<g id="bubble">
	<g>
		<path fill-rule="evenodd" clip-rule="evenodd" fill="#333333" d="M30,1.456H2c-1.104,0-2,0.896-2,2v18.047c0,1.104,0.896,2,2,2
			h3.985v4.979c0,0.403,0.242,0.767,0.613,0.922c0.125,0.053,0.257,0.078,0.387,0.078c0.258,0,0.511-0.1,0.701-0.287l5.782-5.691H30
			c1.104,0,2-0.896,2-2V3.456C32,2.352,31.104,1.456,30,1.456z M30,21.503H12.649l-4.664,4.591v-4.591H2V3.456h28V21.503z M7,13.5
			h18c0.553,0,1-0.447,1-1c0-0.552-0.447-1-1-1H7c-0.553,0-1,0.448-1,1C6,13.053,6.447,13.5,7,13.5z M7,9.5h18c0.553,0,1-0.447,1-1
			c0-0.552-0.447-1-1-1H7c-0.553,0-1,0.448-1,1C6,9.053,6.447,9.5,7,9.5z M7,17.5h12c0.553,0,1-0.447,1-1s-0.447-1-1-1H7
			c-0.553,0-1,0.447-1,1S6.447,17.5,7,17.5z"/>
	</g>
</g>
</svg>
