<?xml version="1.0" encoding="utf-8"?>
<!-- Generator: Adobe Illustrator 16.0.4, SVG Export Plug-In . SVG Version: 6.00 Build 0)  -->
<!DOCTYPE svg PUBLIC "-//W3C//DTD SVG 1.1//EN" "http://www.w3.org/Graphics/SVG/1.1/DTD/svg11.dtd">
<svg version="1.1" id="icon" xmlns="http://www.w3.org/2000/svg" xmlns:xlink="http://www.w3.org/1999/xlink" x="0px" y="0px"
	 width="32px" height="32px" viewBox="0 0 32 32" enable-background="new 0 0 32 32" xml:space="preserve">
<g id="phone">
	<g>
		<path fill-rule="evenodd" clip-rule="evenodd" fill="#333333" d="M31.295,24.135c-0.49-0.344-5.846-3.904-6.502-4.307
			c-0.287-0.174-0.635-0.26-1.016-0.26c-0.488,0-1.031,0.143-1.561,0.42c-0.516,0.271-2.076,1.16-2.84,1.598
			c-0.674-0.473-2.254-1.684-4.746-4.178c-2.476-2.474-3.697-4.068-4.173-4.745c0.436-0.764,1.323-2.325,1.593-2.839
			c0.512-0.968,0.569-1.937,0.154-2.589c-0.39-0.615-3.937-5.994-4.303-6.5C7.558,0.258,6.94,0,6.269,0C5.74,0,5.178,0.16,4.691,0.5
			C4.644,0.532-0.062,3.945,0,5.885c0.174,5.451,5.471,11.857,9.884,16.271s10.819,9.713,16.292,9.889h0.045
			c1.916,0,5.285-4.646,5.316-4.693C32.422,26.09,32.1,24.699,31.295,24.135z M29.912,26.188c-1.268,1.756-3.068,3.592-3.773,3.854
			c-3.752-0.176-9.016-3.473-14.84-9.299C5.473,14.916,2.177,9.657,2.003,5.919c0.253-0.707,2.088-2.52,3.829-3.778
			C5.961,2.052,6.121,2,6.269,2C6.302,2,6.33,2.003,6.351,2.007c0.562,0.817,3.582,5.389,4.13,6.243
			c0.002,0.09-0.028,0.319-0.2,0.645c-0.183,0.348-0.751,1.36-1.56,2.778l-0.629,1.102l0.729,1.04
			c0.544,0.772,1.838,2.451,4.395,5.008c2.567,2.568,4.241,3.859,5.01,4.4l1.039,0.729l1.104-0.629
			c1.068-0.611,2.359-1.342,2.779-1.562c0.336-0.178,0.566-0.191,0.629-0.191h0.025c0.766,0.48,5.436,3.582,6.26,4.146
			C30.076,25.795,30.064,25.969,29.912,26.188z M21.405,11.968l8.603-8.549l-0.028,4.846c-0.009,0.404,0.312,0.755,0.716,0.746
			h0.514c0.404-0.01,0.738-0.251,0.747-0.654l0.021-7.219c0-0.007-0.027-0.012-0.027-0.019l0.04-0.366
			c0.004-0.203-0.044-0.384-0.175-0.514c-0.129-0.131-0.311-0.21-0.512-0.204l-0.366,0.008c-0.007,0-0.013,0.003-0.021,0.004
			l-7.172-0.031c-0.403,0.009-0.738,0.343-0.747,0.747l-0.001,0.514c0.062,0.477,0.436,0.755,0.84,0.746l4.728,0.013l-8.572,8.519
			c-0.391,0.391-0.391,1.023,0,1.415C20.382,12.358,21.015,12.358,21.405,11.968z"/>
	</g>
</g>
</svg>
