<?xml version="1.0" encoding="utf-8"?>
<!-- Generator: Adobe Illustrator 16.0.4, SVG Export Plug-In . SVG Version: 6.00 Build 0)  -->
<!DOCTYPE svg PUBLIC "-//W3C//DTD SVG 1.1//EN" "http://www.w3.org/Graphics/SVG/1.1/DTD/svg11.dtd">
<svg version="1.1" id="icon" xmlns="http://www.w3.org/2000/svg" xmlns:xlink="http://www.w3.org/1999/xlink" x="0px" y="0px"
	 width="32px" height="32px" viewBox="0 0 32 32" enable-background="new 0 0 32 32" xml:space="preserve">
<g id="gift">
	<g>
		<path fill="#333333" d="M32,10.996c0-1.104-0.896-2-2-2h-3.414c0.883-0.871,1.449-2.014,1.449-3.421
			c0-1.732-0.995-3.614-3.788-3.614c-3.675,0-6.745,3.913-8.188,6.106c-1.444-2.193-4.607-6.106-8.283-6.106
			c-2.793,0-3.788,1.882-3.788,3.614c0,1.407,0.581,2.55,1.482,3.421H2c-1.105,0-2,0.896-2,2v5.986h2.018V30c0,1.104,0.896,2,2,2
			h23.989c1.105,0,2-0.896,2-2V16.982H32V10.996z M24.247,3.961c1.236,0,1.788,0.52,1.788,1.614c0,2.222-2.479,3.42-4.812,3.42
			h-3.386C19.259,6.885,21.76,3.961,24.247,3.961z M7.777,3.961c2.488,0,5.083,2.924,6.504,5.034h-3.387
			c-2.332,0-4.905-1.229-4.905-3.451C5.989,4.449,6.541,3.961,7.777,3.961z M30,14.982H17v-3.986h13V14.982z M2,10.996h13v3.986H2
			V10.996z M4.018,16.982H15V30H4.018V16.982z M28.007,30H17V16.982h11.007V30z"/>
	</g>
</g>
</svg>
