<?xml version="1.0" encoding="utf-8"?>
<!-- Generator: Adobe Illustrator 16.0.4, SVG Export Plug-In . SVG Version: 6.00 Build 0)  -->
<!DOCTYPE svg PUBLIC "-//W3C//DTD SVG 1.1//EN" "http://www.w3.org/Graphics/SVG/1.1/DTD/svg11.dtd">
<svg version="1.1" id="icon" xmlns="http://www.w3.org/2000/svg" xmlns:xlink="http://www.w3.org/1999/xlink" x="0px" y="0px"
	 width="32px" height="32px" viewBox="0 0 32 32" enable-background="new 0 0 32 32" xml:space="preserve">
<g id="basket">
	<g>
		<path fill-rule="evenodd" clip-rule="evenodd" fill="#333333" d="M31.659,8.379c-0.187-0.265-0.489-0.422-0.812-0.422H9.624
			l-1.606-5.54C7.388,0.235,5.891,0,5.276,0H0.993C0.444,0,0,0.444,0,0.993s0.444,0.993,0.993,0.993h4.283
			c0.136,0,0.549,0,0.831,0.975l5.526,20.311c0.12,0.429,0.511,0.725,0.956,0.725h13.499c0.419,0,0.793-0.263,0.935-0.657
			l4.758-14.053C31.891,8.981,31.845,8.643,31.659,8.379z M25.39,22.01H13.343L10.182,9.943h19.253L25.39,22.01z M23.42,26.008
			c-1.381,0-2.5,1.119-2.5,2.5s1.119,2.5,2.5,2.5s2.5-1.119,2.5-2.5S24.801,26.008,23.42,26.008z M14.42,26.008
			c-1.381,0-2.5,1.119-2.5,2.5s1.119,2.5,2.5,2.5s2.5-1.119,2.5-2.5S15.801,26.008,14.42,26.008z"/>
	</g>
</g>
</svg>
