<?xml version="1.0" encoding="utf-8"?>
<!-- Generator: Adobe Illustrator 16.0.4, SVG Export Plug-In . SVG Version: 6.00 Build 0)  -->
<!DOCTYPE svg PUBLIC "-//W3C//DTD SVG 1.1//EN" "http://www.w3.org/Graphics/SVG/1.1/DTD/svg11.dtd">
<svg version="1.1" id="stats2" xmlns="http://www.w3.org/2000/svg" xmlns:xlink="http://www.w3.org/1999/xlink" x="0px" y="0px"
	 width="1200px" height="400px" viewBox="0 0 1200 400" enable-background="new 0 0 1200 400" xml:space="preserve">
<line id="line1" opacity="0.06" fill="none" stroke="#333333" stroke-miterlimit="10" x1="36" y1="135.5" x2="1156" y2="135.5"/>
<line id="line2" opacity="0.06" fill="none" stroke="#333333" stroke-miterlimit="10" x1="36" y1="235.5" x2="1156" y2="235.5"/>
<line id="line3" opacity="0.06" fill="none" stroke="#333333" stroke-miterlimit="10" x1="36" y1="345.5" x2="1156" y2="345.5"/>
<path id="stroke" fill-rule="evenodd" clip-rule="evenodd" fill="none" stroke="#E5E5E5" stroke-width="5" stroke-linecap="round" stroke-linejoin="round" stroke-miterlimit="10" d="
	M80.5,349.5l80-80l80,40l80-140l80-40l80,40l80-20l80,80l80-40l80,50l80-90l80,80l80-20l80,80"/>
<path id="dot1" fill-rule="evenodd" clip-rule="evenodd" fill="#E5E5E5" stroke="#FFFFFF" stroke-width="4" stroke-miterlimit="10" d="
	M84.5,334.5c6.627,0,12,5.373,12,12s-5.373,12-12,12s-12-5.373-12-12S77.873,334.5,84.5,334.5z"/>
<path id="dot2" fill-rule="evenodd" clip-rule="evenodd" fill="#E5E5E5" stroke="#FFFFFF" stroke-width="4" stroke-miterlimit="10" d="
	M160.5,261.5c6.627,0,12,5.373,12,12s-5.373,12-12,12s-12-5.373-12-12S153.873,261.5,160.5,261.5z"/>
<path id="dot3" fill-rule="evenodd" clip-rule="evenodd" fill="#E5E5E5" stroke="#FFFFFF" stroke-width="4" stroke-miterlimit="10" d="
	M240.5,295.5c6.627,0,12,5.373,12,12s-5.373,12-12,12s-12-5.373-12-12S233.873,295.5,240.5,295.5z"/>
<path id="dot4" fill-rule="evenodd" clip-rule="evenodd" fill="#E5E5E5" stroke="#FFFFFF" stroke-width="4" stroke-miterlimit="10" d="
	M322.5,160.5c6.627,0,12,5.373,12,12s-5.373,12-12,12s-12-5.373-12-12S315.873,160.5,322.5,160.5z"/>
<path id="dot5" fill-rule="evenodd" clip-rule="evenodd" fill="#E5E5E5" stroke="#FFFFFF" stroke-width="4" stroke-miterlimit="10" d="
	M399.5,122.5c6.627,0,12,5.373,12,12s-5.373,12-12,12s-12-5.373-12-12S392.873,122.5,399.5,122.5z"/>
<path id="dot6" fill-rule="evenodd" clip-rule="evenodd" fill="#E5E5E5" stroke="#FFFFFF" stroke-width="4" stroke-miterlimit="10" d="
	M481.5,154.5c6.627,0,12,5.373,12,12s-5.373,12-12,12s-12-5.373-12-12S474.873,154.5,481.5,154.5z"/>
<path id="dot7" fill-rule="evenodd" clip-rule="evenodd" fill="#E5E5E5" stroke="#FFFFFF" stroke-width="4" stroke-miterlimit="10" d="
	M558.5,139.5c6.627,0,12,5.373,12,12s-5.373,12-12,12s-12-5.373-12-12S551.873,139.5,558.5,139.5z"/>
<path id="dot8" fill-rule="evenodd" clip-rule="evenodd" fill="#E5E5E5" stroke="#FFFFFF" stroke-width="4" stroke-miterlimit="10" d="
	M640.5,216.5c6.627,0,12,5.373,12,12s-5.373,12-12,12s-12-5.373-12-12S633.873,216.5,640.5,216.5z"/>
<path id="dot9" fill-rule="evenodd" clip-rule="evenodd" fill="#E5E5E5" stroke="#FFFFFF" stroke-width="4" stroke-miterlimit="10" d="
	M720.5,180.5c6.627,0,12,5.373,12,12s-5.373,12-12,12s-12-5.373-12-12S713.873,180.5,720.5,180.5z"/>
<path id="dot10" fill-rule="evenodd" clip-rule="evenodd" fill="#E5E5E5" stroke="#FFFFFF" stroke-width="4" stroke-miterlimit="10" d="
	M800.5,223.5c6.627,0,12,5.373,12,12s-5.373,12-12,12s-12-5.373-12-12S793.873,223.5,800.5,223.5z"/>
<path id="dot11" fill-rule="evenodd" clip-rule="evenodd" fill="#E5E5E5" stroke="#FFFFFF" stroke-width="4" stroke-miterlimit="10" d="
	M961.5,217.5c6.627,0,12,5.373,12,12s-5.373,12-12,12s-12-5.373-12-12S954.873,217.5,961.5,217.5z"/>
<path id="dot12" fill-rule="evenodd" clip-rule="evenodd" fill="#E5E5E5" stroke="#FFFFFF" stroke-width="4" stroke-miterlimit="10" d="
	M1040.5,199.5c6.627,0,12,5.373,12,12s-5.373,12-12,12s-12-5.373-12-12S1033.873,199.5,1040.5,199.5z"/>
<path id="dot13" fill-rule="evenodd" clip-rule="evenodd" fill="#E5E5E5" stroke="#FFFFFF" stroke-width="4" stroke-miterlimit="10" d="
	M1119.5,276.5c6.627,0,12,5.373,12,12s-5.373,12-12,12s-12-5.373-12-12S1112.873,276.5,1119.5,276.5z"/>
<path id="dot_x5F_active" fill-rule="evenodd" clip-rule="evenodd" fill="#546B8E" stroke="#FFFFFF" stroke-width="4" stroke-miterlimit="10" d="
	M880.5,138.5c8.836,0,16,7.164,16,16s-7.164,16-16,16s-16-7.164-16-16S871.664,138.5,880.5,138.5z"/>
<g id="tooltip_x5F_bg">
	<g>
		<path fill-rule="evenodd" clip-rule="evenodd" fill="#546B8E" d="M933.5,50.771h-106c-1.104,0-2,0.896-2,2v56c0,1.104,0.896,2,2,2
			h42.443l9.143,9.143c0.781,0.781,2.047,0.781,2.828,0l9.143-9.143H933.5c1.104,0,2-0.896,2-2v-56
			C935.5,51.667,934.604,50.771,933.5,50.771z"/>
	</g>
</g>
<g id="tooltip_x5F_text">
	<path fill="#FFFFFF" d="M852.351,73.653v1.014h-5.678c-0.008-0.254,0.033-0.498,0.123-0.732c0.145-0.387,0.376-0.768,0.694-1.143
		s0.778-0.809,1.38-1.301c0.934-0.766,1.564-1.372,1.893-1.819s0.492-0.87,0.492-1.269c0-0.418-0.149-0.771-0.448-1.058
		s-0.688-0.431-1.169-0.431c-0.508,0-0.914,0.152-1.219,0.457s-0.459,0.727-0.463,1.266l-1.084-0.111
		c0.074-0.809,0.354-1.425,0.838-1.849s1.135-0.636,1.951-0.636c0.824,0,1.477,0.229,1.957,0.686s0.721,1.023,0.721,1.699
		c0,0.344-0.07,0.682-0.211,1.014s-0.374,0.682-0.7,1.049S850.56,71.36,849.802,72c-0.633,0.531-1.039,0.892-1.219,1.081
		s-0.328,0.38-0.445,0.571H852.351z"/>
	<path fill="#FFFFFF" d="M855.104,70.008c-0.438-0.16-0.762-0.389-0.973-0.686s-0.316-0.652-0.316-1.066
		c0-0.625,0.225-1.15,0.674-1.576s1.047-0.639,1.793-0.639c0.75,0,1.354,0.218,1.811,0.653s0.686,0.966,0.686,1.591
		c0,0.398-0.104,0.745-0.313,1.04s-0.526,0.522-0.952,0.683c0.527,0.172,0.929,0.449,1.204,0.832s0.413,0.84,0.413,1.371
		c0,0.734-0.26,1.352-0.779,1.852s-1.203,0.75-2.051,0.75s-1.531-0.251-2.051-0.753s-0.779-1.128-0.779-1.878
		c0-0.559,0.142-1.026,0.425-1.403S854.581,70.145,855.104,70.008z M854.554,72.188c0,0.301,0.071,0.592,0.214,0.873
		s0.354,0.499,0.636,0.653s0.584,0.231,0.908,0.231c0.504,0,0.92-0.162,1.248-0.486s0.492-0.736,0.492-1.236
		c0-0.508-0.169-0.928-0.507-1.26s-0.761-0.498-1.269-0.498c-0.496,0-0.907,0.164-1.233,0.492S854.554,71.696,854.554,72.188z
		 M854.894,68.221c0,0.406,0.131,0.738,0.393,0.996s0.602,0.387,1.02,0.387c0.406,0,0.739-0.128,0.999-0.384s0.39-0.569,0.39-0.94
		c0-0.387-0.134-0.712-0.401-0.976s-0.601-0.396-0.999-0.396c-0.402,0-0.736,0.129-1.002,0.387S854.894,67.862,854.894,68.221z"/>
	<path fill="#FFFFFF" d="M860.747,74.667v-1.201h1.201v1.201H860.747z"/>
	<path fill="#FFFFFF" d="M866.905,70.483c0-1.426,0.383-2.542,1.148-3.349s1.754-1.21,2.965-1.21c0.793,0,1.508,0.189,2.145,0.568
		s1.122,0.907,1.456,1.585s0.501,1.446,0.501,2.306c0,0.871-0.176,1.65-0.527,2.338s-0.85,1.208-1.494,1.562s-1.34,0.53-2.086,0.53
		c-0.809,0-1.531-0.195-2.168-0.586s-1.119-0.924-1.447-1.6S866.905,71.237,866.905,70.483z M868.077,70.5
		c0,1.035,0.278,1.851,0.835,2.446s1.255,0.894,2.095,0.894c0.855,0,1.56-0.301,2.112-0.902s0.829-1.455,0.829-2.561
		c0-0.699-0.118-1.31-0.354-1.831s-0.582-0.926-1.037-1.213s-0.966-0.431-1.532-0.431c-0.805,0-1.497,0.276-2.077,0.829
		S868.077,69.208,868.077,70.5z"/>
	<path fill="#FFFFFF" d="M880.511,72.387l1.037,0.135c-0.113,0.715-0.403,1.274-0.87,1.679s-1.04,0.606-1.72,0.606
		c-0.852,0-1.536-0.278-2.054-0.835s-0.776-1.354-0.776-2.394c0-0.672,0.111-1.26,0.334-1.764s0.562-0.882,1.017-1.134
		s0.95-0.378,1.485-0.378c0.676,0,1.229,0.171,1.658,0.513s0.705,0.827,0.826,1.456l-1.025,0.158
		c-0.098-0.418-0.271-0.732-0.519-0.943s-0.548-0.316-0.899-0.316c-0.531,0-0.963,0.19-1.295,0.571s-0.498,0.983-0.498,1.808
		c0,0.836,0.16,1.443,0.48,1.822s0.738,0.568,1.254,0.568c0.414,0,0.76-0.127,1.037-0.381S880.437,72.915,880.511,72.387z"/>
	<path fill="#FFFFFF" d="M884.753,73.723l0.152,0.932c-0.297,0.062-0.562,0.094-0.797,0.094c-0.383,0-0.68-0.061-0.891-0.182
		s-0.359-0.28-0.445-0.478s-0.129-0.612-0.129-1.245v-3.58h-0.773v-0.82h0.773v-1.541l1.049-0.633v2.174h1.061v0.82h-1.061v3.639
		c0,0.301,0.019,0.494,0.056,0.58s0.098,0.154,0.182,0.205s0.204,0.076,0.36,0.076C884.407,73.764,884.562,73.75,884.753,73.723z"/>
	<path fill="#FFFFFF" d="M894.368,73.653v1.014h-5.678c-0.008-0.254,0.033-0.498,0.123-0.732c0.145-0.387,0.376-0.768,0.694-1.143
		s0.778-0.809,1.38-1.301c0.934-0.766,1.564-1.372,1.893-1.819s0.492-0.87,0.492-1.269c0-0.418-0.149-0.771-0.448-1.058
		s-0.688-0.431-1.169-0.431c-0.508,0-0.914,0.152-1.219,0.457s-0.459,0.727-0.463,1.266l-1.084-0.111
		c0.074-0.809,0.354-1.425,0.838-1.849s1.135-0.636,1.951-0.636c0.824,0,1.477,0.229,1.957,0.686s0.721,1.023,0.721,1.699
		c0,0.344-0.07,0.682-0.211,1.014s-0.374,0.682-0.7,1.049s-0.868,0.871-1.626,1.512c-0.633,0.531-1.039,0.892-1.219,1.081
		s-0.328,0.38-0.445,0.571H894.368z"/>
	<path fill="#FFFFFF" d="M895.499,70.43c0-1.016,0.104-1.833,0.313-2.452s0.52-1.097,0.932-1.433s0.931-0.504,1.556-0.504
		c0.461,0,0.865,0.093,1.213,0.278s0.635,0.453,0.861,0.803s0.404,0.775,0.533,1.277s0.193,1.179,0.193,2.03
		c0,1.008-0.104,1.821-0.311,2.44s-0.517,1.098-0.929,1.436s-0.933,0.507-1.562,0.507c-0.828,0-1.479-0.297-1.951-0.891
		C895.782,73.208,895.499,72.043,895.499,70.43z M896.583,70.43c0,1.41,0.165,2.349,0.495,2.815s0.737,0.7,1.222,0.7
		s0.892-0.234,1.222-0.703s0.495-1.406,0.495-2.812c0-1.414-0.165-2.354-0.495-2.818s-0.741-0.697-1.233-0.697
		c-0.484,0-0.871,0.205-1.16,0.615C896.765,68.053,896.583,69.02,896.583,70.43z"/>
	<path fill="#FFFFFF" d="M906.146,74.667h-1.055v-6.721c-0.254,0.242-0.587,0.484-0.999,0.727s-0.782,0.424-1.11,0.545v-1.02
		c0.59-0.277,1.105-0.613,1.547-1.008s0.754-0.777,0.938-1.148h0.68V74.667z"/>
	<path fill="#FFFFFF" d="M912.228,74.667V72.61h-3.727v-0.967l3.92-5.566h0.861v5.566h1.16v0.967h-1.16v2.057H912.228z
		 M912.228,71.643V67.77l-2.689,3.873H912.228z"/>
	<path fill="#FFFFFF" d="M839.949,92.694l2.027-0.188c0.172,0.953,0.5,1.645,0.984,2.074s1.105,0.645,1.863,0.645
		c0.648,0,1.217-0.148,1.705-0.445s0.889-0.693,1.201-1.189s0.574-1.166,0.785-2.01s0.316-1.703,0.316-2.578
		c0-0.094-0.004-0.234-0.012-0.422c-0.422,0.672-0.998,1.217-1.729,1.635s-1.521,0.627-2.373,0.627
		c-1.422,0-2.625-0.516-3.609-1.547s-1.477-2.391-1.477-4.078c0-1.742,0.514-3.145,1.541-4.207s2.314-1.594,3.861-1.594
		c1.117,0,2.139,0.301,3.064,0.902s1.629,1.459,2.109,2.572s0.721,2.725,0.721,4.834c0,2.195-0.238,3.943-0.715,5.244
		s-1.186,2.291-2.127,2.971s-2.045,1.02-3.311,1.02c-1.344,0-2.441-0.373-3.293-1.119S840.121,94.045,839.949,92.694z
		 M848.586,85.112c0-1.211-0.322-2.172-0.967-2.883s-1.42-1.066-2.326-1.066c-0.938,0-1.754,0.383-2.449,1.148
		s-1.043,1.758-1.043,2.977c0,1.094,0.33,1.982,0.99,2.666s1.475,1.025,2.443,1.025c0.977,0,1.779-0.342,2.408-1.025
		S848.586,86.323,848.586,85.112z"/>
	<path fill="#FFFFFF" d="M852.98,92.167l2.215-0.188c0.164,1.078,0.545,1.889,1.143,2.432s1.318,0.814,2.162,0.814
		c1.016,0,1.875-0.383,2.578-1.148s1.055-1.781,1.055-3.047c0-1.203-0.338-2.152-1.014-2.848s-1.561-1.043-2.654-1.043
		c-0.68,0-1.293,0.154-1.84,0.463s-0.977,0.709-1.289,1.201l-1.98-0.258l1.664-8.824h8.543v2.016h-6.855l-0.926,4.617
		c1.031-0.719,2.113-1.078,3.246-1.078c1.5,0,2.766,0.52,3.797,1.559s1.547,2.375,1.547,4.008c0,1.555-0.453,2.898-1.359,4.031
		c-1.102,1.391-2.605,2.086-4.512,2.086c-1.562,0-2.838-0.438-3.826-1.312S853.121,93.612,852.98,92.167z"/>
	<path fill="#FFFFFF" d="M866.469,81.737v-2.027h11.121v1.641c-1.094,1.164-2.178,2.711-3.252,4.641s-1.904,3.914-2.49,5.953
		c-0.422,1.438-0.691,3.012-0.809,4.723h-2.168c0.023-1.352,0.289-2.984,0.797-4.898s1.236-3.76,2.186-5.537
		s1.959-3.275,3.029-4.494H866.469z"/>
	<path fill="#FFFFFF" d="M886.93,96.667v-17.18h2.109v6.164c0.984-1.141,2.227-1.711,3.727-1.711c0.922,0,1.723,0.182,2.402,0.545
		s1.166,0.865,1.459,1.506s0.439,1.57,0.439,2.789v7.887h-2.109V88.78c0-1.055-0.229-1.822-0.686-2.303s-1.104-0.721-1.939-0.721
		c-0.625,0-1.213,0.162-1.764,0.486s-0.943,0.764-1.178,1.318s-0.352,1.32-0.352,2.297v6.809H886.93z"/>
	<path fill="#FFFFFF" d="M900.289,81.913v-2.426h2.109v2.426H900.289z M900.289,96.667V84.221h2.109v12.445H900.289z"/>
	<path fill="#FFFFFF" d="M910.215,94.78l0.305,1.863c-0.594,0.125-1.125,0.188-1.594,0.188c-0.766,0-1.359-0.121-1.781-0.363
		s-0.719-0.561-0.891-0.955s-0.258-1.225-0.258-2.49v-7.16h-1.547v-1.641h1.547v-3.082l2.098-1.266v4.348h2.121v1.641h-2.121v7.277
		c0,0.602,0.037,0.988,0.111,1.16s0.195,0.309,0.363,0.41s0.408,0.152,0.721,0.152C909.523,94.862,909.832,94.834,910.215,94.78z"/>
	<path fill="#FFFFFF" d="M911.434,92.952l2.086-0.328c0.117,0.836,0.443,1.477,0.979,1.922s1.283,0.668,2.244,0.668
		c0.969,0,1.688-0.197,2.156-0.592s0.703-0.857,0.703-1.389c0-0.477-0.207-0.852-0.621-1.125c-0.289-0.188-1.008-0.426-2.156-0.715
		c-1.547-0.391-2.619-0.729-3.217-1.014s-1.051-0.68-1.359-1.184s-0.463-1.061-0.463-1.67c0-0.555,0.127-1.068,0.381-1.541
		s0.6-0.865,1.037-1.178c0.328-0.242,0.775-0.447,1.342-0.615s1.174-0.252,1.822-0.252c0.977,0,1.834,0.141,2.572,0.422
		s1.283,0.662,1.635,1.143s0.594,1.123,0.727,1.928l-2.062,0.281c-0.094-0.641-0.365-1.141-0.814-1.5s-1.084-0.539-1.904-0.539
		c-0.969,0-1.66,0.16-2.074,0.48s-0.621,0.695-0.621,1.125c0,0.273,0.086,0.52,0.258,0.738c0.172,0.227,0.441,0.414,0.809,0.562
		c0.211,0.078,0.832,0.258,1.863,0.539c1.492,0.398,2.533,0.725,3.123,0.979s1.053,0.623,1.389,1.107s0.504,1.086,0.504,1.805
		c0,0.703-0.205,1.365-0.615,1.986s-1.002,1.102-1.775,1.441s-1.648,0.51-2.625,0.51c-1.617,0-2.85-0.336-3.697-1.008
		S911.668,94.272,911.434,92.952z"/>
</g>
</svg>
