<?xml version="1.0" encoding="utf-8"?>
<!-- Generator: Adobe Illustrator 16.0.4, SVG Export Plug-In . SVG Version: 6.00 Build 0)  -->
<!DOCTYPE svg PUBLIC "-//W3C//DTD SVG 1.1//EN" "http://www.w3.org/Graphics/SVG/1.1/DTD/svg11.dtd">
<svg version="1.1" id="stats3" xmlns="http://www.w3.org/2000/svg" xmlns:xlink="http://www.w3.org/1999/xlink" x="0px" y="0px"
	 width="1200px" height="400px" viewBox="0 0 1200 400" enable-background="new 0 0 1200 400" xml:space="preserve">
<g id="circle1">
	<g id="circle1_x5F_border" opacity="0.06">
		<path fill="#333333" d="M219.867,87.478c29.382,0,57.005,11.442,77.782,32.218s32.218,48.399,32.218,77.782
			c0,29.382-11.442,57.006-32.218,77.782c-20.776,20.775-48.399,32.218-77.782,32.218s-57.005-11.442-77.782-32.218
			c-20.776-20.776-32.218-48.4-32.218-77.782c0-29.382,11.442-57.005,32.218-77.782S190.484,87.478,219.867,87.478 M219.867,47.478
			c-82.843,0-150,67.157-150,150s67.157,150,150,150s150-67.157,150-150S302.709,47.478,219.867,47.478L219.867,47.478z"/>
	</g>
	<g id="circle1_x5F_fill_1_">
		<defs>
			<polygon id="mask1" points="220,33 220,200 386.453,286.74 406.316,105.233 			"/>
		</defs>
		<clipPath id="mask1_1_">
			<use xlink:href="#mask1"  overflow="visible"/>
		</clipPath>
		<g id="circle1_x5F_fill" clip-path="url(#mask1_1_)">
			<path fill="#8FBE7B" d="M219.867,87.478c29.382,0,57.005,11.442,77.782,32.218s32.218,48.399,32.218,77.782
				c0,29.382-11.442,57.006-32.218,77.782c-20.776,20.775-48.399,32.218-77.782,32.218s-57.005-11.442-77.782-32.218
				c-20.776-20.776-32.218-48.4-32.218-77.782c0-29.382,11.442-57.005,32.218-77.782S190.484,87.478,219.867,87.478 M219.867,47.478
				c-82.843,0-150,67.157-150,150s67.157,150,150,150s150-67.157,150-150S302.709,47.478,219.867,47.478L219.867,47.478z"/>
		</g>
	</g>
	<g>
		<path fill="#444444" d="M172.333,197.424l5.273-0.703c0.605,2.988,1.636,5.142,3.091,6.46c1.455,1.318,3.227,1.977,5.317,1.977
			c2.48,0,4.575-0.859,6.284-2.578c1.709-1.718,2.563-3.847,2.563-6.386c0-2.421-0.791-4.419-2.373-5.991
			c-1.582-1.572-3.594-2.358-6.035-2.358c-0.996,0-2.237,0.195-3.721,0.586l0.586-4.629c0.352,0.04,0.634,0.059,0.85,0.059
			c2.246,0,4.267-0.586,6.064-1.758c1.797-1.172,2.695-2.978,2.695-5.42c0-1.934-0.655-3.535-1.963-4.805
			c-1.309-1.27-2.999-1.904-5.068-1.904c-2.051,0-3.76,0.645-5.127,1.934c-1.367,1.289-2.246,3.223-2.637,5.801l-5.273-0.938
			c0.645-3.535,2.109-6.274,4.395-8.218c2.285-1.943,5.127-2.915,8.525-2.915c2.344,0,4.501,0.503,6.475,1.509
			c1.973,1.006,3.481,2.378,4.526,4.116c1.044,1.739,1.567,3.584,1.567,5.537c0,1.856-0.498,3.545-1.494,5.068
			s-2.471,2.735-4.424,3.633c2.539,0.586,4.512,1.802,5.918,3.647s2.109,4.156,2.109,6.929c0,3.75-1.367,6.929-4.102,9.537
			c-2.735,2.607-6.192,3.91-10.371,3.91c-3.77,0-6.899-1.123-9.39-3.369C174.105,203.909,172.684,200.999,172.333,197.424z"/>
		<path fill="#444444" d="M222.577,208.762v-10.283h-18.633v-4.834l19.6-27.832h4.307v27.832h5.801v4.834h-5.801v10.283H222.577z
			 M222.577,193.645V174.28l-13.447,19.365H222.577z"/>
		<path fill="#444444" d="M239.833,198.831l5.068-0.469c0.429,2.383,1.25,4.112,2.461,5.185c1.211,1.074,2.764,1.611,4.658,1.611
			c1.621,0,3.042-0.37,4.263-1.113c1.22-0.742,2.222-1.732,3.003-2.973c0.781-1.241,1.436-2.916,1.963-5.025
			s0.791-4.258,0.791-6.445c0-0.234-0.01-0.586-0.029-1.055c-1.055,1.68-2.495,3.042-4.321,4.087
			c-1.827,1.045-3.804,1.567-5.933,1.567c-3.555,0-6.562-1.289-9.023-3.867s-3.691-5.977-3.691-10.195
			c0-4.355,1.284-7.861,3.853-10.518c2.568-2.656,5.786-3.984,9.653-3.984c2.793,0,5.347,0.752,7.661,2.256
			c2.314,1.504,4.072,3.647,5.273,6.431s1.802,6.812,1.802,12.085c0,5.489-0.596,9.858-1.787,13.11
			c-1.191,3.252-2.964,5.727-5.317,7.426c-2.354,1.699-5.112,2.549-8.276,2.549c-3.359,0-6.104-0.932-8.232-2.797
			C241.542,204.832,240.262,202.21,239.833,198.831z M261.424,179.875c0-3.027-0.806-5.43-2.417-7.207
			c-1.611-1.777-3.55-2.666-5.815-2.666c-2.344,0-4.385,0.957-6.123,2.871c-1.739,1.915-2.607,4.395-2.607,7.441
			c0,2.735,0.825,4.956,2.476,6.665c1.65,1.709,3.687,2.563,6.108,2.563c2.441,0,4.448-0.854,6.021-2.563
			C260.638,185.271,261.424,182.903,261.424,179.875z"/>
		<path fill="#444444" d="M168.099,226.964l1.729,0.225c-0.189,1.191-0.672,2.124-1.45,2.798s-1.733,1.011-2.866,1.011
			c-1.419,0-2.56-0.464-3.423-1.392s-1.294-2.258-1.294-3.989c0-1.12,0.186-2.1,0.557-2.939s0.936-1.47,1.694-1.89
			s1.583-0.63,2.476-0.63c1.126,0,2.047,0.284,2.764,0.854s1.175,1.379,1.377,2.427l-1.709,0.264
			c-0.163-0.696-0.451-1.221-0.864-1.572s-0.913-0.527-1.499-0.527c-0.885,0-1.605,0.317-2.158,0.952s-0.83,1.639-0.83,3.013
			c0,1.394,0.267,2.405,0.801,3.037s1.23,0.947,2.09,0.947c0.69,0,1.266-0.212,1.729-0.635S167.976,227.843,168.099,226.964z"/>
		<path fill="#444444" d="M170.677,225.577c0-1.92,0.534-3.343,1.602-4.268c0.892-0.769,1.979-1.152,3.262-1.152
			c1.426,0,2.591,0.468,3.496,1.401s1.357,2.225,1.357,3.872c0,1.335-0.2,2.385-0.601,3.149s-0.983,1.359-1.748,1.782
			s-1.6,0.635-2.505,0.635c-1.452,0-2.625-0.466-3.521-1.396S170.677,227.328,170.677,225.577z M172.484,225.577
			c0,1.328,0.29,2.322,0.869,2.983s1.309,0.991,2.188,0.991c0.873,0,1.598-0.332,2.178-0.996s0.869-1.677,0.869-3.037
			c0-1.282-0.292-2.254-0.874-2.915c-0.583-0.66-1.307-0.991-2.173-0.991c-0.879,0-1.608,0.329-2.188,0.986
			C172.773,223.257,172.484,224.249,172.484,225.577z"/>
		<path fill="#444444" d="M182.875,230.763v-9.004h-1.553v-1.367h1.553v-1.104c0-0.696,0.062-1.214,0.186-1.553
			c0.169-0.456,0.467-0.825,0.894-1.108s1.024-0.425,1.792-0.425c0.495,0,1.042,0.059,1.641,0.176l-0.264,1.533
			c-0.365-0.065-0.709-0.098-1.035-0.098c-0.534,0-0.912,0.114-1.133,0.342s-0.332,0.654-0.332,1.279v0.957h2.021v1.367h-2.021
			v9.004H182.875z"/>
		<path fill="#444444" d="M188.07,230.763v-9.004h-1.553v-1.367h1.553v-1.104c0-0.696,0.062-1.214,0.186-1.553
			c0.169-0.456,0.467-0.825,0.894-1.108s1.024-0.425,1.792-0.425c0.495,0,1.042,0.059,1.641,0.176l-0.264,1.533
			c-0.365-0.065-0.709-0.098-1.035-0.098c-0.534,0-0.912,0.114-1.133,0.342s-0.332,0.654-0.332,1.279v0.957h2.021v1.367h-2.021
			v9.004H188.07z"/>
		<path fill="#444444" d="M200.306,227.423l1.816,0.225c-0.287,1.062-0.817,1.885-1.592,2.471s-1.764,0.879-2.969,0.879
			c-1.517,0-2.72-0.467-3.608-1.401s-1.333-2.244-1.333-3.931c0-1.745,0.449-3.099,1.348-4.062s2.064-1.445,3.496-1.445
			c1.387,0,2.52,0.472,3.398,1.416s1.318,2.272,1.318,3.984c0,0.104-0.003,0.261-0.01,0.469h-7.734
			c0.065,1.14,0.387,2.012,0.967,2.617s1.302,0.908,2.168,0.908c0.645,0,1.195-0.169,1.65-0.508S200.039,228.165,200.306,227.423z
			 M194.535,224.581h5.791c-0.078-0.873-0.299-1.527-0.664-1.963c-0.56-0.677-1.286-1.016-2.178-1.016
			c-0.807,0-1.486,0.271-2.036,0.811S194.593,223.677,194.535,224.581z"/>
		<path fill="#444444" d="M211.429,227.423l1.816,0.225c-0.287,1.062-0.817,1.885-1.592,2.471s-1.764,0.879-2.969,0.879
			c-1.517,0-2.72-0.467-3.608-1.401s-1.333-2.244-1.333-3.931c0-1.745,0.449-3.099,1.348-4.062s2.064-1.445,3.496-1.445
			c1.387,0,2.52,0.472,3.398,1.416s1.318,2.272,1.318,3.984c0,0.104-0.003,0.261-0.01,0.469h-7.734
			c0.065,1.14,0.387,2.012,0.967,2.617s1.302,0.908,2.168,0.908c0.645,0,1.195-0.169,1.65-0.508S211.162,228.165,211.429,227.423z
			 M205.658,224.581h5.791c-0.078-0.873-0.299-1.527-0.664-1.963c-0.56-0.677-1.286-1.016-2.178-1.016
			c-0.807,0-1.486,0.271-2.036,0.811S205.716,223.677,205.658,224.581z"/>
		<path fill="#444444" d="M214.75,227.667l1.738-0.273c0.098,0.696,0.37,1.23,0.815,1.602s1.069,0.557,1.87,0.557
			c0.807,0,1.406-0.164,1.797-0.493s0.586-0.715,0.586-1.157c0-0.397-0.172-0.71-0.518-0.938c-0.241-0.156-0.84-0.354-1.797-0.596
			c-1.289-0.325-2.183-0.607-2.681-0.845s-0.875-0.566-1.133-0.986s-0.386-0.884-0.386-1.392c0-0.462,0.106-0.89,0.317-1.284
			s0.5-0.721,0.864-0.981c0.273-0.202,0.646-0.372,1.118-0.513s0.978-0.21,1.519-0.21c0.814,0,1.528,0.117,2.144,0.352
			s1.069,0.552,1.362,0.952s0.495,0.936,0.605,1.606l-1.719,0.234c-0.078-0.534-0.304-0.95-0.679-1.25s-0.903-0.449-1.587-0.449
			c-0.807,0-1.383,0.134-1.729,0.4s-0.518,0.579-0.518,0.938c0,0.229,0.072,0.434,0.215,0.615c0.143,0.189,0.368,0.345,0.674,0.469
			c0.176,0.065,0.693,0.215,1.553,0.449c1.244,0.332,2.111,0.604,2.603,0.815s0.877,0.52,1.157,0.923s0.42,0.905,0.42,1.504
			c0,0.586-0.171,1.138-0.513,1.655s-0.835,0.918-1.479,1.201s-1.374,0.425-2.188,0.425c-1.348,0-2.375-0.28-3.081-0.84
			S214.945,228.768,214.75,227.667z"/>
		<path fill="#444444" d="M237.738,230.763v-1.309c-0.658,1.028-1.625,1.543-2.9,1.543c-0.827,0-1.587-0.228-2.28-0.684
			s-1.23-1.092-1.611-1.909s-0.571-1.756-0.571-2.817c0-1.035,0.172-1.975,0.518-2.817c0.345-0.844,0.863-1.489,1.553-1.938
			s1.461-0.674,2.314-0.674c0.625,0,1.182,0.132,1.67,0.396s0.885,0.607,1.191,1.03v-5.137h1.748v14.316H237.738z M232.181,225.587
			c0,1.328,0.28,2.321,0.84,2.979s1.221,0.986,1.982,0.986c0.768,0,1.421-0.314,1.958-0.942s0.806-1.587,0.806-2.876
			c0-1.419-0.273-2.461-0.82-3.125s-1.221-0.996-2.021-0.996c-0.781,0-1.434,0.319-1.958,0.957
			C232.443,223.208,232.181,224.213,232.181,225.587z"/>
		<path fill="#444444" d="M242.113,230.763v-10.371h1.582v1.572c0.404-0.735,0.776-1.221,1.118-1.455s0.718-0.352,1.128-0.352
			c0.592,0,1.195,0.188,1.807,0.566l-0.605,1.631c-0.43-0.254-0.859-0.381-1.289-0.381c-0.384,0-0.729,0.116-1.035,0.347
			s-0.524,0.552-0.654,0.962c-0.195,0.625-0.293,1.309-0.293,2.051v5.43H242.113z"/>
		<path fill="#444444" d="M255.589,230.763v-1.523c-0.807,1.172-1.904,1.758-3.291,1.758c-0.612,0-1.183-0.117-1.714-0.352
			s-0.924-0.529-1.182-0.884s-0.438-0.789-0.542-1.304c-0.072-0.345-0.107-0.892-0.107-1.641v-6.426h1.758v5.752
			c0,0.918,0.036,1.536,0.107,1.855c0.111,0.462,0.345,0.825,0.703,1.089s0.801,0.396,1.328,0.396s1.022-0.135,1.484-0.405
			s0.79-0.638,0.981-1.104s0.288-1.141,0.288-2.026v-5.557h1.758v10.371H255.589z"/>
		<path fill="#444444" d="M259.916,230.763v-10.371h1.582v1.475c0.762-1.14,1.862-1.709,3.301-1.709c0.625,0,1.2,0.112,1.724,0.337
			s0.917,0.52,1.177,0.884s0.443,0.798,0.547,1.299c0.065,0.325,0.098,0.895,0.098,1.709v6.377h-1.758v-6.309
			c0-0.717-0.068-1.252-0.205-1.606c-0.137-0.355-0.379-0.639-0.728-0.85s-0.757-0.317-1.226-0.317
			c-0.749,0-1.395,0.237-1.938,0.713s-0.815,1.377-0.815,2.705v5.664H259.916z"/>
		<path fill="#444444" d="M271.048,230.763v-14.316h1.758v8.164l4.16-4.219h2.275l-3.965,3.848l4.365,6.523h-2.168l-3.428-5.303
			l-1.24,1.191v4.111H271.048z"/>
	</g>
</g>
<g id="circle2">
	<g id="circle1_x5F_border_1_" opacity="0.06">
		<path fill="#333333" d="M599.867,87.478c29.382,0,57.005,11.442,77.781,32.218s32.219,48.4,32.219,77.782
			s-11.442,57.005-32.219,77.782c-20.776,20.775-48.399,32.218-77.781,32.218c-29.382,0-57.006-11.442-77.782-32.218
			c-20.776-20.776-32.218-48.4-32.218-77.782c0-29.382,11.442-57.005,32.218-77.782S570.485,87.478,599.867,87.478 M599.867,47.478
			c-82.843,0-150,67.157-150,150s67.157,150,150,150c82.842,0,150-67.157,150-150S682.709,47.478,599.867,47.478L599.867,47.478z"/>
	</g>
	<g id="circle1_x5F_fill_2_">
		<defs>
			<polygon id="mask2" points="600,33 600,200 453.302,307.288 564.261,362.083 728.645,368.247 786.316,105.233 			"/>
		</defs>
		<clipPath id="mask2_1_">
			<use xlink:href="#mask2"  overflow="visible"/>
		</clipPath>
		<g id="circle1_x5F_fill_4_" clip-path="url(#mask2_1_)">
			<path fill="#D9534D" d="M599.867,87.478c29.382,0,57.005,11.442,77.781,32.218s32.219,48.4,32.219,77.782
				s-11.442,57.005-32.219,77.782c-20.776,20.775-48.399,32.218-77.781,32.218c-29.382,0-57.006-11.442-77.782-32.218
				c-20.776-20.776-32.218-48.4-32.218-77.782c0-29.382,11.442-57.005,32.218-77.782S570.485,87.478,599.867,87.478 M599.867,47.478
				c-82.843,0-150,67.157-150,150s67.157,150,150,150c82.842,0,150-67.157,150-150S682.709,47.478,599.867,47.478L599.867,47.478z"
				/>
		</g>
	</g>
	<g>
		<path fill="#444444" d="M555.482,208.762h-5.273v-33.603c-1.27,1.211-2.935,2.422-4.995,3.633
			c-2.061,1.211-3.911,2.12-5.552,2.725v-5.098c2.949-1.387,5.527-3.066,7.734-5.039c2.207-1.973,3.769-3.886,4.688-5.742h3.398
			V208.762z"/>
		<path fill="#444444" d="M596.703,203.693v5.068h-28.389c-0.04-1.27,0.166-2.49,0.615-3.662c0.722-1.934,1.879-3.838,3.472-5.712
			c1.592-1.875,3.892-4.043,6.899-6.504c4.668-3.828,7.822-6.86,9.463-9.097c1.641-2.236,2.461-4.351,2.461-6.343
			c0-2.09-0.747-3.853-2.241-5.288s-3.442-2.153-5.845-2.153c-2.539,0-4.57,0.762-6.094,2.285s-2.295,3.633-2.314,6.328l-5.42-0.557
			c0.371-4.043,1.768-7.124,4.189-9.243c2.421-2.119,5.673-3.179,9.756-3.179c4.121,0,7.383,1.143,9.785,3.428
			s3.604,5.117,3.604,8.496c0,1.719-0.352,3.409-1.055,5.068c-0.703,1.66-1.871,3.409-3.501,5.244
			c-1.631,1.836-4.341,4.355-8.13,7.559c-3.164,2.656-5.196,4.458-6.094,5.405c-0.898,0.948-1.641,1.9-2.227,2.856H596.703z"/>
		<path fill="#444444" d="M619.262,208.762v-10.283h-18.633v-4.834l19.6-27.832h4.307v27.832h5.801v4.834h-5.801v10.283H619.262z
			 M619.262,193.645V174.28l-13.447,19.365H619.262z"/>
		<path fill="#444444" d="M635.727,187.581c0-5.078,0.521-9.165,1.566-12.261c1.045-3.095,2.598-5.483,4.658-7.163
			c2.061-1.68,4.654-2.52,7.779-2.52c2.304,0,4.325,0.464,6.064,1.392c1.738,0.928,3.174,2.266,4.307,4.014
			c1.132,1.748,2.021,3.877,2.666,6.387c0.645,2.51,0.967,5.894,0.967,10.151c0,5.039-0.518,9.107-1.553,12.202
			c-1.036,3.096-2.584,5.489-4.645,7.178s-4.662,2.533-7.807,2.533c-4.142,0-7.394-1.483-9.756-4.453
			C637.143,201.467,635.727,195.647,635.727,187.581z M641.146,187.581c0,7.051,0.824,11.744,2.475,14.078s3.688,3.5,6.109,3.5
			c2.421,0,4.457-1.172,6.107-3.516c1.65-2.343,2.477-7.031,2.477-14.062c0-7.07-0.826-11.767-2.477-14.092
			c-1.65-2.324-3.705-3.486-6.166-3.486c-2.422,0-4.355,1.025-5.801,3.076C642.055,175.696,641.146,180.53,641.146,187.581z"/>
		<path fill="#444444" d="M550.555,230.763v-14.316h1.758v14.316H550.555z"/>
		<path fill="#444444" d="M555.047,218.468v-2.021h1.758v2.021H555.047z M555.047,230.763v-10.371h1.758v10.371H555.047z"/>
		<path fill="#444444" d="M559.481,230.763v-10.371h1.582v1.475c0.762-1.14,1.862-1.709,3.301-1.709c0.625,0,1.2,0.112,1.724,0.337
			s0.917,0.52,1.177,0.884s0.443,0.798,0.547,1.299c0.065,0.325,0.098,0.895,0.098,1.709v6.377h-1.758v-6.309
			c0-0.717-0.068-1.252-0.205-1.606c-0.137-0.355-0.379-0.639-0.728-0.85s-0.757-0.317-1.226-0.317
			c-0.749,0-1.395,0.237-1.938,0.713s-0.815,1.377-0.815,2.705v5.664H559.481z"/>
		<path fill="#444444" d="M577.704,227.423l1.816,0.225c-0.287,1.062-0.817,1.885-1.592,2.471s-1.764,0.879-2.969,0.879
			c-1.517,0-2.72-0.467-3.608-1.401s-1.333-2.244-1.333-3.931c0-1.745,0.449-3.099,1.348-4.062s2.064-1.445,3.496-1.445
			c1.387,0,2.52,0.472,3.398,1.416s1.318,2.272,1.318,3.984c0,0.104-0.003,0.261-0.01,0.469h-7.734
			c0.065,1.14,0.387,2.012,0.967,2.617s1.302,0.908,2.168,0.908c0.645,0,1.195-0.169,1.65-0.508S577.437,228.165,577.704,227.423z
			 M571.932,224.581h5.791c-0.078-0.873-0.299-1.527-0.664-1.963c-0.56-0.677-1.286-1.016-2.178-1.016
			c-0.807,0-1.486,0.271-2.036,0.811S571.991,223.677,571.932,224.581z"/>
		<path fill="#444444" d="M581.024,227.667l1.738-0.273c0.098,0.696,0.37,1.23,0.815,1.602s1.069,0.557,1.87,0.557
			c0.807,0,1.406-0.164,1.797-0.493s0.586-0.715,0.586-1.157c0-0.397-0.172-0.71-0.518-0.938c-0.241-0.156-0.84-0.354-1.797-0.596
			c-1.289-0.325-2.183-0.607-2.681-0.845s-0.875-0.566-1.133-0.986s-0.386-0.884-0.386-1.392c0-0.462,0.106-0.89,0.317-1.284
			s0.5-0.721,0.864-0.981c0.273-0.202,0.646-0.372,1.118-0.513s0.978-0.21,1.519-0.21c0.814,0,1.528,0.117,2.144,0.352
			s1.069,0.552,1.362,0.952s0.495,0.936,0.605,1.606l-1.719,0.234c-0.078-0.534-0.304-0.95-0.679-1.25s-0.903-0.449-1.587-0.449
			c-0.807,0-1.383,0.134-1.729,0.4s-0.518,0.579-0.518,0.938c0,0.229,0.072,0.434,0.215,0.615c0.143,0.189,0.368,0.345,0.674,0.469
			c0.176,0.065,0.693,0.215,1.553,0.449c1.244,0.332,2.111,0.604,2.603,0.815s0.877,0.52,1.157,0.923s0.42,0.905,0.42,1.504
			c0,0.586-0.171,1.138-0.513,1.655s-0.835,0.918-1.479,1.201s-1.374,0.425-2.188,0.425c-1.348,0-2.375-0.28-3.081-0.84
			S581.219,228.768,581.024,227.667z"/>
		<path fill="#444444" d="M604.051,226.964l1.729,0.225c-0.188,1.191-0.672,2.124-1.449,2.798c-0.778,0.674-1.734,1.011-2.867,1.011
			c-1.419,0-2.56-0.464-3.422-1.392s-1.294-2.258-1.294-3.989c0-1.12,0.186-2.1,0.557-2.939s0.936-1.47,1.694-1.89
			s1.583-0.63,2.475-0.63c1.127,0,2.048,0.284,2.764,0.854c0.717,0.57,1.176,1.379,1.377,2.427l-1.709,0.264
			c-0.162-0.696-0.45-1.221-0.863-1.572c-0.414-0.352-0.914-0.527-1.5-0.527c-0.885,0-1.604,0.317-2.158,0.952
			s-0.83,1.639-0.83,3.013c0,1.394,0.267,2.405,0.801,3.037s1.23,0.947,2.089,0.947c0.69,0,1.267-0.212,1.729-0.635
			C603.635,228.494,603.928,227.843,604.051,226.964z"/>
		<path fill="#444444" d="M606.629,225.577c0-1.92,0.534-3.343,1.602-4.268c0.893-0.769,1.979-1.152,3.262-1.152
			c1.426,0,2.592,0.468,3.496,1.401c0.905,0.934,1.357,2.225,1.357,3.872c0,1.335-0.199,2.385-0.6,3.149s-0.983,1.359-1.748,1.782
			c-0.766,0.423-1.601,0.635-2.506,0.635c-1.451,0-2.625-0.466-3.52-1.396C607.077,228.67,606.629,227.328,606.629,225.577z
			 M608.436,225.577c0,1.328,0.29,2.322,0.869,2.983c0.58,0.661,1.309,0.991,2.188,0.991c0.873,0,1.599-0.332,2.178-0.996
			c0.58-0.664,0.869-1.677,0.869-3.037c0-1.282-0.291-2.254-0.873-2.915c-0.583-0.66-1.308-0.991-2.174-0.991
			c-0.879,0-1.607,0.329-2.188,0.986C608.726,223.257,608.436,224.249,608.436,225.577z"/>
		<path fill="#444444" d="M625.135,230.763v-1.309c-0.657,1.028-1.624,1.543-2.9,1.543c-0.826,0-1.586-0.228-2.279-0.684
			s-1.23-1.092-1.611-1.909s-0.572-1.756-0.572-2.817c0-1.035,0.173-1.975,0.518-2.817c0.346-0.844,0.863-1.489,1.553-1.938
			c0.69-0.449,1.462-0.674,2.314-0.674c0.625,0,1.182,0.132,1.67,0.396s0.886,0.607,1.191,1.03v-5.137h1.748v14.316H625.135z
			 M619.578,225.587c0,1.328,0.28,2.321,0.84,2.979c0.561,0.657,1.221,0.986,1.982,0.986c0.769,0,1.422-0.314,1.959-0.942
			s0.805-1.587,0.805-2.876c0-1.419-0.273-2.461-0.82-3.125s-1.221-0.996-2.021-0.996c-0.781,0-1.434,0.319-1.957,0.957
			C619.841,223.208,619.578,224.213,619.578,225.587z"/>
		<path fill="#444444" d="M636.629,227.423l1.816,0.225c-0.286,1.062-0.816,1.885-1.592,2.471c-0.774,0.586-1.764,0.879-2.969,0.879
			c-1.517,0-2.719-0.467-3.607-1.401s-1.334-2.244-1.334-3.931c0-1.745,0.449-3.099,1.348-4.062s2.064-1.445,3.496-1.445
			c1.387,0,2.52,0.472,3.398,1.416s1.318,2.272,1.318,3.984c0,0.104-0.003,0.261-0.01,0.469h-7.734
			c0.065,1.14,0.388,2.012,0.967,2.617c0.58,0.605,1.303,0.908,2.168,0.908c0.645,0,1.195-0.169,1.65-0.508
			C636.001,228.705,636.362,228.165,636.629,227.423z M630.857,224.581h5.791c-0.078-0.873-0.299-1.527-0.664-1.963
			c-0.56-0.677-1.285-1.016-2.178-1.016c-0.807,0-1.485,0.271-2.035,0.811C631.221,222.953,630.916,223.677,630.857,224.581z"/>
		<path fill="#444444" d="M647.381,230.763v-1.309c-0.657,1.028-1.624,1.543-2.9,1.543c-0.826,0-1.586-0.228-2.279-0.684
			s-1.23-1.092-1.611-1.909s-0.572-1.756-0.572-2.817c0-1.035,0.173-1.975,0.518-2.817c0.346-0.844,0.863-1.489,1.553-1.938
			c0.69-0.449,1.462-0.674,2.314-0.674c0.625,0,1.182,0.132,1.67,0.396s0.886,0.607,1.191,1.03v-5.137h1.748v14.316H647.381z
			 M641.824,225.587c0,1.328,0.28,2.321,0.84,2.979c0.561,0.657,1.221,0.986,1.982,0.986c0.769,0,1.422-0.314,1.959-0.942
			s0.805-1.587,0.805-2.876c0-1.419-0.273-2.461-0.82-3.125s-1.221-0.996-2.021-0.996c-0.781,0-1.434,0.319-1.957,0.957
			C642.087,223.208,641.824,224.213,641.824,225.587z"/>
	</g>
</g>
<g id="circle3">
	<g id="circle1_x5F_border_4_" opacity="0.06">
		<path fill="#333333" d="M979.867,87.478c29.382,0,57.005,11.442,77.781,32.218s32.219,48.399,32.219,77.782
			c0,29.382-11.442,57.006-32.219,77.782c-20.776,20.775-48.399,32.218-77.781,32.218c-29.383,0-57.006-11.442-77.782-32.218
			c-20.776-20.776-32.218-48.4-32.218-77.782c0-29.382,11.441-57.005,32.218-77.782S950.484,87.478,979.867,87.478 M979.867,47.478
			c-82.844,0-150,67.157-150,150s67.156,150,150,150c82.842,0,150-67.157,150-150S1062.709,47.478,979.867,47.478L979.867,47.478z"
			/>
	</g>
	<g id="circle1_x5F_fill_6_">
		<defs>
			<polygon id="mask3" points="980,33 980,200 1084.809,392.904 1166.316,105.233 			"/>
		</defs>
		<clipPath id="mask3_1_">
			<use xlink:href="#mask3"  overflow="visible"/>
		</clipPath>
		<g id="circle1_x5F_fill_7_" clip-path="url(#mask3_1_)">
			<path fill="#F3A959" d="M979.867,87.478c29.382,0,57.005,11.442,77.781,32.218s32.219,48.4,32.219,77.782
				s-11.442,57.005-32.219,77.782c-20.776,20.775-48.399,32.218-77.781,32.218c-29.383,0-57.006-11.442-77.782-32.218
				c-20.776-20.776-32.218-48.4-32.218-77.782c0-29.382,11.441-57.006,32.218-77.782C922.861,98.919,950.484,87.478,979.867,87.478
				 M979.867,47.478c-82.844,0-150,67.157-150,150s67.156,150,150,150c82.842,0,150-67.157,150-150S1062.709,47.478,979.867,47.478
				L979.867,47.478z"/>
		</g>
	</g>
	<g id="_x31_240_lines_coded">
		<path fill="#444444" d="M952.166,208.762h-5.273v-33.603c-1.27,1.211-2.934,2.422-4.994,3.633
			c-2.062,1.211-3.912,2.12-5.553,2.725v-5.098c2.949-1.387,5.527-3.066,7.734-5.039c2.207-1.973,3.77-3.886,4.688-5.742h3.398
			V208.762z"/>
		<path fill="#444444" d="M965.701,197.424l5.273-0.703c0.605,2.988,1.637,5.142,3.092,6.46c1.454,1.318,3.227,1.977,5.316,1.977
			c2.48,0,4.575-0.859,6.285-2.578c1.709-1.718,2.562-3.847,2.562-6.386c0-2.421-0.791-4.419-2.373-5.991
			c-1.582-1.572-3.594-2.358-6.035-2.358c-0.996,0-2.236,0.195-3.721,0.586l0.586-4.629c0.352,0.04,0.635,0.059,0.85,0.059
			c2.246,0,4.268-0.586,6.064-1.758s2.695-2.978,2.695-5.42c0-1.934-0.654-3.535-1.963-4.805c-1.309-1.27-2.998-1.904-5.068-1.904
			c-2.051,0-3.76,0.645-5.127,1.934s-2.246,3.223-2.637,5.801l-5.273-0.938c0.645-3.535,2.109-6.274,4.395-8.218
			c2.285-1.943,5.127-2.915,8.525-2.915c2.344,0,4.502,0.503,6.475,1.509c1.973,1.006,3.482,2.378,4.527,4.116
			c1.044,1.739,1.566,3.584,1.566,5.537c0,1.856-0.498,3.545-1.494,5.068s-2.471,2.735-4.424,3.633
			c2.539,0.586,4.512,1.802,5.918,3.647s2.109,4.156,2.109,6.929c0,3.75-1.367,6.929-4.102,9.537s-6.191,3.91-10.371,3.91
			c-3.77,0-6.898-1.123-9.389-3.369C967.475,203.909,966.053,200.999,965.701,197.424z"/>
		<path fill="#444444" d="M999.832,198.831l5.068-0.469c0.43,2.383,1.25,4.112,2.461,5.185c1.211,1.074,2.764,1.611,4.658,1.611
			c1.621,0,3.043-0.37,4.264-1.113c1.22-0.742,2.221-1.732,3.002-2.973c0.781-1.241,1.436-2.916,1.963-5.025
			s0.791-4.258,0.791-6.445c0-0.234-0.01-0.586-0.029-1.055c-1.055,1.68-2.494,3.042-4.32,4.087
			c-1.827,1.045-3.805,1.567-5.934,1.567c-3.555,0-6.562-1.289-9.023-3.867s-3.691-5.977-3.691-10.195
			c0-4.355,1.285-7.861,3.854-10.518c2.567-2.656,5.785-3.984,9.652-3.984c2.793,0,5.348,0.752,7.662,2.256
			c2.314,1.504,4.072,3.647,5.273,6.431s1.801,6.812,1.801,12.085c0,5.489-0.596,9.858-1.787,13.11
			c-1.191,3.252-2.963,5.727-5.316,7.426c-2.354,1.699-5.113,2.549-8.277,2.549c-3.359,0-6.104-0.932-8.232-2.797
			S1000.262,202.21,999.832,198.831z M1021.424,179.875c0-3.027-0.805-5.43-2.416-7.207c-1.611-1.777-3.551-2.666-5.816-2.666
			c-2.344,0-4.385,0.957-6.123,2.871c-1.738,1.915-2.607,4.395-2.607,7.441c0,2.735,0.825,4.956,2.477,6.665
			c1.65,1.709,3.686,2.563,6.107,2.563c2.441,0,4.449-0.854,6.021-2.563C1020.638,185.271,1021.424,182.903,1021.424,179.875z"/>
		<path fill="#444444" d="M921.707,234.737v-14.346h1.602v1.348c0.378-0.527,0.805-0.923,1.279-1.187
			c0.476-0.264,1.052-0.396,1.729-0.396c0.886,0,1.667,0.228,2.344,0.684c0.678,0.456,1.188,1.099,1.533,1.929
			c0.346,0.83,0.518,1.74,0.518,2.729c0,1.062-0.189,2.017-0.57,2.866s-0.935,1.501-1.66,1.953c-0.727,0.452-1.49,0.679-2.291,0.679
			c-0.586,0-1.111-0.124-1.576-0.371c-0.466-0.247-0.849-0.56-1.148-0.938v5.049H921.707z M923.299,225.636
			c0,1.335,0.271,2.321,0.811,2.959c0.541,0.638,1.195,0.957,1.963,0.957c0.781,0,1.451-0.33,2.008-0.991s0.834-1.685,0.834-3.071
			c0-1.321-0.271-2.311-0.814-2.969c-0.544-0.657-1.193-0.986-1.949-0.986c-0.748,0-1.41,0.351-1.986,1.05
			C923.588,223.284,923.299,224.301,923.299,225.636z"/>
		<path fill="#444444" d="M932.127,227.667l1.738-0.273c0.098,0.696,0.37,1.23,0.816,1.602c0.445,0.371,1.068,0.557,1.869,0.557
			c0.808,0,1.406-0.164,1.797-0.493s0.586-0.715,0.586-1.157c0-0.397-0.172-0.71-0.518-0.938c-0.24-0.156-0.84-0.354-1.797-0.596
			c-1.289-0.325-2.182-0.607-2.68-0.845s-0.876-0.566-1.133-0.986c-0.258-0.42-0.387-0.884-0.387-1.392
			c0-0.462,0.106-0.89,0.318-1.284c0.211-0.395,0.499-0.721,0.863-0.981c0.273-0.202,0.646-0.372,1.119-0.513
			c0.472-0.141,0.978-0.21,1.518-0.21c0.814,0,1.529,0.117,2.145,0.352s1.068,0.552,1.361,0.952s0.495,0.936,0.605,1.606
			l-1.719,0.234c-0.078-0.534-0.304-0.95-0.678-1.25c-0.375-0.3-0.904-0.449-1.588-0.449c-0.807,0-1.383,0.134-1.729,0.4
			c-0.345,0.267-0.518,0.579-0.518,0.938c0,0.229,0.072,0.434,0.215,0.615c0.144,0.189,0.368,0.345,0.674,0.469
			c0.176,0.065,0.693,0.215,1.553,0.449c1.244,0.332,2.111,0.604,2.604,0.815c0.491,0.212,0.877,0.52,1.156,0.923
			c0.28,0.403,0.42,0.905,0.42,1.504c0,0.586-0.17,1.138-0.512,1.655s-0.836,0.918-1.48,1.201s-1.373,0.425-2.188,0.425
			c-1.348,0-2.374-0.28-3.08-0.84C932.773,229.598,932.322,228.768,932.127,227.667z"/>
		<path fill="#444444" d="M949.559,230.763v-1.309c-0.657,1.028-1.624,1.543-2.9,1.543c-0.826,0-1.586-0.228-2.279-0.684
			s-1.23-1.092-1.611-1.909s-0.572-1.756-0.572-2.817c0-1.035,0.173-1.975,0.518-2.817c0.346-0.844,0.863-1.489,1.553-1.938
			c0.69-0.449,1.462-0.674,2.314-0.674c0.625,0,1.182,0.132,1.67,0.396s0.886,0.607,1.191,1.03v-5.137h1.748v14.316H949.559z
			 M944.002,225.587c0,1.328,0.28,2.321,0.84,2.979c0.561,0.657,1.221,0.986,1.982,0.986c0.769,0,1.422-0.314,1.959-0.942
			s0.805-1.587,0.805-2.876c0-1.419-0.273-2.461-0.82-3.125s-1.221-0.996-2.021-0.996c-0.781,0-1.434,0.319-1.957,0.957
			C944.265,223.208,944.002,224.213,944.002,225.587z"/>
		<path fill="#444444" d="M955.77,218.849v2.041h-1.885v-1.611c0-0.872,0.104-1.504,0.312-1.895
			c0.273-0.521,0.707-0.915,1.299-1.182l0.43,0.684c-0.357,0.149-0.621,0.372-0.791,0.669c-0.169,0.297-0.264,0.728-0.283,1.294
			H955.77z"/>
		<path fill="#444444" d="M957.693,227.667l1.738-0.273c0.098,0.696,0.37,1.23,0.816,1.602c0.445,0.371,1.068,0.557,1.869,0.557
			c0.808,0,1.406-0.164,1.797-0.493s0.586-0.715,0.586-1.157c0-0.397-0.172-0.71-0.518-0.938c-0.24-0.156-0.84-0.354-1.797-0.596
			c-1.289-0.325-2.182-0.607-2.68-0.845s-0.876-0.566-1.133-0.986c-0.258-0.42-0.387-0.884-0.387-1.392
			c0-0.462,0.106-0.89,0.318-1.284c0.211-0.395,0.499-0.721,0.863-0.981c0.273-0.202,0.646-0.372,1.119-0.513
			c0.472-0.141,0.978-0.21,1.518-0.21c0.814,0,1.529,0.117,2.145,0.352s1.068,0.552,1.361,0.952s0.495,0.936,0.605,1.606
			l-1.719,0.234c-0.078-0.534-0.304-0.95-0.678-1.25c-0.375-0.3-0.904-0.449-1.588-0.449c-0.807,0-1.383,0.134-1.729,0.4
			c-0.345,0.267-0.518,0.579-0.518,0.938c0,0.229,0.072,0.434,0.215,0.615c0.144,0.189,0.368,0.345,0.674,0.469
			c0.176,0.065,0.693,0.215,1.553,0.449c1.244,0.332,2.111,0.604,2.604,0.815c0.491,0.212,0.877,0.52,1.156,0.923
			c0.28,0.403,0.42,0.905,0.42,1.504c0,0.586-0.17,1.138-0.512,1.655s-0.836,0.918-1.48,1.201s-1.373,0.425-2.188,0.425
			c-1.348,0-2.374-0.28-3.08-0.84C958.34,229.598,957.889,228.768,957.693,227.667z"/>
		<path fill="#444444" d="M980.721,226.964l1.729,0.225c-0.188,1.191-0.672,2.124-1.449,2.798c-0.778,0.674-1.734,1.011-2.867,1.011
			c-1.419,0-2.56-0.464-3.422-1.392c-0.863-0.928-1.295-2.258-1.295-3.989c0-1.12,0.186-2.1,0.557-2.939s0.937-1.47,1.695-1.89
			c0.758-0.42,1.583-0.63,2.475-0.63c1.127,0,2.048,0.284,2.764,0.854c0.717,0.57,1.176,1.379,1.377,2.427l-1.709,0.264
			c-0.162-0.696-0.45-1.221-0.863-1.572c-0.414-0.352-0.914-0.527-1.5-0.527c-0.885,0-1.604,0.317-2.158,0.952
			c-0.553,0.635-0.83,1.639-0.83,3.013c0,1.394,0.268,2.405,0.801,3.037c0.534,0.632,1.23,0.947,2.09,0.947
			c0.69,0,1.267-0.212,1.729-0.635C980.305,228.494,980.598,227.843,980.721,226.964z"/>
		<path fill="#444444" d="M983.934,230.763v-10.371h1.582v1.572c0.404-0.735,0.777-1.221,1.119-1.455s0.717-0.352,1.127-0.352
			c0.593,0,1.195,0.188,1.807,0.566l-0.605,1.631c-0.43-0.254-0.859-0.381-1.289-0.381c-0.384,0-0.729,0.116-1.035,0.347
			c-0.306,0.23-0.523,0.552-0.654,0.962c-0.195,0.625-0.293,1.309-0.293,2.051v5.43H983.934z"/>
		<path fill="#444444" d="M997.713,227.423l1.816,0.225c-0.286,1.062-0.816,1.885-1.592,2.471c-0.774,0.586-1.764,0.879-2.969,0.879
			c-1.517,0-2.719-0.467-3.607-1.401s-1.334-2.244-1.334-3.931c0-1.745,0.449-3.099,1.348-4.062s2.064-1.445,3.496-1.445
			c1.387,0,2.52,0.472,3.398,1.416s1.318,2.272,1.318,3.984c0,0.104-0.003,0.261-0.01,0.469h-7.734
			c0.065,1.14,0.388,2.012,0.967,2.617c0.58,0.605,1.303,0.908,2.168,0.908c0.645,0,1.195-0.169,1.65-0.508
			C997.085,228.705,997.446,228.165,997.713,227.423z M991.941,224.581h5.791c-0.078-0.873-0.299-1.527-0.664-1.963
			c-0.56-0.677-1.285-1.016-2.178-1.016c-0.807,0-1.485,0.271-2.035,0.811C992.305,222.953,992,223.677,991.941,224.581z"/>
		<path fill="#444444" d="M1008.504,229.483c-0.65,0.554-1.277,0.944-1.879,1.172c-0.603,0.228-1.249,0.342-1.939,0.342
			c-1.139,0-2.015-0.278-2.627-0.835c-0.611-0.557-0.918-1.268-0.918-2.134c0-0.508,0.116-0.972,0.348-1.392
			c0.23-0.42,0.533-0.757,0.908-1.011c0.374-0.254,0.795-0.446,1.264-0.576c0.346-0.091,0.866-0.179,1.562-0.264
			c1.42-0.169,2.465-0.371,3.135-0.605c0.007-0.241,0.01-0.394,0.01-0.459c0-0.716-0.166-1.221-0.498-1.514
			c-0.449-0.397-1.116-0.596-2.002-0.596c-0.826,0-1.437,0.146-1.83,0.435c-0.395,0.289-0.686,0.803-0.875,1.538l-1.719-0.234
			c0.156-0.735,0.414-1.329,0.771-1.782c0.358-0.453,0.876-0.801,1.553-1.045c0.678-0.244,1.462-0.366,2.354-0.366
			c0.886,0,1.605,0.104,2.158,0.312c0.554,0.208,0.961,0.47,1.221,0.786c0.261,0.316,0.443,0.715,0.547,1.196
			c0.059,0.3,0.088,0.84,0.088,1.621v2.344c0,1.634,0.038,2.668,0.113,3.101c0.074,0.433,0.223,0.848,0.443,1.245h-1.836
			C1008.674,230.398,1008.557,229.972,1008.504,229.483z M1008.357,225.558c-0.638,0.261-1.595,0.481-2.871,0.664
			c-0.723,0.104-1.233,0.222-1.533,0.352c-0.299,0.13-0.53,0.32-0.693,0.571c-0.162,0.251-0.244,0.529-0.244,0.835
			c0,0.469,0.178,0.859,0.533,1.172c0.354,0.312,0.873,0.469,1.557,0.469c0.678,0,1.279-0.148,1.807-0.444s0.915-0.701,1.162-1.216
			c0.189-0.397,0.283-0.983,0.283-1.758V225.558z"/>
		<path fill="#444444" d="M1016.697,229.19l0.254,1.553c-0.494,0.104-0.938,0.156-1.328,0.156c-0.638,0-1.133-0.101-1.484-0.303
			s-0.599-0.467-0.742-0.796c-0.143-0.329-0.215-1.021-0.215-2.075v-5.967h-1.289v-1.367h1.289v-2.568l1.748-1.055v3.623h1.768
			v1.367h-1.768v6.064c0,0.501,0.031,0.823,0.094,0.967c0.062,0.144,0.162,0.257,0.303,0.342c0.14,0.085,0.34,0.127,0.6,0.127
			C1016.121,229.259,1016.379,229.236,1016.697,229.19z"/>
		<path fill="#444444" d="M1025.516,227.423l1.816,0.225c-0.286,1.062-0.816,1.885-1.592,2.471
			c-0.774,0.586-1.764,0.879-2.969,0.879c-1.517,0-2.719-0.467-3.607-1.401s-1.334-2.244-1.334-3.931
			c0-1.745,0.449-3.099,1.348-4.062s2.064-1.445,3.496-1.445c1.387,0,2.52,0.472,3.398,1.416s1.318,2.272,1.318,3.984
			c0,0.104-0.003,0.261-0.01,0.469h-7.734c0.065,1.14,0.388,2.012,0.967,2.617c0.58,0.605,1.303,0.908,2.168,0.908
			c0.645,0,1.195-0.169,1.65-0.508C1024.888,228.705,1025.249,228.165,1025.516,227.423z M1019.744,224.581h5.791
			c-0.078-0.873-0.299-1.527-0.664-1.963c-0.56-0.677-1.285-1.016-2.178-1.016c-0.807,0-1.485,0.271-2.035,0.811
			C1020.107,222.953,1019.803,223.677,1019.744,224.581z"/>
		<path fill="#444444" d="M1036.268,230.763v-1.309c-0.657,1.028-1.624,1.543-2.9,1.543c-0.826,0-1.586-0.228-2.279-0.684
			s-1.23-1.092-1.611-1.909s-0.572-1.756-0.572-2.817c0-1.035,0.173-1.975,0.518-2.817c0.346-0.844,0.863-1.489,1.553-1.938
			c0.69-0.449,1.462-0.674,2.314-0.674c0.625,0,1.182,0.132,1.67,0.396s0.886,0.607,1.191,1.03v-5.137h1.748v14.316H1036.268z
			 M1030.711,225.587c0,1.328,0.28,2.321,0.84,2.979c0.561,0.657,1.221,0.986,1.982,0.986c0.769,0,1.422-0.314,1.959-0.942
			s0.805-1.587,0.805-2.876c0-1.419-0.273-2.461-0.82-3.125s-1.221-0.996-2.021-0.996c-0.781,0-1.434,0.319-1.957,0.957
			C1030.974,223.208,1030.711,224.213,1030.711,225.587z"/>
	</g>
</g>
</svg>
