<?xml version="1.0" encoding="utf-8"?>
<!-- Generator: Adobe Illustrator 16.0.4, SVG Export Plug-In . SVG Version: 6.00 Build 0)  -->
<!DOCTYPE svg PUBLIC "-//W3C//DTD SVG 1.1//EN" "http://www.w3.org/Graphics/SVG/1.1/DTD/svg11.dtd">
<svg version="1.1" id="stats1" xmlns="http://www.w3.org/2000/svg" xmlns:xlink="http://www.w3.org/1999/xlink" x="0px" y="0px"
	 width="1200px" height="400px" viewBox="0 0 1200 400" enable-background="new 0 0 1200 400" xml:space="preserve">
<path id="bar1" opacity="0.06" fill-rule="evenodd" clip-rule="evenodd" fill="#333333" d="M40.5,320.5h76v80h-76V320.5z"/>
<path id="bar2" opacity="0.06" fill-rule="evenodd" clip-rule="evenodd" fill="#333333" d="M120.5,280.5h76v120h-76V280.5z"/>
<path id="bar3" opacity="0.06" fill-rule="evenodd" clip-rule="evenodd" fill="#333333" d="M200.5,240.5h76v160h-76V240.5z"/>
<path id="bar4" opacity="0.06" fill-rule="evenodd" clip-rule="evenodd" fill="#333333" d="M280.5,190.5h76v210h-76V190.5z"/>
<path id="bar5" opacity="0.06" fill-rule="evenodd" clip-rule="evenodd" fill="#333333" d="M360.5,250.5h76v150h-76V250.5z"/>
<path id="bar6" opacity="0.06" fill-rule="evenodd" clip-rule="evenodd" fill="#333333" d="M440.5,110.5h76v290h-76V110.5z"/>
<path id="bar7" opacity="0.06" fill-rule="evenodd" clip-rule="evenodd" fill="#333333" d="M520.5,190.5h76v210h-76V190.5z"/>
<path id="bar8" opacity="0.06" fill-rule="evenodd" clip-rule="evenodd" fill="#333333" d="M600.5,150.5h76v250h-76V150.5z"/>
<path id="bar9" opacity="0.06" fill-rule="evenodd" clip-rule="evenodd" fill="#333333" d="M760.5,190.5h76v210h-76V190.5z"/>
<path id="bar10" opacity="0.06" fill-rule="evenodd" clip-rule="evenodd" fill="#333333" d="M840.5,150.5h76v250h-76V150.5z"/>
<path id="bar11" opacity="0.06" fill-rule="evenodd" clip-rule="evenodd" fill="#333333" d="M920.5,220.5h76v180h-76V220.5z"/>
<path id="bar12" opacity="0.06" fill-rule="evenodd" clip-rule="evenodd" fill="#333333" d="M1000.5,320.5h76v80h-76V320.5z"/>
<path id="bar13" opacity="0.06" fill-rule="evenodd" clip-rule="evenodd" fill="#333333" d="M1080.5,300.5h76v100h-76V300.5z"/>
<path id="bar_x5F_active" fill-rule="evenodd" clip-rule="evenodd" fill="#546B8E" d="M680.5,50.5h76v350h-76V50.5z"/>
<g id="text_path">
	<path fill="#FFFFFF" d="M707.871,78.451V81h-9.619c0.104-0.963,0.416-1.876,0.938-2.739s1.549-2.007,3.086-3.433
		c1.236-1.152,1.996-1.934,2.275-2.344c0.377-0.566,0.566-1.126,0.566-1.68c0-0.612-0.164-1.083-0.493-1.411
		s-0.782-0.493-1.362-0.493c-0.572,0-1.029,0.172-1.367,0.518s-0.533,0.918-0.586,1.719l-2.734-0.273
		c0.162-1.51,0.674-2.594,1.533-3.252s1.934-0.986,3.223-0.986c1.412,0,2.523,0.381,3.33,1.143s1.211,1.709,1.211,2.842
		c0,0.645-0.115,1.258-0.347,1.841s-0.597,1.193-1.099,1.831c-0.332,0.423-0.932,1.032-1.797,1.826s-1.414,1.322-1.646,1.582
		s-0.419,0.514-0.562,0.762H707.871z"/>
	<path fill="#FFFFFF" d="M712.08,73.275c-0.709-0.299-1.226-0.711-1.548-1.235s-0.483-1.099-0.483-1.724
		c0-1.068,0.373-1.95,1.118-2.646s1.806-1.045,3.179-1.045c1.361,0,2.417,0.348,3.169,1.045s1.128,1.579,1.128,2.646
		c0,0.664-0.172,1.255-0.518,1.772s-0.83,0.913-1.455,1.187c0.795,0.319,1.398,0.785,1.812,1.396s0.62,1.318,0.62,2.119
		c0,1.322-0.422,2.396-1.265,3.223s-1.964,1.24-3.364,1.24c-1.303,0-2.387-0.342-3.252-1.025c-1.021-0.807-1.533-1.914-1.533-3.32
		c0-0.775,0.191-1.486,0.576-2.134S711.254,73.627,712.08,73.275z M712.393,76.645c0,0.755,0.193,1.344,0.581,1.768
		s0.87,0.635,1.45,0.635c0.566,0,1.035-0.204,1.406-0.61s0.557-0.995,0.557-1.763c0-0.67-0.189-1.209-0.566-1.616
		s-0.855-0.61-1.436-0.61c-0.67,0-1.17,0.231-1.499,0.693S712.393,76.104,712.393,76.645z M712.646,70.512
		c0,0.547,0.154,0.973,0.464,1.279s0.722,0.459,1.235,0.459c0.521,0,0.938-0.155,1.25-0.464s0.469-0.737,0.469-1.284
		c0-0.514-0.154-0.926-0.464-1.235s-0.718-0.464-1.226-0.464c-0.527,0-0.947,0.156-1.26,0.469S712.646,69.998,712.646,70.512z"/>
	<path fill="#FFFFFF" d="M726.23,81v-2.881h-5.859v-2.402l6.211-9.092h2.305v9.082h1.777v2.412h-1.777V81H726.23z M726.23,75.707
		v-4.893l-3.291,4.893H726.23z"/>
	<path fill="#FFFFFF" d="M741.27,70.189l-2.656,0.293c-0.065-0.547-0.234-0.951-0.508-1.211s-0.628-0.391-1.064-0.391
		c-0.579,0-1.069,0.26-1.47,0.781s-0.652,1.605-0.757,3.252c0.684-0.807,1.533-1.211,2.549-1.211c1.146,0,2.127,0.436,2.944,1.309
		s1.226,1.999,1.226,3.379c0,1.465-0.43,2.64-1.289,3.525s-1.963,1.328-3.311,1.328c-1.445,0-2.634-0.562-3.564-1.685
		s-1.396-2.964-1.396-5.522c0-2.624,0.485-4.515,1.455-5.674s2.229-1.738,3.779-1.738c1.087,0,1.987,0.304,2.7,0.913
		S741.074,69.031,741.27,70.189z M735.049,76.176c0,0.892,0.205,1.581,0.615,2.065s0.879,0.728,1.406,0.728
		c0.508,0,0.931-0.199,1.27-0.596s0.508-1.048,0.508-1.953c0-0.931-0.183-1.613-0.547-2.046s-0.82-0.649-1.367-0.649
		c-0.527,0-0.974,0.207-1.338,0.62S735.049,75.369,735.049,76.176z"/>
	<path fill="#FFFFFF" d="M701.017,97l-3.582-10.021h2.194l2.536,7.417l2.454-7.417h2.146L703.177,97H701.017z"/>
	<path fill="#FFFFFF" d="M707.736,97V86.979h2.023V97H707.736z"/>
	<path fill="#FFFFFF" d="M711.688,97V86.979h7.431v1.695h-5.407v2.222h5.031v1.688h-5.031v2.728h5.599V97H711.688z"/>
	<path fill="#FFFFFF" d="M722.447,97l-2.393-10.021h2.071l1.511,6.884l1.832-6.884h2.406l1.757,7l1.538-7h2.037L730.773,97h-2.146
		l-1.996-7.492L724.642,97H722.447z"/>
	<path fill="#FFFFFF" d="M733.727,93.739l1.969-0.191c0.118,0.661,0.359,1.146,0.721,1.456c0.363,0.31,0.852,0.465,1.467,0.465
		c0.651,0,1.143-0.138,1.473-0.414c0.331-0.275,0.496-0.598,0.496-0.967c0-0.237-0.069-0.438-0.209-0.605
		c-0.139-0.166-0.381-0.311-0.728-0.434c-0.237-0.082-0.777-0.228-1.62-0.438c-1.085-0.269-1.846-0.6-2.283-0.991
		c-0.615-0.552-0.923-1.224-0.923-2.017c0-0.511,0.145-0.988,0.435-1.432c0.289-0.445,0.706-0.783,1.25-1.016
		c0.545-0.232,1.202-0.349,1.973-0.349c1.258,0,2.205,0.275,2.84,0.827c0.637,0.552,0.97,1.287,1.002,2.208l-2.023,0.089
		c-0.087-0.515-0.272-0.885-0.557-1.111c-0.285-0.225-0.713-0.338-1.282-0.338c-0.588,0-1.048,0.121-1.381,0.362
		c-0.214,0.155-0.321,0.362-0.321,0.622c0,0.237,0.101,0.439,0.301,0.608c0.255,0.214,0.875,0.438,1.859,0.67
		s1.713,0.473,2.184,0.722c0.473,0.248,0.842,0.588,1.107,1.018c0.268,0.432,0.4,0.963,0.4,1.597c0,0.574-0.159,1.112-0.479,1.613
		s-0.771,0.874-1.354,1.118c-0.583,0.243-1.311,0.365-2.181,0.365c-1.267,0-2.24-0.293-2.919-0.879
		C734.265,95.714,733.858,94.86,733.727,93.739z"/>
</g>
</svg>
