<?xml version="1.0" encoding="utf-8"?>
<!DOCTYPE svg PUBLIC "-//W3C//DTD SVG 1.1//EN" "http://www.w3.org/Graphics/SVG/1.1/DTD/svg11.dtd">
<svg version="1.1" id="features_icon_uikit" xmlns="http://www.w3.org/2000/svg" xmlns:xlink="http://www.w3.org/1999/xlink"
	 x="0px" y="0px" width="150px" height="150px" viewBox="0 0 150 150" enable-background="new 0 0 150 150" xml:space="preserve">
<path id="icon" fill-rule="evenodd" clip-rule="evenodd" fill="#444444" d="M110.295,38.531c1.432,0,2.658,0.511,3.671,1.552
	c1.022,1.031,1.525,2.258,1.525,3.679v59.489c0,1.422-0.503,2.657-1.525,3.688c-1.013,1.031-2.239,1.542-3.671,1.542H36.752
	c-1.422,0-2.658-0.511-3.69-1.542s-1.543-2.267-1.543-3.688V43.761c0-1.421,0.511-2.647,1.543-3.679
	c1.032-1.041,2.268-1.552,3.69-1.552H110.295L110.295,38.531z M108.519,45.545H38.537v55.93h69.982V45.545z M52.609,66.579
	c-1.998,0-3.69-0.677-5.056-2.043c-1.367-1.366-2.045-3.01-2.045-4.924c0-1.997,0.679-3.688,2.045-5.054
	c1.366-1.366,3.058-2.044,5.056-2.044c1.915,0,3.56,0.678,4.926,2.044c1.366,1.365,2.044,3.057,2.044,5.054
	c0,1.914-0.678,3.558-2.044,4.924C56.169,65.902,54.524,66.579,52.609,66.579z M101.501,94.508H45.508v-4.785l12.623-16.398
	l8.561,7.107l16.127-24.462l18.683,19.316V94.508z"/>
</svg>
