<?xml version="1.0" encoding="utf-8"?>
<!DOCTYPE svg PUBLIC "-//W3C//DTD SVG 1.1//EN" "http://www.w3.org/Graphics/SVG/1.1/DTD/svg11.dtd">
<svg version="1.1" id="features_layouts" xmlns="http://www.w3.org/2000/svg" xmlns:xlink="http://www.w3.org/1999/xlink" x="0px"
	 y="0px" width="560px" height="341px" viewBox="0 0 560 341" enable-background="new 0 0 560 341" xml:space="preserve">
<rect id="toolbar-l" y="13" opacity="0.05" enable-background="new    " width="133" height="17"/>
<rect id="toolbar-r" x="137" y="13" opacity="0.05" enable-background="new    " width="122" height="17"/>
<rect id="toolbar-l_1_" y="314" opacity="0.05" enable-background="new    " width="133" height="17"/>
<rect id="toolbar-r_1_" x="137" y="314" opacity="0.05" enable-background="new    " width="122" height="17"/>
<rect id="logo" y="35" opacity="0.05" enable-background="new    " width="54" height="17"/>
<rect id="headerbar" x="59" y="35" opacity="0.05" enable-background="new    " width="60" height="17"/>
<rect id="menu" x="122.953" y="35" opacity="0.05" enable-background="new    " width="55" height="17"/>
<rect id="search" x="182" y="35" opacity="0.05" enable-background="new    " width="55" height="17"/>
<rect id="search_1_" x="240.5" y="35" opacity="0.05" enable-background="new    " width="19" height="17"/>
<g id="top-a" opacity="0.1">
	<rect y="56" fill="#777777" width="260" height="22"/>
</g>
<g id="top-b" opacity="0.1">
	<rect y="83" fill="#777777" width="260" height="22"/>
</g>
<rect id="sidebar-a__x28_left_x29_" y="137" opacity="0.2" fill="#444444" enable-background="new    " width="26" height="92"/>
<rect id="sidebar-b__x28_left_x29_" x="31" y="137" opacity="0.2" fill="#444444" enable-background="new    " width="26" height="92"/>
<rect id="sidebar-a__x28_right_x29_" x="234" y="137" opacity="0.2" fill="#444444" enable-background="new    " width="26" height="92"/>
<rect id="sidebar-b__x28_right_x29_" x="203" y="137" opacity="0.2" fill="#444444" enable-background="new    " width="26" height="92"/>
<g id="inner_top" opacity="0.1">
	<rect x="62" y="137" fill="#777777" width="136" height="20"/>
</g>
<rect id="content" x="62" y="162" opacity="0.05" enable-background="new    " width="136" height="42"/>
<g id="inner_bottom" opacity="0.1">
	<rect x="62" y="209" fill="#777777" width="136" height="20"/>
</g>
<g id="bottom-a" opacity="0.1">
	<rect y="234" fill="#777777" width="260" height="22"/>
</g>
<g id="bottom-b" opacity="0.1">
	<rect y="261" fill="#777777" width="260" height="22"/>
</g>
<path fill="#444444" d="M46.282,25h-0.747v-5.761H43.5v-0.664h4.816v0.664h-2.035L46.282,25L46.282,25z"/>
<path fill="#444444" d="M54.86,21.779c0,1.028-0.26,1.837-0.78,2.426s-1.243,0.883-2.168,0.883c-0.946,0-1.676-0.289-2.191-0.868
	c-0.514-0.578-0.771-1.395-0.771-2.45c0-1.046,0.258-1.857,0.773-2.432c0.516-0.576,1.248-0.864,2.197-0.864
	c0.923,0,1.644,0.293,2.162,0.879S54.86,20.748,54.86,21.779z M49.74,21.779c0,0.87,0.185,1.53,0.556,1.98
	c0.37,0.45,0.909,0.674,1.615,0.674c0.712,0,1.25-0.224,1.613-0.672c0.363-0.448,0.545-1.109,0.545-1.982
	c0-0.864-0.181-1.52-0.543-1.966c-0.362-0.446-0.897-0.67-1.606-0.67c-0.712,0-1.253,0.225-1.624,0.674
	C49.925,20.267,49.74,20.92,49.74,21.779z"/>
<path fill="#444444" d="M61.869,21.779c0,1.028-0.26,1.837-0.78,2.426s-1.243,0.883-2.168,0.883c-0.946,0-1.676-0.289-2.191-0.868
	c-0.514-0.578-0.771-1.395-0.771-2.45c0-1.046,0.258-1.857,0.773-2.432c0.516-0.576,1.248-0.864,2.197-0.864
	c0.923,0,1.644,0.293,2.162,0.879C61.609,19.939,61.869,20.748,61.869,21.779z M56.75,21.779c0,0.87,0.185,1.53,0.556,1.98
	c0.37,0.45,0.909,0.674,1.615,0.674c0.712,0,1.25-0.224,1.613-0.672c0.363-0.448,0.545-1.109,0.545-1.982
	c0-0.864-0.181-1.52-0.543-1.966c-0.362-0.446-0.897-0.67-1.606-0.67c-0.712,0-1.253,0.225-1.624,0.674
	C56.935,20.267,56.75,20.92,56.75,21.779z"/>
<path fill="#444444" d="M63.302,25v-6.425h0.747v5.748h2.834V25H63.302z"/>
<path fill="#444444" d="M67.973,18.575h1.815c0.853,0,1.469,0.127,1.85,0.382c0.381,0.255,0.571,0.658,0.571,1.208
	c0,0.381-0.106,0.695-0.319,0.942c-0.212,0.248-0.522,0.408-0.929,0.481v0.044c0.976,0.167,1.463,0.68,1.463,1.538
	c0,0.574-0.194,1.022-0.582,1.345C71.454,24.839,70.912,25,70.214,25h-2.241V18.575z M68.72,21.326h1.23
	c0.527,0,0.907-0.083,1.138-0.248s0.347-0.445,0.347-0.837c0-0.36-0.129-0.62-0.387-0.78c-0.258-0.16-0.668-0.24-1.23-0.24H68.72
	V21.326z M68.72,21.959v2.404h1.34c0.519,0,0.909-0.1,1.171-0.301c0.262-0.2,0.394-0.515,0.394-0.942
	c0-0.398-0.134-0.691-0.402-0.879c-0.268-0.188-0.676-0.281-1.224-0.281L68.72,21.959L68.72,21.959z"/>
<path fill="#444444" d="M77.843,25l-0.8-2.043h-2.575L73.677,25h-0.756l2.54-6.451h0.628L78.617,25H77.843z M76.811,22.284
	l-0.747-1.991c-0.097-0.252-0.196-0.561-0.299-0.927c-0.064,0.281-0.157,0.59-0.277,0.927l-0.756,1.991H76.811z"/>
<path fill="#444444" d="M80.247,22.328V25H79.5v-6.425h1.762c0.788,0,1.37,0.151,1.747,0.453c0.376,0.302,0.564,0.756,0.564,1.362
	c0,0.85-0.431,1.424-1.292,1.723L84.026,25h-0.883l-1.556-2.672H80.247z M80.247,21.687h1.024c0.527,0,0.914-0.104,1.16-0.314
	c0.246-0.209,0.369-0.523,0.369-0.942c0-0.425-0.125-0.731-0.376-0.918c-0.25-0.188-0.652-0.281-1.206-0.281h-0.971V21.687z"/>
<path fill="#444444" d="M84.549,22.921v-0.668h2.158v0.668H84.549z"/>
<path fill="#444444" d="M87.959,25v-6.425h0.747v5.748h2.834V25H87.959z"/>
<path fill="#444444" d="M78.549,323.921v-0.668h2.158v0.668H78.549z"/>
<path fill="#444444" d="M81.959,326v-6.425h0.747v5.748h2.834V326H81.959z"/>
<path fill="#444444" d="M175.795,24.912h-0.747V19.15h-2.035v-0.663h4.816v0.663h-2.035L175.795,24.912L175.795,24.912z"/>
<path fill="#444444" d="M184.374,21.691c0,1.027-0.26,1.836-0.78,2.426c-0.52,0.588-1.243,0.883-2.168,0.883
	c-0.946,0-1.676-0.289-2.191-0.868c-0.514-0.578-0.771-1.396-0.771-2.45c0-1.045,0.258-1.856,0.773-2.432
	c0.516-0.576,1.248-0.863,2.197-0.863c0.923,0,1.644,0.293,2.162,0.879S184.374,20.66,184.374,21.691z M179.254,21.691
	c0,0.869,0.185,1.529,0.556,1.979c0.37,0.449,0.909,0.675,1.615,0.675c0.712,0,1.25-0.225,1.613-0.673
	c0.363-0.448,0.545-1.108,0.545-1.981c0-0.864-0.181-1.521-0.543-1.967c-0.362-0.447-0.897-0.67-1.606-0.67
	c-0.712,0-1.253,0.225-1.624,0.674C179.439,20.179,179.254,20.833,179.254,21.691z"/>
<path fill="#444444" d="M191.383,21.691c0,1.027-0.26,1.836-0.78,2.426c-0.52,0.588-1.243,0.883-2.168,0.883
	c-0.946,0-1.676-0.289-2.191-0.868c-0.514-0.578-0.771-1.396-0.771-2.45c0-1.045,0.258-1.856,0.773-2.432
	c0.516-0.576,1.248-0.863,2.197-0.863c0.923,0,1.644,0.293,2.162,0.879S191.383,20.66,191.383,21.691z M186.263,21.691
	c0,0.869,0.185,1.529,0.556,1.979c0.37,0.449,0.909,0.675,1.615,0.675c0.712,0,1.25-0.225,1.613-0.673
	c0.363-0.448,0.545-1.108,0.545-1.981c0-0.864-0.181-1.521-0.543-1.967c-0.362-0.447-0.897-0.67-1.606-0.67
	c-0.712,0-1.253,0.225-1.624,0.674C186.448,20.179,186.263,20.833,186.263,21.691z"/>
<path fill="#444444" d="M192.815,24.912v-6.425h0.747v5.748h2.834v0.677H192.815z"/>
<path fill="#444444" d="M197.487,18.487h1.815c0.853,0,1.469,0.128,1.851,0.382c0.381,0.256,0.57,0.658,0.57,1.209
	c0,0.381-0.105,0.695-0.318,0.942c-0.213,0.248-0.522,0.408-0.929,0.481v0.044c0.976,0.167,1.463,0.68,1.463,1.538
	c0,0.574-0.194,1.022-0.582,1.345c-0.389,0.322-0.931,0.483-1.628,0.483h-2.241L197.487,18.487L197.487,18.487z M198.234,21.238
	h1.23c0.527,0,0.907-0.083,1.138-0.248c0.231-0.166,0.347-0.444,0.347-0.838c0-0.359-0.129-0.62-0.387-0.779
	c-0.258-0.16-0.668-0.24-1.23-0.24h-1.099L198.234,21.238L198.234,21.238z M198.234,21.871v2.404h1.34
	c0.519,0,0.909-0.101,1.171-0.302c0.262-0.2,0.394-0.515,0.394-0.942c0-0.398-0.134-0.691-0.402-0.879
	c-0.268-0.188-0.676-0.281-1.224-0.281H198.234z"/>
<path fill="#444444" d="M207.357,24.912l-0.801-2.043h-2.574l-0.791,2.043h-0.756l2.539-6.451h0.629l2.527,6.451H207.357z
	 M206.324,22.196l-0.747-1.991c-0.097-0.251-0.196-0.561-0.299-0.927c-0.064,0.281-0.157,0.591-0.276,0.927l-0.756,1.991H206.324z"
	/>
<path fill="#444444" d="M209.761,22.24v2.672h-0.747v-6.425h1.762c0.789,0,1.371,0.151,1.748,0.452
	c0.375,0.303,0.564,0.756,0.564,1.363c0,0.85-0.432,1.424-1.293,1.723l1.745,2.887h-0.884l-1.555-2.672H209.761z M209.761,21.599
	h1.024c0.527,0,0.914-0.104,1.16-0.314c0.246-0.209,0.369-0.523,0.369-0.942c0-0.425-0.125-0.73-0.377-0.918
	c-0.25-0.188-0.652-0.281-1.205-0.281h-0.972v2.455H209.761z"/>
<path fill="#444444" d="M214.062,22.834v-0.668h2.158v0.668H214.062z"/>
<path fill="#444444" d="M218.221,22.24v2.672h-0.748v-6.425h1.763c0.788,0,1.37,0.151,1.747,0.452
	c0.376,0.303,0.564,0.756,0.564,1.363c0,0.85-0.431,1.424-1.292,1.723L222,24.912h-0.884l-1.556-2.672H218.221z M218.221,21.599
	h1.023c0.527,0,0.914-0.104,1.16-0.314c0.246-0.209,0.369-0.523,0.369-0.942c0-0.425-0.125-0.73-0.376-0.918
	c-0.25-0.188-0.652-0.281-1.206-0.281h-0.971L218.221,21.599L218.221,21.599z"/>
<path fill="#444444" d="M208.062,323.834v-0.668h2.158v0.668H208.062z"/>
<path fill="#444444" d="M212.221,323.24v2.672h-0.748v-6.426h1.763c0.788,0,1.37,0.152,1.747,0.453
	c0.376,0.303,0.564,0.756,0.564,1.362c0,0.851-0.431,1.425-1.292,1.724l1.745,2.887h-0.884l-1.556-2.672H212.221z M212.221,322.6
	h1.023c0.527,0,0.914-0.104,1.16-0.314c0.246-0.209,0.369-0.523,0.369-0.942c0-0.425-0.125-0.729-0.376-0.918
	c-0.25-0.188-0.652-0.28-1.206-0.28h-0.971L212.221,322.6L212.221,322.6z"/>
<g>
	<path fill="#444444" d="M68.854,47h-0.747v-3.023h-3.384V47h-0.747v-6.425h0.747v2.733h3.384v-2.733h0.747V47z"/>
	<path fill="#444444" d="M74.198,47h-3.582v-6.425h3.582v0.664h-2.834v2.07h2.663v0.659h-2.663v2.364h2.834V47z"/>
	<path fill="#444444" d="M79.66,47l-0.8-2.043h-2.575L75.494,47h-0.756l2.54-6.451h0.628L80.434,47H79.66z M78.627,44.284
		l-0.747-1.991c-0.097-0.252-0.196-0.561-0.299-0.927c-0.064,0.281-0.157,0.59-0.277,0.927l-0.756,1.991H78.627z"/>
	<path fill="#444444" d="M86.445,43.726c0,1.061-0.288,1.872-0.863,2.432C85.006,46.72,84.178,47,83.097,47h-1.78v-6.425h1.969
		c0.999,0,1.775,0.277,2.329,0.831C86.169,41.96,86.445,42.733,86.445,43.726z M85.654,43.752c0-0.838-0.21-1.469-0.631-1.894
		c-0.421-0.425-1.045-0.637-1.874-0.637h-1.085v5.133h0.91c0.891,0,1.56-0.219,2.008-0.657
		C85.43,45.259,85.654,44.611,85.654,43.752z"/>
	<path fill="#444444" d="M91.459,47h-3.582v-6.425h3.582v0.664h-2.834v2.07h2.663v0.659h-2.663v2.364h2.834V47z"/>
	<path fill="#444444" d="M93.63,44.328V47h-0.747v-6.425h1.762c0.788,0,1.37,0.151,1.747,0.453c0.376,0.302,0.564,0.756,0.564,1.362
		c0,0.85-0.431,1.424-1.292,1.723L97.41,47h-0.883l-1.556-2.672H93.63z M93.63,43.687h1.024c0.527,0,0.914-0.104,1.16-0.314
		c0.246-0.209,0.369-0.523,0.369-0.942c0-0.425-0.125-0.731-0.376-0.918c-0.25-0.188-0.652-0.281-1.206-0.281H93.63V43.687
		L93.63,43.687z"/>
	<path fill="#444444" d="M98.447,40.575h1.815c0.853,0,1.469,0.127,1.85,0.382c0.381,0.255,0.571,0.658,0.571,1.208
		c0,0.381-0.106,0.695-0.319,0.942c-0.212,0.248-0.522,0.408-0.929,0.481v0.044c0.976,0.167,1.463,0.68,1.463,1.538
		c0,0.574-0.194,1.022-0.582,1.345c-0.389,0.322-0.931,0.483-1.628,0.483h-2.241V40.575z M99.194,43.326h1.23
		c0.527,0,0.907-0.083,1.138-0.248s0.347-0.445,0.347-0.837c0-0.36-0.129-0.62-0.387-0.78s-0.668-0.24-1.23-0.24h-1.099
		L99.194,43.326L99.194,43.326z M99.194,43.959v2.404h1.34c0.519,0,0.909-0.1,1.171-0.301c0.262-0.2,0.394-0.515,0.394-0.942
		c0-0.398-0.134-0.691-0.402-0.879c-0.268-0.188-0.676-0.281-1.224-0.281L99.194,43.959L99.194,43.959z"/>
	<path fill="#444444" d="M108.317,47l-0.8-2.043h-2.575L104.151,47h-0.756l2.54-6.451h0.628L109.09,47H108.317z M107.284,44.284
		l-0.747-1.991c-0.097-0.252-0.196-0.561-0.299-0.927c-0.064,0.281-0.157,0.59-0.277,0.927l-0.756,1.991H107.284z"/>
	<path fill="#444444" d="M110.721,44.328V47h-0.747v-6.425h1.762c0.788,0,1.37,0.151,1.747,0.453
		c0.376,0.302,0.564,0.756,0.564,1.362c0,0.85-0.431,1.424-1.292,1.723L114.5,47h-0.883l-1.556-2.672H110.721z M110.721,43.687
		h1.024c0.527,0,0.914-0.104,1.16-0.314c0.246-0.209,0.369-0.523,0.369-0.942c0-0.425-0.125-0.731-0.376-0.918
		c-0.25-0.188-0.652-0.281-1.206-0.281h-0.971V43.687L110.721,43.687z"/>
</g>
<g>
	<path fill="#444444" d="M16.69,47v-6.425h0.747v5.748h2.834V47H16.69z"/>
	<path fill="#444444" d="M26.938,43.779c0,1.028-0.26,1.837-0.78,2.426s-1.243,0.883-2.168,0.883c-0.946,0-1.676-0.289-2.191-0.868
		c-0.514-0.578-0.771-1.395-0.771-2.45c0-1.046,0.258-1.857,0.773-2.432c0.516-0.576,1.248-0.864,2.197-0.864
		c0.923,0,1.644,0.293,2.162,0.879S26.938,42.748,26.938,43.779z M21.819,43.779c0,0.87,0.185,1.53,0.556,1.98
		c0.37,0.45,0.909,0.674,1.615,0.674c0.712,0,1.25-0.224,1.613-0.672c0.363-0.448,0.545-1.109,0.545-1.982
		c0-0.864-0.181-1.52-0.543-1.966s-0.897-0.67-1.606-0.67c-0.712,0-1.253,0.225-1.624,0.674
		C22.004,42.267,21.819,42.92,21.819,43.779z"/>
	<path fill="#444444" d="M31.197,43.634h2.184v3.125c-0.34,0.108-0.686,0.19-1.037,0.246c-0.351,0.056-0.759,0.083-1.222,0.083
		c-0.973,0-1.73-0.289-2.272-0.868c-0.542-0.578-0.813-1.389-0.813-2.432c0-0.668,0.134-1.253,0.402-1.755
		c0.269-0.502,0.654-0.886,1.158-1.151c0.504-0.265,1.094-0.398,1.771-0.398c0.686,0,1.324,0.126,1.916,0.378l-0.29,0.659
		c-0.58-0.246-1.138-0.369-1.674-0.369c-0.782,0-1.393,0.233-1.833,0.699c-0.44,0.466-0.659,1.112-0.659,1.938
		c0,0.867,0.211,1.525,0.635,1.973c0.423,0.448,1.045,0.672,1.865,0.672c0.445,0,0.88-0.051,1.305-0.154v-1.979h-1.437
		L31.197,43.634L31.197,43.634z"/>
	<path fill="#444444" d="M40.5,43.779c0,1.028-0.26,1.837-0.78,2.426s-1.243,0.883-2.168,0.883c-0.946,0-1.676-0.289-2.191-0.868
		c-0.514-0.578-0.771-1.395-0.771-2.45c0-1.046,0.258-1.857,0.773-2.432c0.516-0.576,1.248-0.864,2.197-0.864
		c0.923,0,1.644,0.293,2.162,0.879S40.5,42.748,40.5,43.779z M35.38,43.779c0,0.87,0.185,1.53,0.556,1.98
		c0.37,0.45,0.909,0.674,1.615,0.674c0.712,0,1.25-0.224,1.613-0.672c0.363-0.448,0.545-1.109,0.545-1.982
		c0-0.864-0.181-1.52-0.543-1.966s-0.897-0.67-1.606-0.67c-0.712,0-1.253,0.225-1.624,0.674C35.565,42.267,35.38,42.92,35.38,43.779
		z"/>
</g>
<g>
	<path fill="#444444" d="M141.296,47l-2.18-5.695h-0.035c0.041,0.451,0.062,0.987,0.062,1.608V47h-0.69v-6.425h1.125l2.035,5.3
		h0.035l2.052-5.3h1.116V47h-0.747v-4.14c0-0.475,0.021-0.99,0.062-1.547h-0.035L141.898,47H141.296z"/>
	<path fill="#444444" d="M150.16,47h-3.582v-6.425h3.582v0.664h-2.834v2.07h2.663v0.659h-2.663v2.364h2.834V47z"/>
	<path fill="#444444" d="M156.602,47h-0.853l-3.511-5.392h-0.035c0.047,0.633,0.07,1.213,0.07,1.74V47h-0.69v-6.425h0.844
		l3.502,5.37h0.035c-0.006-0.079-0.019-0.333-0.04-0.763c-0.021-0.429-0.028-0.736-0.022-0.92v-3.687h0.699L156.602,47L156.602,47z"
		/>
	<path fill="#444444" d="M163.221,40.575v4.157c0,0.732-0.221,1.308-0.664,1.727c-0.443,0.419-1.05,0.628-1.824,0.628
		s-1.372-0.211-1.795-0.633s-0.635-1.002-0.635-1.74v-4.14h0.747v4.192c0,0.536,0.146,0.948,0.439,1.235
		c0.293,0.287,0.724,0.431,1.292,0.431c0.542,0,0.959-0.144,1.252-0.433c0.293-0.288,0.439-0.702,0.439-1.241v-4.184L163.221,40.575
		L163.221,40.575z"/>
</g>
<g>
	<path fill="#444444" d="M198.366,45.291c0,0.565-0.205,1.006-0.615,1.323c-0.41,0.317-0.967,0.475-1.67,0.475
		c-0.762,0-1.348-0.098-1.758-0.294v-0.721c0.264,0.111,0.551,0.199,0.861,0.264s0.618,0.097,0.923,0.097
		c0.498,0,0.873-0.094,1.125-0.284c0.252-0.188,0.378-0.452,0.378-0.789c0-0.223-0.045-0.405-0.134-0.547
		c-0.09-0.142-0.239-0.273-0.448-0.393c-0.21-0.12-0.528-0.256-0.956-0.409c-0.598-0.214-1.025-0.467-1.281-0.76
		s-0.384-0.675-0.384-1.147c0-0.495,0.186-0.889,0.558-1.182s0.864-0.439,1.477-0.439c0.639,0,1.226,0.117,1.762,0.352l-0.233,0.65
		c-0.53-0.223-1.046-0.334-1.547-0.334c-0.396,0-0.705,0.085-0.927,0.255c-0.222,0.17-0.334,0.406-0.334,0.708
		c0,0.223,0.041,0.405,0.123,0.547c0.082,0.143,0.22,0.272,0.416,0.392c0.194,0.118,0.493,0.25,0.894,0.393
		c0.674,0.24,1.137,0.498,1.391,0.773C198.239,44.494,198.366,44.851,198.366,45.291z"/>
	<path fill="#444444" d="M203.262,47h-3.582v-6.425h3.582v0.664h-2.834v2.07h2.663v0.659h-2.663v2.364h2.834V47z"/>
	<path fill="#444444" d="M208.724,47l-0.8-2.043h-2.575L204.558,47h-0.756l2.54-6.451h0.628L209.498,47H208.724z M207.691,44.284
		l-0.747-1.991c-0.097-0.252-0.196-0.561-0.299-0.927c-0.064,0.281-0.157,0.59-0.277,0.927l-0.756,1.991H207.691z"/>
	<path fill="#444444" d="M211.128,44.328V47h-0.747v-6.425h1.762c0.788,0,1.37,0.151,1.747,0.453
		c0.376,0.302,0.564,0.756,0.564,1.362c0,0.85-0.431,1.424-1.292,1.723L214.907,47h-0.883l-1.556-2.672H211.128z M211.128,43.687
		h1.024c0.527,0,0.914-0.104,1.16-0.314c0.246-0.209,0.369-0.523,0.369-0.942c0-0.425-0.125-0.731-0.376-0.918
		c-0.25-0.188-0.652-0.281-1.206-0.281h-0.971V43.687L211.128,43.687z"/>
	<path fill="#444444" d="M218.695,41.151c-0.706,0-1.264,0.235-1.672,0.706c-0.408,0.47-0.613,1.114-0.613,1.931
		c0,0.841,0.197,1.491,0.591,1.949c0.394,0.459,0.956,0.688,1.685,0.688c0.448,0,0.959-0.081,1.535-0.242v0.655
		c-0.445,0.167-0.996,0.25-1.648,0.25c-0.946,0-1.676-0.287-2.191-0.861c-0.514-0.574-0.771-1.39-0.771-2.448
		c0-0.662,0.124-1.242,0.372-1.74c0.247-0.498,0.604-0.882,1.073-1.151c0.467-0.27,1.016-0.404,1.649-0.404
		c0.674,0,1.263,0.123,1.767,0.369l-0.316,0.642C219.668,41.265,219.182,41.151,218.695,41.151z"/>
	<path fill="#444444" d="M226.5,47h-0.747v-3.023h-3.384V47h-0.747v-6.425h0.747v2.733h3.384v-2.733h0.747V47z"/>
</g>
<g>
	<path fill="#444444" d="M122.363,70h-0.747v-5.761h-2.035v-0.664h4.816v0.664h-2.035L122.363,70L122.363,70z"/>
	<path fill="#444444" d="M130.941,66.779c0,1.028-0.26,1.837-0.78,2.426s-1.243,0.883-2.168,0.883c-0.946,0-1.676-0.289-2.191-0.867
		c-0.514-0.578-0.771-1.396-0.771-2.451c0-1.046,0.258-1.857,0.773-2.432c0.516-0.576,1.248-0.864,2.197-0.864
		c0.923,0,1.644,0.293,2.162,0.879S130.941,65.748,130.941,66.779z M125.821,66.779c0,0.87,0.185,1.53,0.556,1.98
		c0.37,0.45,0.909,0.675,1.615,0.675c0.712,0,1.25-0.225,1.613-0.673c0.363-0.448,0.545-1.108,0.545-1.982
		c0-0.864-0.181-1.52-0.543-1.966s-0.897-0.67-1.606-0.67c-0.712,0-1.253,0.225-1.624,0.674
		C126.006,65.267,125.821,65.92,125.821,66.779z"/>
	<path fill="#444444" d="M136.447,65.447c0,0.65-0.222,1.151-0.666,1.501c-0.443,0.35-1.079,0.525-1.905,0.525h-0.756V70h-0.747
		v-6.425h1.666C135.645,63.575,136.447,64.199,136.447,65.447z M133.121,66.832h0.672c0.662,0,1.141-0.107,1.437-0.321
		c0.296-0.214,0.444-0.557,0.444-1.028c0-0.425-0.139-0.741-0.417-0.949c-0.278-0.208-0.712-0.312-1.301-0.312h-0.835V66.832
		L133.121,66.832z"/>
	<path fill="#444444" d="M137.278,67.921v-0.668h2.158v0.668H137.278z"/>
	<path fill="#444444" d="M144.727,70l-0.8-2.043h-2.575L140.561,70h-0.756l2.54-6.451h0.628L145.5,70H144.727z M143.694,67.284
		l-0.747-1.991c-0.097-0.252-0.196-0.561-0.299-0.927c-0.064,0.281-0.157,0.59-0.277,0.927l-0.756,1.991H143.694z"/>
</g>
<g>
	<path fill="#444444" d="M122.294,98h-0.747v-5.761h-2.035v-0.664h4.816v0.664h-2.035L122.294,98L122.294,98z"/>
	<path fill="#444444" d="M130.873,94.779c0,1.027-0.26,1.837-0.78,2.426c-0.52,0.589-1.243,0.883-2.168,0.883
		c-0.946,0-1.676-0.289-2.191-0.867c-0.514-0.578-0.771-1.396-0.771-2.451c0-1.045,0.258-1.856,0.773-2.432
		c0.516-0.576,1.248-0.863,2.197-0.863c0.923,0,1.644,0.293,2.162,0.879C130.613,92.939,130.873,93.748,130.873,94.779z
		 M125.753,94.779c0,0.869,0.185,1.529,0.556,1.979c0.37,0.45,0.909,0.675,1.615,0.675c0.712,0,1.25-0.225,1.613-0.673
		c0.363-0.448,0.545-1.108,0.545-1.981c0-0.864-0.181-1.521-0.543-1.967c-0.362-0.445-0.897-0.67-1.606-0.67
		c-0.712,0-1.253,0.226-1.624,0.674C125.938,93.268,125.753,93.92,125.753,94.779z"/>
	<path fill="#444444" d="M136.379,93.447c0,0.65-0.222,1.15-0.666,1.501c-0.443,0.35-1.079,0.524-1.905,0.524h-0.756V98h-0.747
		v-6.425h1.666C135.576,91.575,136.379,92.199,136.379,93.447z M133.052,94.832h0.672c0.662,0,1.141-0.107,1.437-0.321
		c0.296-0.214,0.444-0.557,0.444-1.028c0-0.424-0.139-0.74-0.417-0.948s-0.712-0.312-1.301-0.312h-0.835V94.832L133.052,94.832z"/>
	<path fill="#444444" d="M137.209,95.921v-0.668h2.158v0.668H137.209z"/>
	<path fill="#444444" d="M140.62,91.575h1.815c0.853,0,1.469,0.127,1.85,0.382c0.381,0.255,0.571,0.658,0.571,1.208
		c0,0.381-0.106,0.694-0.319,0.942c-0.212,0.248-0.522,0.408-0.929,0.48v0.044c0.976,0.167,1.463,0.681,1.463,1.538
		c0,0.574-0.194,1.021-0.582,1.346c-0.389,0.321-0.931,0.482-1.628,0.482h-2.241V91.575z M141.367,94.326h1.23
		c0.527,0,0.907-0.083,1.138-0.248s0.347-0.445,0.347-0.837c0-0.36-0.129-0.62-0.387-0.78c-0.258-0.16-0.668-0.24-1.23-0.24h-1.099
		L141.367,94.326L141.367,94.326z M141.367,94.959v2.404h1.34c0.519,0,0.909-0.1,1.171-0.301c0.262-0.201,0.394-0.516,0.394-0.942
		c0-0.397-0.134-0.69-0.402-0.879c-0.268-0.189-0.676-0.281-1.224-0.281L141.367,94.959L141.367,94.959z"/>
</g>
<g id="top-b_1_" opacity="0.1">
	<rect y="110" fill="#777777" width="260" height="22"/>
</g>
<path fill="#444444" d="M122.294,125h-0.747v-5.761h-2.035v-0.664h4.816v0.664h-2.035L122.294,125L122.294,125z"/>
<path fill="#444444" d="M130.873,121.779c0,1.027-0.26,1.837-0.78,2.426c-0.52,0.589-1.243,0.883-2.168,0.883
	c-0.946,0-1.676-0.289-2.191-0.867c-0.514-0.578-0.771-1.396-0.771-2.451c0-1.045,0.258-1.856,0.773-2.432
	c0.516-0.576,1.248-0.863,2.197-0.863c0.923,0,1.644,0.293,2.162,0.879C130.613,119.939,130.873,120.748,130.873,121.779z
	 M125.753,121.779c0,0.869,0.185,1.529,0.556,1.979c0.37,0.45,0.909,0.675,1.615,0.675c0.712,0,1.25-0.225,1.613-0.673
	c0.363-0.448,0.545-1.108,0.545-1.981c0-0.864-0.181-1.521-0.543-1.967c-0.362-0.445-0.897-0.67-1.606-0.67
	c-0.712,0-1.253,0.226-1.624,0.674C125.938,120.268,125.753,120.92,125.753,121.779z"/>
<path fill="#444444" d="M136.379,120.447c0,0.65-0.222,1.15-0.666,1.501c-0.443,0.35-1.079,0.524-1.905,0.524h-0.756V125h-0.747
	v-6.425h1.666C135.576,118.575,136.379,119.199,136.379,120.447z M133.052,121.832h0.672c0.662,0,1.141-0.107,1.437-0.321
	c0.296-0.214,0.444-0.557,0.444-1.028c0-0.424-0.139-0.74-0.417-0.948s-0.712-0.312-1.301-0.312h-0.835V121.832L133.052,121.832z"/>
<path fill="#444444" d="M137.209,122.921v-0.668h2.158v0.668H137.209z"/>
<g>
	<path fill="#444444" d="M114.585,180.563c-0.706,0-1.263,0.231-1.672,0.707c-0.408,0.47-0.613,1.109-0.613,1.932
		c0,0.841,0.197,1.49,0.591,1.947c0.394,0.459,0.956,0.688,1.685,0.688c0.448,0,0.959-0.081,1.534-0.239v0.652
		c-0.445,0.167-0.995,0.25-1.648,0.25c-0.946,0-1.676-0.287-2.191-0.859c-0.514-0.574-0.771-1.392-0.771-2.447
		c0-0.662,0.124-1.239,0.372-1.737c0.247-0.498,0.604-0.886,1.072-1.149c0.467-0.271,1.017-0.401,1.65-0.401
		c0.674,0,1.263,0.122,1.767,0.368l-0.316,0.644C115.558,180.678,115.071,180.563,114.585,180.563z"/>
	<path fill="#444444" d="M123.088,183.191c0,1.022-0.26,1.836-0.78,2.426c-0.52,0.589-1.243,0.883-2.168,0.883
		c-0.946,0-1.676-0.289-2.191-0.867c-0.514-0.578-0.771-1.396-0.771-2.451c0-1.045,0.258-1.854,0.773-2.432
		c0.516-0.576,1.248-0.863,2.197-0.863c0.923,0,1.644,0.293,2.162,0.879S123.088,182.16,123.088,183.191z M117.969,183.191
		c0,0.869,0.185,1.527,0.556,1.979c0.37,0.45,0.909,0.676,1.615,0.676c0.712,0,1.25-0.226,1.613-0.674
		c0.363-0.447,0.545-1.107,0.545-1.98c0-0.86-0.181-1.521-0.543-1.967c-0.362-0.443-0.897-0.67-1.606-0.67
		c-0.712,0-1.253,0.229-1.624,0.674C118.154,181.68,117.969,182.332,117.969,183.191z"/>
	<path fill="#444444" d="M129.54,186.412h-0.853l-3.511-5.393h-0.035c0.047,0.633,0.07,1.213,0.07,1.735v3.652h-0.69v-6.429h0.844
		l3.502,5.369h0.035c-0.006-0.078-0.019-0.334-0.04-0.764s-0.028-0.736-0.022-0.92v-3.688h0.699L129.54,186.412L129.54,186.412z"/>
	<path fill="#444444" d="M133.284,186.412h-0.747v-5.762h-2.035v-0.664h4.816v0.664h-2.035L133.284,186.412L133.284,186.412z"/>
	<path fill="#444444" d="M139.867,186.412h-3.582v-6.426h3.582v0.664h-2.834v2.07h2.663v0.654h-2.663v2.364h2.834V186.412z"/>
	<path fill="#444444" d="M146.309,186.412h-0.853l-3.511-5.393h-0.035c0.047,0.633,0.07,1.213,0.07,1.735v3.652h-0.69v-6.429h0.844
		l3.502,5.369h0.035c-0.006-0.078-0.019-0.334-0.04-0.764s-0.028-0.736-0.022-0.92v-3.688h0.699L146.309,186.412L146.309,186.412z"
		/>
	<path fill="#444444" d="M150.053,186.412h-0.747v-5.762h-2.035v-0.664h4.817v0.664h-2.035V186.412z"/>
</g>
<g>
	<path fill="#444444" d="M107.791,269.575h1.815c0.853,0,1.469,0.128,1.85,0.382c0.381,0.256,0.571,0.658,0.571,1.209
		c0,0.381-0.106,0.695-0.319,0.941c-0.212,0.248-0.522,0.408-0.929,0.479v0.044c0.976,0.167,1.463,0.683,1.463,1.538
		c0,0.574-0.194,1.021-0.582,1.348c-0.389,0.319-0.931,0.48-1.628,0.48h-2.241V269.575z M108.538,272.326h1.23
		c0.527,0,0.907-0.082,1.138-0.248c0.231-0.166,0.347-0.445,0.347-0.838c0-0.359-0.129-0.619-0.387-0.779
		c-0.258-0.16-0.668-0.24-1.23-0.24h-1.099L108.538,272.326L108.538,272.326z M108.538,272.959v2.404h1.34
		c0.519,0,0.909-0.104,1.171-0.303c0.262-0.199,0.394-0.52,0.394-0.941c0-0.398-0.134-0.691-0.402-0.879
		c-0.268-0.188-0.676-0.281-1.224-0.281H108.538L108.538,272.959z"/>
	<path fill="#444444" d="M119.199,272.779c0,1.027-0.26,1.836-0.78,2.426c-0.52,0.588-1.243,0.883-2.168,0.883
		c-0.946,0-1.676-0.289-2.191-0.868c-0.514-0.577-0.771-1.396-0.771-2.45c0-1.045,0.258-1.854,0.773-2.432
		c0.516-0.576,1.248-0.863,2.197-0.863c0.923,0,1.644,0.293,2.162,0.879S119.199,271.748,119.199,272.779z M114.079,272.779
		c0,0.869,0.185,1.529,0.556,1.979c0.37,0.45,0.909,0.676,1.615,0.676c0.712,0,1.25-0.226,1.613-0.674
		c0.363-0.447,0.545-1.107,0.545-1.98c0-0.86-0.181-1.521-0.543-1.967c-0.362-0.442-0.897-0.67-1.606-0.67
		c-0.712,0-1.253,0.229-1.624,0.674C114.264,271.268,114.079,271.92,114.079,272.779z"/>
	<path fill="#444444" d="M122.609,276h-0.747v-5.762h-2.035v-0.663h4.816v0.663h-2.035L122.609,276L122.609,276z"/>
	<path fill="#444444" d="M127.588,276h-0.747v-5.762h-2.035v-0.663h4.816v0.663h-2.035L127.588,276L127.588,276z"/>
	<path fill="#444444" d="M136.166,272.779c0,1.027-0.26,1.836-0.78,2.426c-0.52,0.588-1.243,0.883-2.168,0.883
		c-0.946,0-1.676-0.289-2.191-0.868c-0.514-0.577-0.771-1.396-0.771-2.45c0-1.045,0.258-1.854,0.773-2.432
		c0.516-0.576,1.248-0.863,2.197-0.863c0.923,0,1.644,0.293,2.162,0.879S136.166,271.748,136.166,272.779z M131.046,272.779
		c0,0.869,0.185,1.529,0.556,1.979c0.37,0.45,0.909,0.676,1.615,0.676c0.712,0,1.25-0.226,1.613-0.674
		c0.363-0.447,0.545-1.107,0.545-1.98c0-0.86-0.181-1.521-0.543-1.967c-0.362-0.442-0.897-0.67-1.606-0.67
		c-0.712,0-1.253,0.229-1.624,0.674C131.231,271.268,131.046,271.92,131.046,272.779z"/>
	<path fill="#444444" d="M140.442,276l-2.18-5.695h-0.035c0.041,0.451,0.062,0.987,0.062,1.608V276h-0.69v-6.425h1.125l2.035,5.3
		h0.035l2.052-5.3h1.116V276h-0.747v-4.141c0-0.479,0.021-0.989,0.062-1.547h-0.035L141.044,276H140.442z"/>
	<path fill="#444444" d="M145.21,273.922v-0.668h2.158v0.668H145.21z"/>
	<path fill="#444444" d="M148.62,269.575h1.815c0.853,0,1.469,0.128,1.85,0.382c0.381,0.256,0.571,0.658,0.571,1.209
		c0,0.381-0.106,0.695-0.319,0.941c-0.212,0.248-0.522,0.408-0.929,0.479v0.044c0.976,0.167,1.463,0.683,1.463,1.538
		c0,0.574-0.194,1.021-0.582,1.348c-0.389,0.319-0.931,0.48-1.628,0.48h-2.241V269.575z M149.367,272.326h1.23
		c0.527,0,0.907-0.082,1.138-0.248s0.347-0.445,0.347-0.838c0-0.359-0.129-0.619-0.387-0.779c-0.258-0.16-0.668-0.24-1.23-0.24
		h-1.099L149.367,272.326L149.367,272.326z M149.367,272.959v2.404h1.34c0.519,0,0.909-0.104,1.171-0.303
		c0.262-0.199,0.394-0.52,0.394-0.941c0-0.398-0.134-0.691-0.402-0.879c-0.268-0.188-0.676-0.281-1.224-0.281H149.367
		L149.367,272.959z"/>
</g>
<g id="bottom-b_1_" opacity="0.1">
	<rect y="288" fill="#777777" width="260" height="22"/>
</g>
<path fill="#444444" d="M107.791,296.575h1.815c0.853,0,1.469,0.128,1.85,0.382c0.381,0.256,0.571,0.658,0.571,1.209
	c0,0.381-0.106,0.695-0.319,0.941c-0.212,0.248-0.522,0.408-0.929,0.479v0.044c0.976,0.167,1.463,0.683,1.463,1.538
	c0,0.574-0.194,1.021-0.582,1.348c-0.389,0.319-0.931,0.48-1.628,0.48h-2.241V296.575z M108.538,299.326h1.23
	c0.527,0,0.907-0.082,1.138-0.248c0.231-0.166,0.347-0.445,0.347-0.838c0-0.359-0.129-0.619-0.387-0.779
	c-0.258-0.16-0.668-0.24-1.23-0.24h-1.099L108.538,299.326L108.538,299.326z M108.538,299.959v2.404h1.34
	c0.519,0,0.909-0.104,1.171-0.303c0.262-0.199,0.394-0.52,0.394-0.941c0-0.398-0.134-0.691-0.402-0.879
	c-0.268-0.188-0.676-0.281-1.224-0.281H108.538L108.538,299.959z"/>
<path fill="#444444" d="M119.199,299.779c0,1.027-0.26,1.836-0.78,2.426c-0.52,0.588-1.243,0.883-2.168,0.883
	c-0.946,0-1.676-0.289-2.191-0.868c-0.514-0.577-0.771-1.396-0.771-2.45c0-1.045,0.258-1.854,0.773-2.432
	c0.516-0.576,1.248-0.863,2.197-0.863c0.923,0,1.644,0.293,2.162,0.879S119.199,298.748,119.199,299.779z M114.079,299.779
	c0,0.869,0.185,1.529,0.556,1.979c0.37,0.45,0.909,0.676,1.615,0.676c0.712,0,1.25-0.226,1.613-0.674
	c0.363-0.447,0.545-1.107,0.545-1.98c0-0.86-0.181-1.521-0.543-1.967c-0.362-0.442-0.897-0.67-1.606-0.67
	c-0.712,0-1.253,0.229-1.624,0.674C114.264,298.268,114.079,298.92,114.079,299.779z"/>
<path fill="#444444" d="M122.609,303h-0.747v-5.762h-2.035v-0.663h4.816v0.663h-2.035L122.609,303L122.609,303z"/>
<path fill="#444444" d="M127.588,303h-0.747v-5.762h-2.035v-0.663h4.816v0.663h-2.035L127.588,303L127.588,303z"/>
<path fill="#444444" d="M136.166,299.779c0,1.027-0.26,1.836-0.78,2.426c-0.52,0.588-1.243,0.883-2.168,0.883
	c-0.946,0-1.676-0.289-2.191-0.868c-0.514-0.577-0.771-1.396-0.771-2.45c0-1.045,0.258-1.854,0.773-2.432
	c0.516-0.576,1.248-0.863,2.197-0.863c0.923,0,1.644,0.293,2.162,0.879S136.166,298.748,136.166,299.779z M131.046,299.779
	c0,0.869,0.185,1.529,0.556,1.979c0.37,0.45,0.909,0.676,1.615,0.676c0.712,0,1.25-0.226,1.613-0.674
	c0.363-0.447,0.545-1.107,0.545-1.98c0-0.86-0.181-1.521-0.543-1.967c-0.362-0.442-0.897-0.67-1.606-0.67
	c-0.712,0-1.253,0.229-1.624,0.674C131.231,298.268,131.046,298.92,131.046,299.779z"/>
<path fill="#444444" d="M140.442,303l-2.18-5.695h-0.035c0.041,0.451,0.062,0.987,0.062,1.608V303h-0.69v-6.425h1.125l2.035,5.3
	h0.035l2.052-5.3h1.116V303h-0.747v-4.141c0-0.479,0.021-0.989,0.062-1.547h-0.035L141.044,303H140.442z"/>
<path fill="#444444" d="M145.21,300.922v-0.668h2.158v0.668H145.21z"/>
<g>
	<path fill="#444444" d="M107.858,242.575h1.815c0.853,0,1.469,0.128,1.85,0.382c0.381,0.256,0.571,0.658,0.571,1.209
		c0,0.381-0.106,0.695-0.319,0.941c-0.212,0.248-0.522,0.408-0.929,0.479v0.044c0.976,0.167,1.463,0.683,1.463,1.538
		c0,0.574-0.194,1.021-0.582,1.348c-0.389,0.319-0.931,0.48-1.628,0.48h-2.241V242.575z M108.605,245.326h1.23
		c0.527,0,0.907-0.082,1.138-0.248s0.347-0.445,0.347-0.838c0-0.359-0.129-0.619-0.387-0.779c-0.258-0.16-0.668-0.24-1.23-0.24
		h-1.099L108.605,245.326L108.605,245.326z M108.605,245.959v2.404h1.34c0.519,0,0.909-0.104,1.171-0.303
		c0.262-0.199,0.394-0.52,0.394-0.941c0-0.398-0.134-0.691-0.402-0.879c-0.268-0.188-0.676-0.281-1.224-0.281H108.605
		L108.605,245.959z"/>
	<path fill="#444444" d="M119.267,245.779c0,1.027-0.26,1.836-0.78,2.426c-0.52,0.588-1.243,0.883-2.168,0.883
		c-0.946,0-1.676-0.289-2.191-0.867c-0.514-0.578-0.771-1.396-0.771-2.451c0-1.045,0.258-1.854,0.773-2.432
		c0.516-0.576,1.248-0.863,2.197-0.863c0.923,0,1.644,0.293,2.162,0.879C119.007,243.939,119.267,244.748,119.267,245.779z
		 M114.147,245.779c0,0.869,0.185,1.529,0.556,1.979c0.37,0.45,0.909,0.676,1.615,0.676c0.712,0,1.25-0.226,1.613-0.674
		c0.363-0.447,0.545-1.107,0.545-1.979c0-0.865-0.181-1.521-0.543-1.969c-0.362-0.445-0.897-0.67-1.606-0.67
		c-0.712,0-1.253,0.227-1.624,0.674C114.332,244.268,114.147,244.92,114.147,245.779z"/>
	<path fill="#444444" d="M122.677,249h-0.747v-5.762h-2.035v-0.663h4.816v0.663h-2.035L122.677,249L122.677,249z"/>
	<path fill="#444444" d="M127.656,249h-0.747v-5.762h-2.035v-0.663h4.816v0.663h-2.035L127.656,249L127.656,249z"/>
	<path fill="#444444" d="M136.234,245.779c0,1.027-0.26,1.836-0.78,2.426c-0.52,0.588-1.243,0.883-2.168,0.883
		c-0.946,0-1.676-0.289-2.191-0.867c-0.514-0.578-0.771-1.396-0.771-2.451c0-1.045,0.258-1.854,0.773-2.432
		c0.516-0.576,1.248-0.863,2.197-0.863c0.923,0,1.644,0.293,2.162,0.879S136.234,244.748,136.234,245.779z M131.114,245.779
		c0,0.869,0.185,1.529,0.556,1.979c0.37,0.45,0.909,0.676,1.615,0.676c0.712,0,1.25-0.226,1.613-0.674
		c0.363-0.447,0.545-1.107,0.545-1.979c0-0.865-0.181-1.521-0.543-1.969c-0.362-0.445-0.897-0.67-1.606-0.67
		c-0.712,0-1.253,0.227-1.624,0.674C131.299,244.268,131.114,244.92,131.114,245.779z"/>
	<path fill="#444444" d="M140.51,249l-2.18-5.695h-0.035c0.041,0.451,0.062,0.987,0.062,1.608V249h-0.69v-6.425h1.125l2.035,5.3
		h0.035l2.052-5.3h1.116V249h-0.747v-4.141c0-0.479,0.021-0.989,0.062-1.547h-0.035L141.112,249H140.51z"/>
	<path fill="#444444" d="M145.278,246.922v-0.668h2.158v0.668H145.278z"/>
	<path fill="#444444" d="M152.727,249l-0.8-2.043h-2.575L148.561,249h-0.756l2.54-6.451h0.628L153.5,249H152.727z M151.694,246.284
		l-0.747-1.991c-0.097-0.252-0.196-0.561-0.299-0.927c-0.064,0.28-0.157,0.591-0.277,0.927l-0.756,1.991H151.694z"/>
</g>
<g>
	<path fill="#444444" d="M44.763,326h-0.747v-6.425h3.582v0.663h-2.834v2.352h2.663v0.664h-2.663L44.763,326L44.763,326z"/>
	<path fill="#444444" d="M54.237,322.779c0,1.027-0.26,1.836-0.78,2.426c-0.52,0.588-1.243,0.883-2.168,0.883
		c-0.946,0-1.676-0.289-2.191-0.868c-0.514-0.577-0.771-1.396-0.771-2.45c0-1.045,0.258-1.854,0.773-2.432
		c0.516-0.576,1.248-0.863,2.197-0.863c0.923,0,1.644,0.293,2.162,0.879S54.237,321.748,54.237,322.779z M49.118,322.779
		c0,0.869,0.185,1.529,0.556,1.979c0.37,0.45,0.909,0.676,1.615,0.676c0.712,0,1.25-0.226,1.613-0.674
		c0.363-0.447,0.545-1.107,0.545-1.98c0-0.86-0.181-1.521-0.543-1.967c-0.362-0.442-0.897-0.67-1.606-0.67
		c-0.712,0-1.253,0.229-1.624,0.674C49.303,321.268,49.118,321.92,49.118,322.779z"/>
	<path fill="#444444" d="M61.247,322.779c0,1.027-0.26,1.836-0.78,2.426c-0.52,0.588-1.243,0.883-2.168,0.883
		c-0.946,0-1.676-0.289-2.191-0.868c-0.514-0.577-0.771-1.396-0.771-2.45c0-1.045,0.258-1.854,0.773-2.432
		c0.516-0.576,1.248-0.863,2.197-0.863c0.923,0,1.644,0.293,2.162,0.879C60.987,320.939,61.247,321.748,61.247,322.779z
		 M56.127,322.779c0,0.869,0.185,1.529,0.556,1.979c0.37,0.45,0.909,0.676,1.615,0.676c0.712,0,1.25-0.226,1.613-0.674
		c0.363-0.447,0.545-1.107,0.545-1.98c0-0.86-0.181-1.521-0.543-1.967c-0.362-0.442-0.897-0.67-1.606-0.67
		c-0.712,0-1.253,0.229-1.624,0.674C56.312,321.268,56.127,321.92,56.127,322.779z"/>
	<path fill="#444444" d="M64.657,326H63.91v-5.762h-2.035v-0.663h4.816v0.663h-2.035V326H64.657z"/>
	<path fill="#444444" d="M71.24,326h-3.582v-6.425h3.582v0.663h-2.834v2.07h2.663v0.653h-2.663v2.364h2.834V326z"/>
	<path fill="#444444" d="M73.411,323.328V326h-0.747v-6.425h1.762c0.788,0,1.37,0.151,1.747,0.452
		c0.376,0.303,0.564,0.756,0.564,1.363c0,0.85-0.431,1.424-1.292,1.723L77.19,326h-0.883l-1.556-2.672H73.411z M73.411,322.688
		h1.024c0.527,0,0.914-0.104,1.16-0.312c0.246-0.209,0.369-0.521,0.369-0.938c0-0.429-0.125-0.729-0.376-0.918
		c-0.25-0.188-0.652-0.279-1.206-0.279h-0.971V322.688L73.411,322.688z"/>
</g>
<g>
	<path fill="#444444" d="M174.605,326h-0.747v-6.425h3.582v0.663h-2.834v2.352h2.663v0.664h-2.663L174.605,326L174.605,326z"/>
	<path fill="#444444" d="M184.079,322.779c0,1.027-0.26,1.836-0.78,2.426c-0.52,0.588-1.243,0.883-2.168,0.883
		c-0.946,0-1.676-0.289-2.191-0.868c-0.514-0.577-0.771-1.396-0.771-2.45c0-1.045,0.258-1.854,0.773-2.432
		c0.516-0.576,1.248-0.863,2.197-0.863c0.923,0,1.644,0.293,2.162,0.879S184.079,321.748,184.079,322.779z M178.96,322.779
		c0,0.869,0.185,1.529,0.556,1.979c0.37,0.45,0.909,0.676,1.615,0.676c0.712,0,1.25-0.226,1.613-0.674
		c0.363-0.447,0.545-1.107,0.545-1.98c0-0.86-0.181-1.521-0.543-1.967c-0.362-0.442-0.897-0.67-1.606-0.67
		c-0.712,0-1.253,0.229-1.624,0.674C179.145,321.268,178.96,321.92,178.96,322.779z"/>
	<path fill="#444444" d="M191.089,322.779c0,1.027-0.26,1.836-0.78,2.426c-0.52,0.588-1.243,0.883-2.168,0.883
		c-0.946,0-1.676-0.289-2.191-0.868c-0.514-0.577-0.771-1.396-0.771-2.45c0-1.045,0.258-1.854,0.773-2.432
		c0.516-0.576,1.248-0.863,2.197-0.863c0.923,0,1.644,0.293,2.162,0.879C190.829,320.939,191.089,321.748,191.089,322.779z
		 M185.969,322.779c0,0.869,0.185,1.529,0.556,1.979c0.37,0.45,0.909,0.676,1.615,0.676c0.712,0,1.25-0.226,1.613-0.674
		c0.363-0.447,0.545-1.107,0.545-1.98c0-0.86-0.181-1.521-0.543-1.967c-0.362-0.442-0.897-0.67-1.606-0.67
		c-0.712,0-1.253,0.229-1.624,0.674C186.154,321.268,185.969,321.92,185.969,322.779z"/>
	<path fill="#444444" d="M194.499,326h-0.747v-5.762h-2.035v-0.663h4.816v0.663h-2.035V326H194.499z"/>
	<path fill="#444444" d="M201.082,326H197.5v-6.425h3.582v0.663h-2.834v2.07h2.663v0.653h-2.663v2.364h2.834V326z"/>
	<path fill="#444444" d="M203.253,323.328V326h-0.747v-6.425h1.762c0.788,0,1.37,0.151,1.747,0.452
		c0.376,0.303,0.564,0.756,0.564,1.363c0,0.85-0.431,1.424-1.292,1.723l1.745,2.887h-0.883l-1.556-2.672H203.253z M203.253,322.688
		h1.024c0.527,0,0.914-0.104,1.16-0.312c0.246-0.209,0.369-0.521,0.369-0.938c0-0.429-0.125-0.729-0.376-0.918
		c-0.25-0.188-0.652-0.279-1.206-0.279h-0.971V322.688L203.253,322.688z"/>
</g>
<g>
	<path fill="#444444" d="M14.703,201.457c0.565,0,1.006,0.205,1.323,0.615s0.474,0.967,0.474,1.67c0,0.762-0.098,1.348-0.294,1.758
		h-0.721c0.111-0.264,0.199-0.551,0.264-0.861c0.065-0.31,0.097-0.617,0.097-0.923c0-0.498-0.094-0.873-0.284-1.125
		c-0.188-0.252-0.452-0.378-0.789-0.378c-0.223,0-0.405,0.045-0.547,0.135s-0.273,0.238-0.393,0.447
		c-0.12,0.21-0.256,0.528-0.409,0.956c-0.214,0.599-0.467,1.024-0.76,1.281c-0.293,0.256-0.675,0.384-1.147,0.384
		c-0.495,0-0.889-0.186-1.182-0.559c-0.293-0.371-0.439-0.863-0.439-1.479c0-0.64,0.117-1.229,0.352-1.762l0.65,0.229
		c-0.223,0.53-0.334,1.048-0.334,1.548c0,0.396,0.085,0.705,0.255,0.932c0.17,0.222,0.406,0.334,0.708,0.334
		c0.223,0,0.405-0.041,0.547-0.123c0.143-0.082,0.272-0.225,0.392-0.416c0.118-0.194,0.25-0.493,0.393-0.896
		c0.24-0.676,0.498-1.139,0.773-1.393C13.906,201.584,14.263,201.457,14.703,201.457z"/>
	<path fill="#444444" d="M16.412,200.143H9.987v-0.746h6.425V200.143z"/>
	<path fill="#444444" d="M13.138,192.505c1.061,0,1.872,0.288,2.432,0.863c0.562,0.575,0.842,1.403,0.842,2.485v1.774H9.987v-1.969
		c0-0.999,0.277-1.771,0.831-2.329C11.372,192.781,12.145,192.505,13.138,192.505z M13.165,193.296c-0.838,0-1.469,0.21-1.894,0.631
		s-0.637,1.046-0.637,1.874v1.086h5.133v-0.91c0-0.892-0.219-1.561-0.657-2.009S14.023,193.296,13.165,193.296z"/>
	<path fill="#444444" d="M16.412,187.491v3.582H9.987v-3.582h0.664v2.834h2.07v-2.663h0.659v2.663h2.364v-2.834H16.412z"/>
	<path fill="#444444" d="M9.987,186.066v-1.814c0-0.854,0.127-1.469,0.382-1.85c0.255-0.381,0.658-0.571,1.208-0.571
		c0.381,0,0.695,0.106,0.942,0.319c0.248,0.211,0.408,0.521,0.481,0.929h0.044c0.167-0.976,0.68-1.463,1.538-1.463
		c0.574,0,1.022,0.194,1.345,0.582c0.322,0.389,0.483,0.931,0.483,1.628v2.24H9.987L9.987,186.066z M12.738,185.32v-1.23
		c0-0.527-0.083-0.906-0.248-1.138c-0.165-0.231-0.445-0.347-0.837-0.347c-0.36,0-0.62,0.129-0.78,0.387s-0.24,0.668-0.24,1.23
		v1.098H12.738L12.738,185.32z M13.371,185.32h2.404v-1.34c0-0.521-0.1-0.91-0.301-1.172c-0.2-0.267-0.515-0.396-0.942-0.396
		c-0.398,0-0.691,0.134-0.879,0.398c-0.188,0.271-0.281,0.68-0.281,1.228L13.371,185.32L13.371,185.32z"/>
	<path fill="#444444" d="M16.412,176.197l-2.043,0.8v2.575l2.043,0.791v0.756l-6.451-2.54v-0.628l6.451-2.527V176.197z
		 M13.696,177.23l-1.991,0.746c-0.252,0.098-0.561,0.191-0.927,0.299c0.281,0.062,0.59,0.158,0.927,0.272l1.991,0.761V177.23z"/>
	<path fill="#444444" d="M13.74,173.793h2.672v0.747H9.987v-1.763c0-0.787,0.151-1.369,0.453-1.746
		c0.302-0.377,0.756-0.564,1.362-0.564c0.85,0,1.424,0.432,1.723,1.292l2.887-1.745v0.883l-2.672,1.561V173.793z M13.099,173.793
		v-1.023c0-0.522-0.104-0.914-0.314-1.16c-0.209-0.241-0.523-0.364-0.942-0.364c-0.425,0-0.731,0.125-0.918,0.376
		c-0.188,0.25-0.281,0.646-0.281,1.206v0.971L13.099,173.793L13.099,173.793z"/>
	<path fill="#444444" d="M14.333,169.491h-0.668v-2.158h0.668V169.491z"/>
	<path fill="#444444" d="M16.412,162.042l-2.043,0.8v2.575l2.043,0.791v0.756l-6.451-2.54v-0.628l6.451-2.526V162.042z
		 M13.696,163.075l-1.991,0.747c-0.252,0.097-0.561,0.195-0.927,0.299c0.281,0.064,0.59,0.156,0.927,0.277l1.991,0.756V163.075z"/>
</g>
<g>
	<path fill="#444444" d="M46.307,201.328c0.565,0,1.006,0.205,1.323,0.615s0.474,0.967,0.474,1.67c0,0.762-0.098,1.348-0.294,1.758
		h-0.721c0.111-0.264,0.199-0.551,0.264-0.861c0.065-0.31,0.097-0.617,0.097-0.923c0-0.498-0.094-0.873-0.284-1.125
		c-0.188-0.252-0.452-0.378-0.789-0.378c-0.223,0-0.405,0.045-0.547,0.134c-0.142,0.091-0.273,0.239-0.393,0.448
		c-0.12,0.21-0.256,0.527-0.409,0.956c-0.214,0.599-0.467,1.024-0.76,1.28c-0.293,0.257-0.675,0.385-1.147,0.385
		c-0.495,0-0.889-0.186-1.182-0.559c-0.293-0.371-0.439-0.863-0.439-1.479c0-0.642,0.117-1.229,0.352-1.765l0.65,0.23
		c-0.223,0.53-0.334,1.047-0.334,1.547c0,0.396,0.085,0.705,0.255,0.93s0.406,0.334,0.708,0.334c0.223,0,0.405-0.041,0.547-0.121
		c0.143-0.082,0.272-0.223,0.392-0.416c0.118-0.193,0.25-0.492,0.393-0.896c0.24-0.674,0.498-1.137,0.773-1.391
		C45.51,201.455,45.867,201.328,46.307,201.328z"/>
	<path fill="#444444" d="M48.016,200.014h-6.425v-0.746h6.425V200.014z"/>
	<path fill="#444444" d="M44.742,192.376c1.061,0,1.872,0.288,2.432,0.863c0.562,0.575,0.842,1.403,0.842,2.485v1.774h-6.425v-1.969
		c0-0.999,0.277-1.775,0.831-2.329C42.976,192.652,43.749,192.376,44.742,192.376z M44.769,193.167c-0.838,0-1.469,0.21-1.894,0.631
		s-0.637,1.045-0.637,1.874v1.085h5.133v-0.909c0-0.892-0.219-1.561-0.657-2.009S45.627,193.167,44.769,193.167z"/>
	<path fill="#444444" d="M48.016,187.361v3.582h-6.425v-3.582h0.664v2.834h2.07v-2.662h0.659v2.662h2.364v-2.834H48.016z"/>
	<path fill="#444444" d="M41.591,185.938v-1.812c0-0.854,0.127-1.469,0.382-1.853c0.255-0.381,0.658-0.568,1.208-0.568
		c0.381,0,0.695,0.104,0.942,0.316c0.248,0.211,0.408,0.521,0.481,0.932h0.044c0.167-0.979,0.68-1.467,1.538-1.467
		c0.574,0,1.022,0.195,1.345,0.582c0.322,0.393,0.483,0.935,0.483,1.632v2.237H41.591L41.591,185.938z M44.342,185.191v-1.23
		c0-0.527-0.083-0.906-0.248-1.138c-0.165-0.231-0.445-0.347-0.837-0.347c-0.36,0-0.62,0.129-0.78,0.387s-0.24,0.668-0.24,1.229v1.1
		H44.342L44.342,185.191z M44.975,185.191h2.404v-1.34c0-0.521-0.1-0.91-0.301-1.172c-0.2-0.267-0.515-0.396-0.942-0.396
		c-0.398,0-0.691,0.134-0.879,0.398c-0.188,0.271-0.281,0.676-0.281,1.228L44.975,185.191L44.975,185.191z"/>
	<path fill="#444444" d="M48.016,176.068l-2.043,0.8v2.575l2.043,0.791v0.756l-6.451-2.54v-0.628l6.451-2.527V176.068z
		 M45.3,177.102l-1.991,0.746c-0.252,0.1-0.561,0.196-0.927,0.299c0.281,0.064,0.59,0.158,0.927,0.277l1.991,0.756V177.102z"/>
	<path fill="#444444" d="M45.344,173.664h2.672v0.747h-6.425v-1.763c0-0.787,0.151-1.369,0.453-1.747
		c0.302-0.377,0.756-0.564,1.362-0.564c0.85,0,1.424,0.432,1.723,1.292l2.887-1.745v0.883l-2.672,1.561V173.664z M44.703,173.664
		v-1.023c0-0.522-0.104-0.914-0.314-1.16c-0.209-0.246-0.523-0.369-0.942-0.369c-0.425,0-0.731,0.125-0.918,0.375
		c-0.188,0.25-0.281,0.652-0.281,1.207v0.976L44.703,173.664L44.703,173.664z"/>
	<path fill="#444444" d="M45.937,169.361h-0.668v-2.157h0.668V169.361z"/>
	<path fill="#444444" d="M41.591,165.952v-1.815c0-0.853,0.127-1.469,0.382-1.85c0.255-0.381,0.658-0.571,1.208-0.571
		c0.381,0,0.695,0.106,0.942,0.319c0.248,0.212,0.408,0.521,0.481,0.929h0.044c0.167-0.976,0.68-1.463,1.538-1.463
		c0.574,0,1.022,0.194,1.345,0.582c0.322,0.39,0.483,0.931,0.483,1.628v2.241H41.591z M44.342,165.205v-1.23
		c0-0.524-0.083-0.906-0.248-1.138c-0.165-0.231-0.445-0.347-0.837-0.347c-0.36,0-0.62,0.129-0.78,0.387s-0.24,0.668-0.24,1.23
		v1.099L44.342,165.205L44.342,165.205z M44.975,165.205h2.404v-1.34c0-0.521-0.1-0.909-0.301-1.172
		c-0.2-0.262-0.515-0.395-0.942-0.395c-0.398,0-0.691,0.135-0.879,0.402c-0.188,0.267-0.281,0.676-0.281,1.224L44.975,165.205
		L44.975,165.205z"/>
</g>
<g>
	<path fill="#444444" d="M218.308,202.457c0.565,0,1.006,0.205,1.323,0.615c0.317,0.41,0.475,0.967,0.475,1.67
		c0,0.762-0.098,1.348-0.294,1.758h-0.721c0.111-0.264,0.199-0.551,0.264-0.861c0.065-0.31,0.097-0.617,0.097-0.923
		c0-0.498-0.094-0.873-0.284-1.125c-0.188-0.252-0.452-0.378-0.789-0.378c-0.223,0-0.405,0.045-0.547,0.135
		s-0.273,0.238-0.393,0.447c-0.12,0.21-0.256,0.528-0.409,0.956c-0.214,0.599-0.467,1.024-0.76,1.281
		c-0.293,0.256-0.675,0.384-1.147,0.384c-0.495,0-0.889-0.186-1.182-0.559c-0.293-0.371-0.441-0.863-0.441-1.479
		c0-0.639,0.117-1.229,0.352-1.762l0.65,0.229c-0.223,0.529-0.334,1.046-0.334,1.548c0,0.396,0.085,0.705,0.255,0.931
		c0.17,0.222,0.406,0.334,0.708,0.334c0.223,0,0.405-0.041,0.547-0.123c0.143-0.082,0.272-0.224,0.392-0.416
		c0.118-0.194,0.25-0.493,0.393-0.896c0.24-0.676,0.498-1.14,0.773-1.394C217.511,202.584,217.868,202.457,218.308,202.457z"/>
	<path fill="#444444" d="M220.017,201.143h-6.425v-0.746h6.425V201.143z"/>
	<path fill="#444444" d="M216.743,193.505c1.061,0,1.872,0.288,2.432,0.863c0.562,0.575,0.842,1.403,0.842,2.485v1.774h-6.425
		v-1.969c0-0.999,0.277-1.771,0.831-2.329C214.977,193.781,215.75,193.505,216.743,193.505z M216.77,194.296
		c-0.838,0-1.469,0.21-1.894,0.631s-0.637,1.046-0.637,1.874v1.086h5.133v-0.91c0-0.892-0.219-1.561-0.657-2.009
		S217.628,194.296,216.77,194.296z"/>
	<path fill="#444444" d="M220.017,188.491v3.582h-6.425v-3.582h0.664v2.834h2.07v-2.663h0.659v2.663h2.364v-2.834H220.017z"/>
	<path fill="#444444" d="M213.592,187.066v-1.814c0-0.854,0.127-1.469,0.382-1.85c0.255-0.381,0.658-0.571,1.208-0.571
		c0.381,0,0.695,0.106,0.942,0.319c0.248,0.211,0.408,0.521,0.481,0.929h0.044c0.167-0.976,0.68-1.463,1.538-1.463
		c0.574,0,1.022,0.194,1.345,0.582c0.322,0.389,0.483,0.931,0.483,1.628v2.24H213.592L213.592,187.066z M216.343,186.32v-1.23
		c0-0.527-0.083-0.906-0.248-1.138c-0.165-0.231-0.445-0.347-0.837-0.347c-0.36,0-0.62,0.129-0.78,0.387s-0.24,0.668-0.24,1.23
		v1.098H216.343L216.343,186.32z M216.976,186.32h2.404v-1.34c0-0.521-0.1-0.91-0.301-1.172c-0.2-0.267-0.515-0.396-0.942-0.396
		c-0.398,0-0.691,0.134-0.879,0.398c-0.188,0.271-0.281,0.68-0.281,1.228L216.976,186.32L216.976,186.32z"/>
	<path fill="#444444" d="M220.017,177.197l-2.043,0.8v2.575l2.043,0.791v0.756l-6.451-2.54v-0.628l6.451-2.527V177.197z
		 M217.301,178.23l-1.991,0.746c-0.252,0.098-0.561,0.191-0.927,0.299c0.281,0.062,0.59,0.158,0.927,0.272l1.991,0.761V178.23z"/>
	<path fill="#444444" d="M217.345,174.793h2.672v0.747h-6.425v-1.763c0-0.787,0.151-1.369,0.453-1.746
		c0.302-0.377,0.756-0.564,1.362-0.564c0.85,0,1.424,0.432,1.723,1.292l2.887-1.745v0.883l-2.672,1.562V174.793z M216.704,174.793
		v-1.023c0-0.522-0.104-0.914-0.314-1.16c-0.209-0.241-0.523-0.364-0.942-0.364c-0.425,0-0.731,0.125-0.918,0.376
		c-0.188,0.25-0.281,0.646-0.281,1.206v0.971L216.704,174.793L216.704,174.793z"/>
	<path fill="#444444" d="M217.938,170.491h-0.668v-2.158h0.668V170.491z"/>
	<path fill="#444444" d="M220.017,163.042l-2.043,0.8v2.575l2.043,0.791v0.756l-6.451-2.54v-0.628l6.451-2.526V163.042z
		 M217.301,164.075l-1.991,0.747c-0.252,0.097-0.561,0.195-0.927,0.299c0.281,0.064,0.59,0.156,0.927,0.277l1.991,0.756V164.075z"/>
</g>
<g>
	<path fill="#444444" d="M249.702,202.327c0.565,0,1.007,0.205,1.323,0.614c0.315,0.41,0.475,0.968,0.475,1.67
		c0,0.763-0.1,1.349-0.295,1.759h-0.721c0.111-0.265,0.199-0.552,0.264-0.861c0.064-0.309,0.098-0.616,0.098-0.923
		c0-0.498-0.096-0.873-0.285-1.125c-0.188-0.252-0.451-0.378-0.787-0.378c-0.224,0-0.405,0.045-0.549,0.135
		c-0.141,0.091-0.271,0.238-0.393,0.447c-0.12,0.21-0.256,0.528-0.408,0.956c-0.215,0.6-0.468,1.023-0.761,1.281
		c-0.293,0.256-0.675,0.384-1.147,0.384c-0.494,0-0.889-0.187-1.182-0.56c-0.293-0.371-0.439-0.863-0.439-1.479
		c0-0.644,0.117-1.229,0.352-1.765l0.65,0.232c-0.224,0.528-0.334,1.045-0.334,1.547c0,0.396,0.084,0.705,0.254,0.926
		c0.17,0.227,0.406,0.334,0.709,0.334c0.223,0,0.404-0.039,0.547-0.121c0.143-0.08,0.271-0.221,0.392-0.416
		c0.118-0.191,0.25-0.49,0.394-0.895c0.24-0.675,0.498-1.139,0.772-1.393C248.904,202.454,249.262,202.327,249.702,202.327z"/>
	<path fill="#444444" d="M251.412,201.014h-6.426v-0.746h6.426V201.014z"/>
	<path fill="#444444" d="M248.137,193.375c1.062,0,1.872,0.288,2.434,0.863c0.561,0.574,0.842,1.402,0.842,2.484v1.775h-6.426
		v-1.969c0-0.999,0.277-1.775,0.832-2.329C246.372,193.65,247.145,193.375,248.137,193.375z M248.164,194.166
		c-0.838,0-1.469,0.21-1.895,0.631c-0.424,0.421-0.637,1.046-0.637,1.874v1.085h5.133v-0.908c0-0.893-0.219-1.562-0.656-2.01
		C249.67,194.393,249.021,194.166,248.164,194.166z"/>
	<path fill="#444444" d="M251.412,188.361v3.582h-6.426v-3.582h0.664v2.834h2.07v-2.663h0.659v2.663h2.365v-2.834H251.412z"/>
	<path fill="#444444" d="M244.986,186.938v-1.812c0-0.854,0.127-1.471,0.382-1.853c0.255-0.381,0.657-0.568,1.208-0.568
		c0.381,0,0.695,0.104,0.941,0.316c0.248,0.211,0.408,0.521,0.482,0.932h0.043c0.168-0.979,0.68-1.467,1.539-1.467
		c0.574,0,1.021,0.195,1.344,0.582c0.322,0.393,0.484,0.935,0.484,1.632v2.237H244.986L244.986,186.938z M247.736,186.189v-1.229
		c0-0.526-0.082-0.905-0.248-1.138c-0.164-0.231-0.444-0.348-0.836-0.348c-0.36,0-0.62,0.129-0.78,0.387
		c-0.16,0.259-0.24,0.668-0.24,1.229v1.1H247.736L247.736,186.189z M248.371,186.189h2.402v-1.34c0-0.521-0.101-0.91-0.301-1.176
		c-0.199-0.262-0.515-0.394-0.941-0.394c-0.398,0-0.691,0.134-0.879,0.397c-0.188,0.271-0.281,0.676-0.281,1.229V186.189z"/>
	<path fill="#444444" d="M251.412,177.066l-2.044,0.801v2.574l2.044,0.791v0.756l-6.452-2.539v-0.629l6.452-2.526V177.066z
		 M248.695,178.102l-1.99,0.746c-0.252,0.1-0.561,0.195-0.928,0.299c0.281,0.063,0.591,0.158,0.928,0.276l1.99,0.757V178.102z"/>
	<path fill="#444444" d="M248.74,174.663h2.672v0.747h-6.426v-1.764c0-0.787,0.152-1.369,0.453-1.746
		c0.303-0.377,0.756-0.563,1.362-0.563c0.851,0,1.425,0.433,1.724,1.292l2.888-1.745v0.884l-2.672,1.561L248.74,174.663
		L248.74,174.663z M248.098,174.663v-1.022c0-0.523-0.104-0.914-0.314-1.16c-0.209-0.246-0.523-0.369-0.942-0.369
		c-0.425,0-0.731,0.125-0.918,0.375c-0.188,0.25-0.28,0.652-0.28,1.207v0.975L248.098,174.663L248.098,174.663z"/>
	<path fill="#444444" d="M249.332,170.361h-0.668v-2.158h0.668V170.361z"/>
	<path fill="#444444" d="M244.986,166.951v-1.815c0-0.853,0.127-1.469,0.382-1.85c0.255-0.381,0.657-0.571,1.208-0.571
		c0.381,0,0.695,0.105,0.941,0.319c0.248,0.212,0.408,0.521,0.482,0.929h0.043c0.168-0.977,0.68-1.463,1.539-1.463
		c0.574,0,1.021,0.193,1.344,0.582c0.322,0.391,0.484,0.932,0.484,1.628v2.241H244.986z M247.736,166.204v-1.229
		c0-0.523-0.082-0.906-0.248-1.139c-0.164-0.23-0.444-0.347-0.836-0.347c-0.36,0-0.62,0.129-0.78,0.387s-0.24,0.668-0.24,1.229v1.1
		L247.736,166.204L247.736,166.204z M248.371,166.204h2.402v-1.34c0-0.521-0.101-0.909-0.301-1.171
		c-0.199-0.264-0.515-0.396-0.941-0.396c-0.398,0-0.691,0.134-0.879,0.401c-0.188,0.267-0.281,0.676-0.281,1.224V166.204z"/>
</g>
<g id="widget_layouts">
	<g id="equal_bg" opacity="0.1">
		<rect x="290" y="218" fill="#777777" width="260" height="27"/>
	</g>
	<g id="widget_2_" opacity="0.15">
		<rect x="344" y="223" width="64" height="17"/>
	</g>
	<g id="widget_1_" opacity="0.15">
		<rect x="413" y="223" width="63" height="17"/>
	</g>
	<g id="widget" opacity="0.15">
		<rect x="481" y="223" width="64" height="17"/>
	</g>
	<g id="double_bg" opacity="0.1">
		<rect x="290" y="304" fill="#777777" width="260" height="27"/>
	</g>
	<g id="widget_4_" opacity="0.15">
		<rect x="344" y="309" width="132" height="17"/>
	</g>
	<g id="widget_3_" opacity="0.15">
		<rect x="481" y="309" width="64" height="17"/>
	</g>
	<g id="stack_bg" opacity="0.1">
		<rect x="290" y="250" fill="#777777" width="260" height="49"/>
	</g>
	<g id="widget_5_" opacity="0.15">
		<rect x="344" y="255" width="201" height="17"/>
	</g>
	<g id="widget_6_" opacity="0.15">
		<rect x="344" y="277" width="201" height="17"/>
	</g>
	<g>
		<path fill="#444444" d="M299.375,207.876h-1.066l-1.871-6.214c-0.09-0.275-0.188-0.622-0.299-1.041
			c-0.109-0.419-0.168-0.671-0.172-0.755c-0.093,0.559-0.24,1.17-0.443,1.834l-1.813,6.176h-1.063l-2.473-9.278h1.146l1.468,5.73
			c0.202,0.804,0.353,1.531,0.442,2.184c0.11-0.771,0.279-1.531,0.508-2.271l1.664-5.646h1.144l1.745,5.693
			c0.201,0.653,0.375,1.396,0.516,2.222c0.079-0.601,0.231-1.33,0.456-2.193l1.46-5.719h1.146L299.375,207.876z"/>
		<path fill="#444444" d="M303.063,199.034c0-0.241,0.062-0.418,0.18-0.53c0.118-0.111,0.267-0.168,0.441-0.168
			c0.168,0,0.313,0.059,0.438,0.171c0.123,0.114,0.186,0.29,0.186,0.527c0,0.235-0.062,0.414-0.186,0.528
			c-0.122,0.117-0.271,0.177-0.438,0.177c-0.181,0-0.323-0.06-0.441-0.177S303.063,199.271,303.063,199.034z M304.206,207.876
			h-1.054v-6.957h1.054V207.876z"/>
		<path fill="#444444" d="M311.176,206.941h-0.058c-0.486,0.707-1.214,1.062-2.188,1.062c-0.905,0-1.614-0.312-2.123-0.935
			c-0.506-0.62-0.76-1.506-0.76-2.651s0.256-2.038,0.767-2.672c0.509-0.636,1.215-0.952,2.116-0.952
			c0.942,0,1.668,0.344,2.175,1.027h0.079l-0.045-0.502l-0.021-0.487V198h1.055v9.876h-0.854L311.176,206.941z M309.068,207.121
			c0.72,0,1.237-0.196,1.562-0.587c0.324-0.392,0.485-1.023,0.485-1.896v-0.227c0-0.982-0.163-1.688-0.491-2.107
			c-0.328-0.425-0.854-0.635-1.571-0.635c-0.615,0-1.091,0.24-1.419,0.725c-0.325,0.479-0.489,1.154-0.489,2.035
			c0,0.889,0.162,1.56,0.486,2.012C307.959,206.895,308.438,207.121,309.068,207.121z"/>
		<path fill="#444444" d="M320.1,200.919v0.667l-1.284,0.15c0.114,0.146,0.227,0.344,0.313,0.582
			c0.094,0.238,0.141,0.51,0.141,0.811c0,0.682-0.229,1.227-0.696,1.631c-0.465,0.406-1.104,0.609-1.914,0.609
			c-0.207,0-0.402-0.018-0.586-0.053c-0.446,0.238-0.674,0.535-0.674,0.896c0,0.188,0.075,0.331,0.231,0.422
			c0.157,0.093,0.426,0.14,0.81,0.14h1.229c0.753,0,1.332,0.158,1.735,0.479c0.401,0.314,0.604,0.775,0.604,1.384
			c0,0.771-0.31,1.356-0.928,1.765c-0.617,0.4-1.521,0.604-2.703,0.604c-0.91,0-1.608-0.169-2.104-0.508
			c-0.491-0.342-0.737-0.816-0.737-1.438c0-0.426,0.135-0.789,0.405-1.101c0.27-0.312,0.646-0.521,1.144-0.628
			c-0.178-0.081-0.327-0.205-0.446-0.375c-0.121-0.169-0.183-0.366-0.183-0.591c0-0.257,0.063-0.479,0.203-0.666
			c0.136-0.191,0.35-0.375,0.641-0.556c-0.355-0.146-0.648-0.396-0.879-0.754c-0.228-0.354-0.34-0.765-0.34-1.222
			c0-0.762,0.229-1.351,0.687-1.761c0.457-0.413,1.104-0.619,1.942-0.619c0.363,0,0.69,0.042,0.981,0.127L320.1,200.919
			L320.1,200.919z M314.553,209.044c0,0.376,0.158,0.662,0.479,0.856c0.315,0.19,0.771,0.291,1.36,0.291
			c0.888,0,1.541-0.131,1.968-0.396c0.429-0.264,0.642-0.623,0.642-1.074c0-0.378-0.117-0.64-0.353-0.783
			c-0.229-0.146-0.673-0.222-1.313-0.222h-1.265c-0.479,0-0.854,0.114-1.115,0.345C314.688,208.289,314.553,208.617,314.553,209.044
			z M315.123,203.146c0,0.482,0.138,0.854,0.413,1.104c0.271,0.249,0.657,0.375,1.146,0.375c1.024,0,1.541-0.5,1.541-1.498
			c0-1.045-0.521-1.566-1.562-1.566c-0.495,0-0.876,0.133-1.146,0.398C315.255,202.229,315.123,202.622,315.123,203.146z"/>
		<path fill="#444444" d="M324.469,208.003c-1.026,0-1.84-0.312-2.435-0.938c-0.595-0.625-0.895-1.496-0.895-2.604
			c0-1.122,0.272-2.017,0.828-2.672c0.554-0.66,1.293-0.99,2.228-0.99c0.871,0,1.562,0.287,2.065,0.858
			c0.511,0.57,0.765,1.328,0.765,2.271v0.667h-4.791c0.021,0.817,0.227,1.438,0.614,1.86c0.395,0.423,0.94,0.635,1.651,0.635
			c0.75,0,1.49-0.153,2.227-0.47v0.938c-0.371,0.159-0.729,0.274-1.062,0.346C325.339,207.968,324.938,208.003,324.469,208.003z
			 M324.184,201.674c-0.56,0-1.004,0.184-1.336,0.547s-0.526,0.867-0.588,1.512h3.637c0-0.666-0.146-1.174-0.438-1.523
			C325.156,201.852,324.732,201.674,324.184,201.674z"/>
		<path fill="#444444" d="M331.068,207.133c0.188,0,0.364-0.014,0.541-0.042c0.173-0.026,0.311-0.056,0.409-0.085v0.807
			c-0.112,0.06-0.28,0.104-0.506,0.142c-0.224,0.032-0.424,0.054-0.602,0.054c-1.349,0-2.021-0.709-2.021-2.126v-4.142H327.9v-0.51
			l0.996-0.438l0.439-1.482h0.609v1.609h2.019v0.816h-2.019v4.097c0,0.419,0.1,0.74,0.298,0.965
			C330.449,207.021,330.723,207.133,331.068,207.133z"/>
		<path fill="#444444" d="M336.947,207.876v-9.278h1.08v8.303h4.094v0.979L336.947,207.876L336.947,207.876z"/>
		<path fill="#444444" d="M347.814,207.876l-0.216-0.99h-0.051c-0.347,0.438-0.688,0.731-1.037,0.888
			c-0.345,0.152-0.771,0.229-1.29,0.229c-0.688,0-1.229-0.178-1.623-0.532c-0.393-0.354-0.586-0.861-0.586-1.518
			c0-1.405,1.123-2.143,3.368-2.209l1.188-0.038v-0.433c0-0.547-0.118-0.948-0.354-1.209c-0.229-0.26-0.604-0.395-1.127-0.395
			c-0.58,0-1.234,0.182-1.968,0.533l-0.324-0.811c0.345-0.187,0.72-0.332,1.127-0.438c0.408-0.104,0.818-0.158,1.229-0.158
			c0.829,0,1.438,0.186,1.844,0.553c0.396,0.369,0.6,0.959,0.6,1.771v4.75h-0.776L347.814,207.876L347.814,207.876z
			 M345.436,207.133c0.654,0,1.176-0.18,1.55-0.54c0.375-0.358,0.562-0.862,0.562-1.511v-0.628l-1.055,0.044
			c-0.84,0.029-1.441,0.16-1.813,0.393c-0.368,0.229-0.556,0.588-0.556,1.074c0,0.383,0.114,0.672,0.346,0.87
			C344.695,207.034,345.02,207.133,345.436,207.133z"/>
		<path fill="#444444" d="M349.661,200.919h1.13l1.523,3.967c0.334,0.906,0.542,1.563,0.616,1.962h0.057
			c0.055-0.217,0.17-0.586,0.346-1.104c0.176-0.521,0.75-2.133,1.724-4.821h1.136l-2.989,7.922
			c-0.297,0.783-0.646,1.341-1.038,1.666c-0.396,0.328-0.882,0.492-1.457,0.492c-0.321,0-0.639-0.036-0.952-0.104v-0.848
			c0.232,0.055,0.493,0.076,0.781,0.076c0.723,0,1.239-0.404,1.549-1.221l0.387-0.988L349.661,200.919z"/>
		<path fill="#444444" d="M363.321,204.393c0,1.133-0.286,2.021-0.856,2.655c-0.572,0.638-1.355,0.955-2.368,0.955
			c-0.622,0-1.175-0.146-1.651-0.438c-0.482-0.293-0.854-0.711-1.117-1.258c-0.268-0.547-0.396-1.186-0.396-1.916
			c0-1.136,0.283-2.02,0.854-2.646c0.563-0.637,1.354-0.949,2.355-0.949c0.979,0,1.747,0.324,2.32,0.975
			C363.034,202.41,363.321,203.287,363.321,204.393z M358.021,204.393c0,0.893,0.178,1.564,0.527,2.029
			c0.355,0.467,0.878,0.698,1.567,0.698c0.688,0,1.214-0.231,1.569-0.695c0.354-0.464,0.532-1.142,0.532-2.034
			c0-0.885-0.179-1.557-0.532-2.016c-0.355-0.459-0.89-0.688-1.584-0.688c-0.688,0-1.211,0.228-1.562,0.68
			C358.194,202.816,358.021,203.494,358.021,204.393z"/>
		<path fill="#444444" d="M366.159,200.919v4.515c0,0.565,0.129,0.988,0.387,1.271c0.259,0.277,0.663,0.419,1.213,0.419
			c0.729,0,1.26-0.199,1.603-0.599c0.336-0.396,0.505-1.047,0.505-1.947v-3.656h1.053v6.956h-0.869l-0.149-0.935h-0.06
			c-0.217,0.345-0.516,0.604-0.896,0.787c-0.387,0.184-0.819,0.271-1.313,0.271c-0.847,0-1.479-0.201-1.898-0.604
			c-0.423-0.398-0.635-1.045-0.635-1.932v-4.551h1.064L366.159,200.919L366.159,200.919z"/>
		<path fill="#444444" d="M375.396,207.133c0.187,0,0.36-0.014,0.534-0.042c0.179-0.026,0.313-0.056,0.412-0.085v0.807
			c-0.108,0.06-0.276,0.104-0.505,0.142c-0.222,0.032-0.422,0.054-0.6,0.054c-1.352,0-2.021-0.709-2.021-2.126v-4.142h-0.996v-0.51
			l0.996-0.438l0.444-1.482h0.606v1.609h2.021v0.816h-2.021v4.097c0,0.419,0.103,0.74,0.301,0.965
			C374.775,207.021,375.049,207.133,375.396,207.133z"/>
		<path fill="#444444" d="M382.226,205.979c0,0.646-0.236,1.146-0.725,1.498c-0.483,0.354-1.159,0.526-2.031,0.526
			c-0.922,0-1.642-0.146-2.157-0.438v-0.979c0.34,0.169,0.692,0.305,1.075,0.398c0.389,0.099,0.752,0.146,1.107,0.146
			c0.551,0,0.974-0.088,1.27-0.263c0.297-0.178,0.445-0.443,0.445-0.805c0-0.271-0.118-0.502-0.353-0.693
			c-0.235-0.193-0.693-0.42-1.374-0.686c-0.648-0.24-1.108-0.451-1.387-0.633c-0.271-0.182-0.477-0.386-0.604-0.611
			c-0.134-0.229-0.2-0.5-0.2-0.816c0-0.564,0.23-1.018,0.692-1.342c0.461-0.328,1.094-0.492,1.896-0.492
			c0.749,0,1.481,0.15,2.196,0.457l-0.375,0.855c-0.697-0.289-1.33-0.436-1.897-0.436c-0.499,0-0.876,0.078-1.13,0.232
			c-0.254,0.156-0.381,0.373-0.381,0.646c0,0.188,0.048,0.35,0.143,0.479c0.102,0.133,0.249,0.258,0.467,0.375
			c0.211,0.119,0.611,0.289,1.219,0.516c0.824,0.3,1.382,0.604,1.672,0.908C382.08,205.131,382.226,205.518,382.226,205.979z"/>
	</g>
</g>
<g id="sidebar_layouts">
	<g>
		<path fill="#444444" d="M296.514,20.531c0,0.817-0.297,1.454-0.89,1.911s-1.396,0.686-2.412,0.686
			c-1.101,0-1.946-0.142-2.539-0.425v-1.041c0.382,0.161,0.796,0.288,1.244,0.381s0.894,0.14,1.333,0.14
			c0.721,0,1.262-0.136,1.625-0.41c0.363-0.272,0.546-0.652,0.546-1.139c0-0.322-0.063-0.585-0.192-0.791
			c-0.129-0.205-0.346-0.395-0.646-0.568c-0.304-0.173-0.765-0.37-1.381-0.59c-0.863-0.309-1.479-0.675-1.853-1.098
			c-0.371-0.423-0.56-0.976-0.56-1.657c0-0.715,0.271-1.284,0.81-1.708c0.534-0.424,1.248-0.635,2.133-0.635
			c0.926,0,1.771,0.169,2.545,0.508l-0.336,0.939c-0.769-0.322-1.51-0.482-2.231-0.482c-0.569,0-1.021,0.123-1.34,0.368
			c-0.321,0.246-0.479,0.586-0.479,1.022c0,0.322,0.062,0.585,0.178,0.79c0.119,0.206,0.316,0.394,0.604,0.565
			c0.28,0.171,0.712,0.36,1.292,0.568c0.976,0.347,1.646,0.719,2.013,1.117C296.336,19.38,296.514,19.896,296.514,20.531z"/>
		<path fill="#444444" d="M298.163,14.158c0-0.241,0.06-0.418,0.178-0.53c0.118-0.112,0.27-0.168,0.444-0.168
			c0.169,0,0.313,0.057,0.438,0.171c0.123,0.114,0.188,0.29,0.188,0.527c0,0.237-0.063,0.414-0.188,0.53
			c-0.121,0.117-0.269,0.175-0.438,0.175c-0.178,0-0.326-0.058-0.444-0.175S298.163,14.395,298.163,14.158z M299.307,23h-1.055
			v-6.957h1.055V23z"/>
		<path fill="#444444" d="M306.275,22.067h-0.063c-0.481,0.707-1.214,1.06-2.184,1.06c-0.909,0-1.617-0.311-2.123-0.933
			c-0.508-0.622-0.761-1.506-0.761-2.653s0.257-2.038,0.765-2.672c0.508-0.634,1.214-0.952,2.119-0.952
			c0.938,0,1.668,0.343,2.172,1.028h0.082l-0.045-0.501l-0.025-0.489v-2.831h1.06V23h-0.856L306.275,22.067z M304.168,22.245
			c0.721,0,1.241-0.196,1.564-0.587c0.321-0.391,0.479-1.023,0.479-1.895v-0.222c0-0.986-0.16-1.689-0.488-2.111
			c-0.325-0.421-0.854-0.631-1.569-0.631c-0.617,0-1.09,0.24-1.418,0.72s-0.491,1.159-0.491,2.035c0,0.889,0.161,1.56,0.487,2.012
			C303.059,22.018,303.537,22.245,304.168,22.245z"/>
		<path fill="#444444" d="M312.445,23.127c-1.029,0-1.84-0.313-2.438-0.939c-0.595-0.626-0.892-1.496-0.892-2.609
			c0-1.122,0.271-2.012,0.825-2.672c0.555-0.66,1.297-0.99,2.228-0.99c0.872,0,1.563,0.287,2.069,0.86
			c0.508,0.573,0.762,1.33,0.762,2.269v0.667h-4.792c0.021,0.817,0.229,1.437,0.618,1.86c0.391,0.423,0.938,0.635,1.647,0.635
			c0.75,0,1.49-0.157,2.229-0.47v0.939c-0.373,0.161-0.729,0.276-1.063,0.346C313.314,23.092,312.914,23.127,312.445,23.127z
			 M312.159,16.798c-0.563,0-1.005,0.182-1.336,0.546c-0.332,0.364-0.528,0.868-0.587,1.511h3.637c0-0.665-0.148-1.173-0.443-1.527
			C313.133,16.975,312.709,16.798,312.159,16.798z"/>
		<path fill="#444444" d="M320.037,15.929c0.914,0,1.624,0.312,2.13,0.937c0.506,0.624,0.758,1.507,0.758,2.65
			s-0.255,2.03-0.765,2.663c-0.51,0.633-1.219,0.949-2.123,0.949c-0.453,0-0.866-0.083-1.241-0.251
			c-0.374-0.167-0.688-0.424-0.942-0.771h-0.073L317.557,23H316.8v-9.877h1.054v2.399c0,0.538-0.017,1.02-0.051,1.447h0.051
			C318.346,16.276,319.072,15.929,320.037,15.929z M319.885,16.811c-0.72,0-1.233,0.207-1.556,0.619
			c-0.315,0.413-0.479,1.108-0.479,2.085s0.162,1.677,0.486,2.098c0.325,0.421,0.853,0.631,1.567,0.631
			c0.646,0,1.13-0.236,1.441-0.708c0.317-0.472,0.479-1.15,0.479-2.035c0-0.906-0.158-1.581-0.479-2.025
			C321.038,17.032,320.549,16.811,319.885,16.811z"/>
		<path fill="#444444" d="M329.044,23l-0.21-0.99h-0.051c-0.351,0.436-0.692,0.731-1.037,0.886
			c-0.346,0.154-0.775,0.231-1.292,0.231c-0.688,0-1.229-0.178-1.622-0.533c-0.393-0.354-0.587-0.861-0.587-1.517
			c0-1.405,1.124-2.141,3.37-2.209l1.182-0.038v-0.432c0-0.546-0.117-0.949-0.354-1.209c-0.234-0.26-0.609-0.39-1.127-0.39
			c-0.58,0-1.234,0.178-1.97,0.533l-0.321-0.806c0.344-0.186,0.719-0.332,1.127-0.438c0.405-0.106,0.815-0.159,1.229-0.159
			c0.829,0,1.444,0.184,1.844,0.552c0.4,0.368,0.604,0.958,0.604,1.771V23H329.044z M326.664,22.257c0.654,0,1.171-0.18,1.545-0.54
			c0.375-0.36,0.563-0.863,0.563-1.511v-0.628l-1.061,0.044c-0.838,0.03-1.438,0.16-1.812,0.391c-0.369,0.23-0.56,0.589-0.56,1.076
			c0,0.381,0.114,0.671,0.349,0.87C325.925,22.158,326.249,22.257,326.664,22.257z"/>
		<path fill="#444444" d="M335.17,15.916c0.309,0,0.586,0.025,0.832,0.076l-0.146,0.978c-0.287-0.062-0.541-0.095-0.765-0.095
			c-0.562,0-1.044,0.229-1.44,0.686c-0.397,0.457-0.604,1.026-0.604,1.708V23h-1.054v-6.957h0.869l0.121,1.289h0.051
			c0.258-0.453,0.567-0.802,0.934-1.047C334.334,16.039,334.734,15.916,335.17,15.916z"/>
		<path fill="#444444" d="M341,23v-9.28h1.08v8.303h4.094V23H341z"/>
		<path fill="#444444" d="M351.867,23l-0.21-0.99h-0.051c-0.353,0.436-0.692,0.731-1.037,0.886
			c-0.351,0.154-0.775,0.231-1.292,0.231c-0.689,0-1.23-0.178-1.622-0.533c-0.396-0.354-0.587-0.861-0.587-1.517
			c0-1.405,1.124-2.141,3.37-2.209l1.182-0.038v-0.432c0-0.546-0.118-0.949-0.354-1.209c-0.229-0.26-0.604-0.39-1.127-0.39
			c-0.58,0-1.229,0.178-1.968,0.533l-0.324-0.806c0.35-0.186,0.725-0.332,1.127-0.438c0.408-0.106,0.818-0.159,1.229-0.159
			c0.829,0,1.444,0.184,1.844,0.552c0.4,0.368,0.604,0.958,0.604,1.771V23H351.867z M349.487,22.257c0.649,0,1.171-0.18,1.545-0.54
			c0.375-0.36,0.562-0.863,0.562-1.511v-0.628l-1.055,0.044c-0.838,0.03-1.441,0.16-1.813,0.391
			c-0.364,0.23-0.556,0.589-0.556,1.076c0,0.381,0.115,0.671,0.346,0.87C348.748,22.158,349.072,22.257,349.487,22.257z"/>
		<path fill="#444444" d="M353.715,16.043h1.13l1.523,3.967c0.334,0.906,0.542,1.56,0.622,1.961h0.051
			c0.055-0.216,0.17-0.585,0.346-1.107c0.182-0.523,0.75-2.13,1.729-4.821h1.13l-2.989,7.922c-0.297,0.783-0.643,1.338-1.038,1.666
			c-0.395,0.328-0.882,0.492-1.457,0.492c-0.316,0-0.639-0.036-0.952-0.108v-0.844c0.232,0.051,0.493,0.076,0.781,0.076
			c0.726,0,1.239-0.406,1.549-1.219l0.393-0.99L353.715,16.043z"/>
		<path fill="#444444" d="M367.375,19.515c0,1.134-0.286,2.02-0.856,2.657c-0.566,0.637-1.355,0.955-2.362,0.955
			c-0.622,0-1.181-0.146-1.657-0.438c-0.482-0.292-0.854-0.711-1.117-1.257c-0.262-0.546-0.393-1.185-0.393-1.917
			c0-1.134,0.277-2.018,0.85-2.65c0.567-0.633,1.354-0.949,2.361-0.949c0.974,0,1.747,0.324,2.314,0.971
			C367.088,17.534,367.375,18.411,367.375,19.515z M362.075,19.515c0,0.889,0.178,1.566,0.533,2.031
			c0.354,0.465,0.878,0.698,1.563,0.698c0.689,0,1.214-0.232,1.571-0.695c0.354-0.464,0.536-1.142,0.536-2.035
			c0-0.884-0.184-1.556-0.536-2.015c-0.357-0.459-0.886-0.689-1.584-0.689c-0.689,0-1.21,0.227-1.563,0.679
			C362.248,17.941,362.075,18.618,362.075,19.515z"/>
		<path fill="#444444" d="M370.212,16.043v4.513c0,0.567,0.129,0.99,0.387,1.27c0.265,0.279,0.663,0.419,1.214,0.419
			c0.729,0,1.265-0.199,1.602-0.597c0.336-0.398,0.505-1.047,0.505-1.949v-3.656h1.053V23h-0.87l-0.146-0.933h-0.063
			c-0.217,0.343-0.516,0.605-0.896,0.787s-0.82,0.273-1.313,0.273c-0.847,0-1.479-0.201-1.896-0.603s-0.632-1.045-0.632-1.93v-4.551
			H370.212z"/>
		<path fill="#444444" d="M379.448,22.257c0.187,0,0.366-0.014,0.54-0.042c0.173-0.027,0.311-0.056,0.412-0.085v0.806
			c-0.114,0.055-0.282,0.101-0.511,0.137c-0.222,0.036-0.422,0.054-0.6,0.054c-1.346,0-2.021-0.709-2.021-2.126v-4.139h-0.994
			v-0.508l0.994-0.438l0.44-1.485h0.609v1.612h2.019v0.819h-2.019v4.094c0,0.419,0.1,0.741,0.298,0.965
			C378.828,22.145,379.102,22.257,379.448,22.257z"/>
		<path fill="#444444" d="M386.278,21.102c0,0.647-0.242,1.147-0.729,1.498c-0.479,0.351-1.159,0.527-2.025,0.527
			c-0.928,0-1.646-0.146-2.158-0.438v-0.978c0.335,0.169,0.688,0.303,1.076,0.4c0.383,0.097,0.752,0.146,1.104,0.146
			c0.551,0,0.979-0.088,1.271-0.263c0.297-0.176,0.439-0.443,0.439-0.803c0-0.271-0.118-0.502-0.353-0.695
			c-0.235-0.193-0.693-0.42-1.374-0.683c-0.648-0.241-1.108-0.452-1.381-0.632c-0.273-0.18-0.479-0.384-0.609-0.612
			c-0.134-0.229-0.2-0.501-0.2-0.819c0-0.567,0.23-1.015,0.692-1.342c0.461-0.328,1.094-0.492,1.896-0.492
			c0.749,0,1.481,0.152,2.196,0.457l-0.375,0.857c-0.697-0.288-1.33-0.432-1.896-0.432c-0.499,0-0.878,0.078-1.133,0.235
			c-0.254,0.157-0.381,0.373-0.381,0.647c0,0.186,0.048,0.345,0.146,0.476c0.096,0.131,0.249,0.256,0.461,0.375
			c0.211,0.119,0.614,0.29,1.219,0.514c0.824,0.3,1.382,0.603,1.672,0.908C386.132,20.258,386.278,20.641,386.278,21.102z"/>
	</g>
	<rect id="sidebar-a_10_" x="290" y="34" opacity="0.2" enable-background="new    " width="9" height="58"/>
	<rect id="sidebar-b_5_" x="304" y="34" opacity="0.2" enable-background="new    " width="9" height="58"/>
	<rect id="content_12_" x="318" y="34" opacity="0.05" enable-background="new    " width="40" height="58"/>
	<rect id="sidebar-a_9_" x="432" y="34" opacity="0.2" enable-background="new    " width="9" height="58"/>
	<rect id="sidebar-b_4_" x="446" y="34" opacity="0.2" enable-background="new    " width="9" height="58"/>
	<rect id="content_11_" x="388" y="34" opacity="0.05" enable-background="new    " width="39" height="58"/>
	<rect id="sidebar-a_8_" x="481" y="34" opacity="0.2" enable-background="new    " width="9" height="58"/>
	<rect id="sidebar-b_3_" x="541" y="34" opacity="0.2" enable-background="new    " width="9" height="58"/>
	<rect id="content_10_" x="495" y="34" opacity="0.05" enable-background="new    " width="41" height="58"/>
	<rect id="sidebar-a_7_" x="290" y="112" opacity="0.2" enable-background="new    " width="9" height="58"/>
	<rect id="content_9_" x="304" y="112" opacity="0.05" enable-background="new    " width="53" height="58"/>
	<rect id="sidebar-a_6_" x="446" y="112" opacity="0.2" enable-background="new    " width="9" height="58"/>
	<rect id="content_8_" x="388" y="112" opacity="0.05" enable-background="new    " width="53" height="58"/>
	<rect id="content_7_" x="482" y="112" opacity="0.05" enable-background="new    " width="68" height="58"/>
</g>
<g>
	<path fill="#444444" d="M300.957,230.447c0,0.65-0.222,1.15-0.666,1.501c-0.443,0.35-1.078,0.524-1.904,0.524h-0.756V235h-0.748
		v-6.425h1.666C300.154,228.575,300.957,229.199,300.957,230.447z M297.631,231.832h0.672c0.662,0,1.144-0.107,1.438-0.321
		s0.44-0.557,0.44-1.028c0-0.424-0.14-0.738-0.418-0.946c-0.275-0.208-0.711-0.313-1.301-0.313h-0.834L297.631,231.832
		L297.631,231.832z"/>
	<path fill="#444444" d="M306.34,235l-0.8-2.043h-2.575L302.174,235h-0.756l2.54-6.451h0.628l2.527,6.451H306.34z M305.307,232.284
		l-0.746-1.991c-0.098-0.251-0.194-0.561-0.299-0.927c-0.063,0.28-0.154,0.591-0.274,0.927l-0.759,1.991H305.307z"/>
	<path fill="#444444" d="M308.744,232.328V235h-0.748v-6.425h1.763c0.788,0,1.37,0.151,1.747,0.452
		c0.376,0.303,0.564,0.756,0.564,1.363c0,0.85-0.434,1.424-1.292,1.723l1.745,2.887h-0.887l-1.556-2.672H308.744z M308.744,231.688
		h1.021c0.527,0,0.914-0.104,1.16-0.313s0.369-0.521,0.369-0.939c0-0.428-0.125-0.73-0.376-0.918
		c-0.25-0.188-0.652-0.281-1.206-0.281h-0.971L308.744,231.688L308.744,231.688z"/>
	<path fill="#444444" d="M317.6,235l-0.8-2.043h-2.575L313.434,235h-0.756l2.54-6.451h0.628l2.527,6.451H317.6z M316.566,232.284
		l-0.746-1.991c-0.101-0.251-0.197-0.561-0.299-0.927c-0.065,0.28-0.157,0.591-0.277,0.927l-0.756,1.991H316.566z"/>
	<path fill="#444444" d="M319.256,235v-6.425h0.748v5.748h2.834V235H319.256z"/>
	<path fill="#444444" d="M327.509,235h-3.582v-6.425h3.582v0.663h-2.834v2.07h2.662v0.656h-2.662v2.364h2.834V235z"/>
	<path fill="#444444" d="M328.932,235v-6.425h0.748v5.748h2.834V235H328.932z"/>
	<path fill="#444444" d="M333.604,235v-6.425h0.748v5.748h2.834V235H333.604z"/>
	<path fill="#444444" d="M300.509,276.091c0,0.565-0.205,1.007-0.615,1.322c-0.407,0.315-0.967,0.476-1.67,0.476
		c-0.762,0-1.348-0.099-1.758-0.296v-0.721c0.265,0.112,0.552,0.2,0.861,0.265c0.312,0.064,0.618,0.098,0.923,0.098
		c0.498,0,0.873-0.096,1.125-0.282s0.378-0.451,0.378-0.788c0-0.225-0.045-0.405-0.134-0.548c-0.09-0.144-0.239-0.272-0.448-0.396
		c-0.21-0.119-0.528-0.257-0.956-0.408c-0.598-0.215-1.023-0.467-1.281-0.76c-0.256-0.294-0.385-0.677-0.385-1.146
		c0-0.495,0.188-0.892,0.559-1.185c0.373-0.293,0.864-0.438,1.479-0.438c0.639,0,1.228,0.115,1.762,0.354l-0.229,0.648
		c-0.53-0.225-1.046-0.334-1.547-0.334c-0.396,0-0.705,0.086-0.93,0.256c-0.224,0.17-0.332,0.405-0.332,0.707
		c0,0.225,0.039,0.403,0.121,0.547c0.082,0.145,0.223,0.271,0.415,0.395c0.194,0.117,0.492,0.25,0.896,0.394
		c0.673,0.24,1.137,0.498,1.391,0.772C300.382,275.294,300.509,275.65,300.509,276.091z"/>
	<path fill="#444444" d="M303.801,277.8h-0.748v-5.762h-2.034v-0.663h4.816v0.663h-2.034V277.8L303.801,277.8z"/>
	<path fill="#444444" d="M310.84,277.8l-0.8-2.043h-2.575l-0.791,2.043h-0.756l2.54-6.45h0.628l2.527,6.45H310.84z M309.807,275.084
		l-0.746-1.991c-0.098-0.251-0.194-0.561-0.299-0.927c-0.063,0.281-0.154,0.591-0.274,0.927l-0.759,1.991H309.807z"/>
	<path fill="#444444" d="M315.248,271.95c-0.707,0-1.264,0.235-1.673,0.706c-0.408,0.47-0.612,1.113-0.612,1.931
		c0,0.843,0.196,1.491,0.591,1.949c0.396,0.459,0.956,0.688,1.688,0.688c0.446,0,0.96-0.08,1.534-0.242v0.656
		c-0.445,0.165-0.995,0.25-1.647,0.25c-0.947,0-1.677-0.287-2.191-0.861c-0.514-0.574-0.771-1.393-0.771-2.447
		c0-0.662,0.124-1.242,0.372-1.74c0.247-0.498,0.604-0.882,1.072-1.152c0.467-0.269,1.017-0.401,1.646-0.401
		c0.674,0,1.263,0.123,1.771,0.366l-0.316,0.646C316.22,272.064,315.733,271.95,315.248,271.95z"/>
	<path fill="#444444" d="M322.814,277.8h-0.882l-2.342-3.114l-0.672,0.6v2.518h-0.748v-6.425h0.748v3.188l2.913-3.188h0.884
		l-2.584,2.79L322.814,277.8z"/>
	<path fill="#444444" d="M327.28,277.8h-3.582v-6.425h3.582v0.663h-2.834v2.069h2.662v0.66h-2.662v2.361h2.834V277.8z"/>
	<path fill="#444444" d="M333.832,274.525c0,1.062-0.288,1.871-0.863,2.433c-0.576,0.562-1.401,0.842-2.482,0.842h-1.78v-6.425
		h1.969c0.999,0,1.775,0.275,2.33,0.831C333.555,272.759,333.832,273.532,333.832,274.525z M333.041,274.552
		c0-0.837-0.21-1.469-0.631-1.894c-0.42-0.426-1.045-0.639-1.874-0.639h-1.085v5.133h0.909c0.891,0,1.56-0.219,2.009-0.655
		C332.816,276.059,333.041,275.411,333.041,274.552z"/>
	<path fill="#444444" d="M302.012,317.326c0,1.061-0.288,1.871-0.86,2.432c-0.576,0.563-1.404,0.842-2.485,0.842h-1.779v-6.425
		h1.969c0.998,0,1.774,0.276,2.329,0.831C301.734,315.559,302.012,316.332,302.012,317.326z M301.221,317.352
		c0-0.836-0.21-1.469-0.631-1.894c-0.42-0.425-1.045-0.638-1.874-0.638h-1.085v5.133h0.909c0.891,0,1.56-0.219,2.009-0.656
		C300.996,318.857,301.221,318.211,301.221,317.352z"/>
	<path fill="#444444" d="M309.021,317.379c0,1.027-0.263,1.836-0.78,2.426c-0.521,0.588-1.243,0.883-2.168,0.883
		c-0.947,0-1.677-0.289-2.191-0.867c-0.514-0.576-0.771-1.396-0.771-2.448c0-1.045,0.258-1.854,0.771-2.435
		c0.519-0.576,1.248-0.86,2.197-0.86c0.924,0,1.645,0.293,2.162,0.879C308.762,315.539,309.021,316.348,309.021,317.379z
		 M303.9,317.379c0,0.869,0.186,1.529,0.557,1.979c0.37,0.449,0.908,0.678,1.615,0.678c0.711,0,1.249-0.227,1.609-0.676
		c0.363-0.445,0.545-1.105,0.545-1.979c0-0.861-0.181-1.521-0.543-1.967c-0.358-0.447-0.896-0.67-1.604-0.67
		c-0.711,0-1.253,0.225-1.623,0.674C304.086,315.866,303.9,316.521,303.9,317.379z"/>
	<path fill="#444444" d="M315.305,314.175v4.157c0,0.732-0.221,1.309-0.663,1.727c-0.439,0.42-1.05,0.629-1.82,0.629
		c-0.773,0-1.372-0.211-1.796-0.633c-0.426-0.422-0.638-1.002-0.638-1.74v-4.14h0.747v4.192c0,0.535,0.146,0.947,0.439,1.234
		s0.724,0.432,1.292,0.432c0.542,0,0.959-0.145,1.253-0.434c0.292-0.289,0.438-0.703,0.438-1.242v-4.186L315.305,314.175
		L315.305,314.175z"/>
	<path fill="#444444" d="M317.006,314.175h1.815c0.853,0,1.469,0.128,1.851,0.382c0.38,0.256,0.57,0.658,0.57,1.209
		c0,0.381-0.105,0.695-0.318,0.942c-0.212,0.248-0.521,0.408-0.93,0.481v0.043c0.977,0.168,1.464,0.681,1.464,1.539
		c0,0.571-0.194,1.021-0.582,1.345c-0.389,0.321-0.932,0.483-1.628,0.483h-2.242V314.175L317.006,314.175z M317.754,316.926h1.23
		c0.524,0,0.903-0.083,1.138-0.248c0.229-0.166,0.347-0.443,0.347-0.838c0-0.359-0.129-0.619-0.387-0.779s-0.668-0.238-1.23-0.238
		h-1.098V316.926z M317.754,317.559v2.404h1.34c0.521,0,0.909-0.102,1.171-0.302c0.266-0.2,0.396-0.515,0.396-0.942
		c0-0.398-0.134-0.691-0.402-0.879c-0.268-0.188-0.676-0.281-1.224-0.281H317.754z"/>
	<path fill="#444444" d="M322.837,320.6v-6.425h0.748v5.748h2.834v0.677H322.837z"/>
	<path fill="#444444" d="M331.09,320.6h-3.582v-6.425h3.582v0.663h-2.834v2.07h2.662v0.658h-2.662v2.365h2.834V320.6z"/>
	<path fill="#444444" d="M337.643,317.326c0,1.061-0.285,1.871-0.86,2.432c-0.576,0.563-1.404,0.842-2.485,0.842h-1.78v-6.425h1.972
		c0.999,0,1.772,0.276,2.33,0.831C337.365,315.559,337.643,316.332,337.643,317.326z M336.852,317.352
		c0-0.836-0.21-1.469-0.631-1.894c-0.42-0.425-1.045-0.638-1.874-0.638h-1.085v5.133h0.909c0.891,0,1.563-0.219,2.009-0.656
		C336.627,318.857,336.852,318.211,336.852,317.352z"/>
</g>
<g>
	<path fill="#444444" d="M103.477,222.75l-2.18-5.695h-0.035c0.041,0.451,0.062,0.987,0.062,1.608v4.087h-0.69v-6.425h1.125
		l2.035,5.3h0.035l2.052-5.3h1.116v6.425h-0.747v-4.141c0-0.476,0.021-0.989,0.062-1.547h-0.035l-2.197,5.688H103.477z"/>
	<path fill="#444444" d="M112.797,222.75l-0.8-2.043h-2.575l-0.791,2.043h-0.756l2.54-6.451h0.628l2.527,6.451H112.797z
		 M111.765,220.034l-0.747-1.991c-0.097-0.251-0.196-0.561-0.299-0.927c-0.064,0.28-0.157,0.591-0.277,0.927l-0.756,1.991H111.765z"
		/>
	<path fill="#444444" d="M114.454,222.75v-6.425h0.747v6.425H114.454z"/>
	<path fill="#444444" d="M121.982,222.75h-0.853l-3.511-5.393h-0.035c0.047,0.633,0.07,1.213,0.07,1.74v3.65h-0.69v-6.425h0.844
		l3.502,5.368h0.035c-0.006-0.077-0.019-0.332-0.04-0.762s-0.028-0.736-0.022-0.922v-3.687h0.699L121.982,222.75L121.982,222.75z"/>
	<path fill="#444444" d="M123.234,220.672v-0.668h2.158v0.668H123.234z"/>
	<path fill="#444444" d="M126.645,216.325h1.815c0.853,0,1.469,0.128,1.85,0.382c0.381,0.256,0.571,0.658,0.571,1.209
		c0,0.381-0.106,0.695-0.319,0.941c-0.212,0.248-0.522,0.408-0.929,0.48v0.044c0.976,0.167,1.463,0.681,1.463,1.538
		c0,0.574-0.194,1.021-0.582,1.346c-0.389,0.321-0.931,0.482-1.628,0.482h-2.241V216.325z M127.392,219.076h1.23
		c0.527,0,0.907-0.083,1.138-0.248c0.231-0.166,0.347-0.444,0.347-0.838c0-0.359-0.129-0.62-0.387-0.779
		c-0.258-0.16-0.668-0.24-1.23-0.24h-1.099L127.392,219.076L127.392,219.076z M127.392,219.709v2.404h1.34
		c0.519,0,0.909-0.103,1.171-0.303c0.262-0.199,0.394-0.516,0.394-0.941c0-0.398-0.134-0.691-0.402-0.879
		c-0.268-0.188-0.676-0.281-1.224-0.281H127.392z"/>
	<path fill="#444444" d="M138.053,219.529c0,1.027-0.26,1.836-0.78,2.426c-0.52,0.588-1.243,0.883-2.168,0.883
		c-0.946,0-1.676-0.289-2.191-0.868c-0.514-0.577-0.771-1.396-0.771-2.45c0-1.045,0.258-1.854,0.773-2.432
		c0.516-0.576,1.248-0.863,2.197-0.863c0.923,0,1.644,0.293,2.162,0.879S138.053,218.498,138.053,219.529z M132.933,219.529
		c0,0.869,0.185,1.529,0.556,1.979c0.37,0.449,0.909,0.676,1.615,0.676c0.712,0,1.25-0.226,1.613-0.674
		c0.363-0.447,0.545-1.107,0.545-1.979c0-0.864-0.181-1.521-0.543-1.968c-0.362-0.446-0.897-0.67-1.606-0.67
		c-0.712,0-1.253,0.226-1.624,0.674C133.118,218.018,132.933,218.671,132.933,219.529z"/>
	<path fill="#444444" d="M141.463,222.75h-0.747v-5.762h-2.035v-0.663h4.816v0.663h-2.035L141.463,222.75L141.463,222.75z"/>
	<path fill="#444444" d="M146.442,222.75h-0.747v-5.762h-2.035v-0.663h4.816v0.663h-2.035L146.442,222.75L146.442,222.75z"/>
	<path fill="#444444" d="M155.02,219.529c0,1.027-0.26,1.836-0.78,2.426c-0.52,0.588-1.243,0.883-2.168,0.883
		c-0.946,0-1.676-0.289-2.191-0.868c-0.514-0.577-0.771-1.396-0.771-2.45c0-1.045,0.258-1.854,0.773-2.432
		c0.516-0.576,1.248-0.863,2.197-0.863c0.923,0,1.644,0.293,2.162,0.879S155.02,218.498,155.02,219.529z M149.9,219.529
		c0,0.869,0.185,1.529,0.556,1.979c0.37,0.449,0.909,0.676,1.615,0.676c0.712,0,1.25-0.226,1.613-0.674
		c0.363-0.447,0.545-1.107,0.545-1.979c0-0.864-0.181-1.521-0.543-1.968s-0.897-0.67-1.606-0.67c-0.712,0-1.253,0.226-1.624,0.674
		C150.085,218.018,149.9,218.671,149.9,219.529z"/>
	<path fill="#444444" d="M159.296,222.75l-2.18-5.695h-0.035c0.041,0.451,0.062,0.987,0.062,1.608v4.087h-0.69v-6.425h1.125
		l2.035,5.3h0.035l2.052-5.3h1.116v6.425h-0.747v-4.141c0-0.476,0.021-0.989,0.062-1.547h-0.035l-2.197,5.688H159.296z"/>
</g>
<g>
	<path fill="#444444" d="M113.477,150.75l-2.18-5.695h-0.035c0.041,0.451,0.062,0.987,0.062,1.608v4.087h-0.69v-6.425h1.125
		l2.035,5.3h0.035l2.052-5.3h1.116v6.425h-0.747v-4.141c0-0.475,0.021-0.989,0.062-1.547h-0.035l-2.197,5.688H113.477z"/>
	<path fill="#444444" d="M122.797,150.75l-0.8-2.043h-2.575l-0.791,2.043h-0.756l2.54-6.451h0.628l2.527,6.451H122.797z
		 M121.765,148.034l-0.747-1.991c-0.097-0.251-0.196-0.561-0.299-0.927c-0.064,0.28-0.157,0.591-0.277,0.927l-0.756,1.991H121.765z"
		/>
	<path fill="#444444" d="M124.454,150.75v-6.425h0.747v6.425H124.454z"/>
	<path fill="#444444" d="M131.982,150.75h-0.853l-3.511-5.393h-0.035c0.047,0.633,0.07,1.213,0.07,1.74v3.651h-0.69v-6.425h0.844
		l3.502,5.369h0.035c-0.006-0.078-0.019-0.332-0.04-0.762c-0.021-0.43-0.028-0.736-0.022-0.922v-3.687h0.699L131.982,150.75
		L131.982,150.75z"/>
	<path fill="#444444" d="M133.234,148.672v-0.668h2.158v0.668H133.234z"/>
	<path fill="#444444" d="M138.622,150.75h-0.747v-5.762h-2.035v-0.663h4.816v0.663h-2.035L138.622,150.75L138.622,150.75z"/>
	<path fill="#444444" d="M147.2,147.529c0,1.027-0.26,1.836-0.78,2.426c-0.52,0.588-1.243,0.883-2.168,0.883
		c-0.946,0-1.676-0.289-2.191-0.868c-0.514-0.577-0.771-1.396-0.771-2.45c0-1.045,0.258-1.855,0.773-2.432
		c0.516-0.576,1.248-0.863,2.197-0.863c0.923,0,1.644,0.293,2.162,0.879S147.2,146.498,147.2,147.529z M142.081,147.529
		c0,0.869,0.185,1.529,0.556,1.979c0.37,0.449,0.909,0.676,1.615,0.676c0.712,0,1.25-0.226,1.613-0.674
		c0.363-0.447,0.545-1.107,0.545-1.979c0-0.864-0.181-1.521-0.543-1.967c-0.362-0.447-0.897-0.67-1.606-0.67
		c-0.712,0-1.253,0.225-1.624,0.674C142.266,146.018,142.081,146.671,142.081,147.529z"/>
	<path fill="#444444" d="M152.707,146.197c0,0.65-0.222,1.15-0.666,1.501c-0.443,0.35-1.079,0.524-1.905,0.524h-0.756v2.526h-0.747
		v-6.425h1.666C151.904,144.325,152.707,144.949,152.707,146.197z M149.38,147.582h0.672c0.662,0,1.141-0.107,1.437-0.321
		c0.296-0.214,0.444-0.557,0.444-1.028c0-0.424-0.139-0.74-0.417-0.948c-0.278-0.208-0.712-0.312-1.301-0.312h-0.835V147.582
		L149.38,147.582z"/>
</g>
<g>
	<rect x="246.333" y="41.083" fill="#444444" width="8" height="1"/>
	<rect x="246.333" y="43.083" fill="#444444" width="8" height="1"/>
	<rect x="246.333" y="45.083" fill="#444444" width="8" height="1"/>
</g>
<text transform="matrix(1 0 0 1 141.0005 125.3105)" fill="#444444" font-family="'OpenSans'" font-size="9.7361">C</text>
<text transform="matrix(1 0 0 1 148.1099 303.3105)" fill="#444444" font-family="'OpenSans'" font-size="9.7361">C</text>
</svg>
