<?xml version="1.0" encoding="utf-8"?>
<!-- Generator: Adobe Illustrator 16.0.4, SVG Export Plug-In . SVG Version: 6.00 Build 0)  -->
<!DOCTYPE svg PUBLIC "-//W3C//DTD SVG 1.1//EN" "http://www.w3.org/Graphics/SVG/1.1/DTD/svg11.dtd">
<svg version="1.1" id="logo" xmlns="http://www.w3.org/2000/svg" xmlns:xlink="http://www.w3.org/1999/xlink" x="0px" y="0px"
	 width="130px" height="80px" viewBox="0 0 130 80" enable-background="new 0 0 130 80" xml:space="preserve">
<g id="nite">
	<g>
		<path fill="#333333" d="M54.55,61.097h4.883V33.224H54.55V61.097z M96.716,33.224c-8.852,0-13.277,4.499-13.277,13.497
			c0,9.417,4.672,14.376,14.016,14.376c3.502,0,6.602-0.266,9.046-0.789v-4.195c-2.444,0.523-5.018,0.789-7.462,0.789
			c-7.146,0-10.717-2.824-10.717-8.471h18.66C108.618,38.293,105.195,33.224,96.716,33.224z M102.521,44.378H88.321
			c0.316-4.841,2.852-7.261,7.603-7.261C100.567,37.117,102.767,39.538,102.521,44.378z M36.926,33.224
			c-3.396,0-6.775,1.175-10.135,3.526l-0.871-3.526h-3.299v27.875h4.883V40.775c2.517-2.333,5.173-3.5,7.971-3.5
			c4.1,0,6.15,2.053,6.15,6.155v17.666h4.883V43.511C46.507,36.653,43.313,33.224,36.926,33.224z M70.664,28.129h-3.062v25.274
			c0,4.968,2.319,7.695,6.968,7.695h3.965v-4.195h-2.697c-2.233,0-3.353-1.288-3.353-3.868V37.17h6.05v-3.946h-6.818L70.664,28.129z
			 M58.949,20.23c-1.001,3.137-3.575,4.705-5.005,5.986c-1.431,1.284-0.143,3.707,3.003,3.992c3.146,0.285,4.575-5.986,4.004-7.982
			C60.379,20.23,59.95,17.095,58.949,20.23z"/>
	</g>
</g>
</svg>
