<?xml version="1.0" encoding="utf-8"?>
<!-- Generator: Adobe Illustrator 16.0.4, SVG Export Plug-In . SVG Version: 6.00 Build 0)  -->
<!DOCTYPE svg PUBLIC "-//W3C//DTD SVG 1.1//EN" "http://www.w3.org/Graphics/SVG/1.1/DTD/svg11.dtd">
<svg version="1.1" id="logo" xmlns="http://www.w3.org/2000/svg" xmlns:xlink="http://www.w3.org/1999/xlink" x="0px" y="0px"
	 width="130px" height="80px" viewBox="0 0 130 80" enable-background="new 0 0 130 80" xml:space="preserve">
<g id="eat">
	<g>
		<path fill="#333333" d="M29.247,50.612V43.25h10.065c0.29-1.485,0.455-2.841,0.455-4.075c-0.001-1.157-0.166-2.516-0.457-4.051
			H29.246v-5.716h12.758c0.273-1.574,0.438-2.95,0.438-4.107c0-0.579-0.056-1.193-0.111-1.846c-0.088-0.651-0.199-1.392-0.326-2.135
			H20V58.68h22.332c0.291-1.466,0.457-2.801,0.457-4.106c0-1.179-0.164-2.497-0.457-3.961H29.247z M63.694,21.102
			c-0.801-0.053-1.523-0.107-2.187-0.107c-0.799,0-1.598,0.057-2.348,0.108c-0.8,0.071-1.638,0.164-2.529,0.235l-11.68,37.123
			c0.981,0.199,1.912,0.309,2.729,0.417c0.801,0.074,1.549,0.128,2.167,0.128c0.619,0,1.275-0.054,1.93-0.108
			c0.655-0.075,1.381-0.182,2.2-0.326l1.93-7.112c0.892,0.254,1.767,0.45,2.603,0.56c0.818,0.106,1.619,0.159,2.439,0.159
			c0.87,0,1.728-0.053,2.637-0.198c0.854-0.126,1.819-0.344,2.783-0.634l1.981,7.222c0.803,0.146,1.53,0.253,2.237,0.321
			c0.688,0.054,1.385,0.107,2.076,0.107c1.51,0,3.234-0.162,5.227-0.488l-11.519-37.17C65.353,21.267,64.444,21.174,63.694,21.102z
			 M62.788,44.93c-0.562,0.106-1.129,0.125-1.729,0.125c-0.564,0-1.109-0.05-1.641-0.16c-0.51-0.109-1.059-0.237-1.655-0.398
			l3.513-13.385l3.313,13.437C63.97,44.71,63.368,44.84,62.788,44.93z M102.537,25.298c0-0.58-0.057-1.192-0.109-1.845
			c-0.068-0.65-0.186-1.393-0.311-2.135H75.469c-0.324,1.504-0.451,2.84-0.451,3.982c0,1.229,0.127,2.624,0.451,4.108h8.721v29.104
			c1.785,0.324,3.332,0.49,4.645,0.49c1.197,0,2.748-0.166,4.584-0.49V29.407h8.697C102.373,27.831,102.537,26.456,102.537,25.298z
			 M109.895,52.035c-0.096-0.724-0.201-1.479-0.328-2.297c-0.819-0.106-1.582-0.18-2.272-0.27c-0.747-0.055-1.438-0.107-2.146-0.107
			c-0.711-0.001-1.422,0.055-2.148,0.107c-0.729,0.092-1.49,0.161-2.272,0.27c-0.165,0.814-0.271,1.57-0.326,2.297
			c-0.056,0.742-0.088,1.451-0.088,2.121c0,0.705,0.032,1.409,0.088,2.133c0.058,0.741,0.161,1.502,0.326,2.28
			c0.782,0.145,1.546,0.253,2.272,0.325c0.729,0.054,1.438,0.107,2.146,0.107c0.705,0,1.398-0.056,2.146-0.107
			c0.692-0.074,1.455-0.184,2.274-0.325c0.125-0.778,0.232-1.539,0.326-2.28c0.055-0.725,0.107-1.43,0.107-2.133
			C110,53.484,109.945,52.777,109.895,52.035z"/>
	</g>
</g>
</svg>
