<?xml version="1.0" encoding="utf-8"?>
<!-- Generator: Adobe Illustrator 16.0.4, SVG Export Plug-In . SVG Version: 6.00 Build 0)  -->
<!DOCTYPE svg PUBLIC "-//W3C//DTD SVG 1.1//EN" "http://www.w3.org/Graphics/SVG/1.1/DTD/svg11.dtd">
<svg version="1.1" id="logo" xmlns="http://www.w3.org/2000/svg" xmlns:xlink="http://www.w3.org/1999/xlink" x="0px" y="0px"
	 width="130px" height="80px" viewBox="0 0 130 80" enable-background="new 0 0 130 80" xml:space="preserve">
<g id="lava">
	<g>
		<path fill="#333333" d="M60.125,54.846c-0.008,0.01,0.217-0.271,0.437-0.547c-0.01,0.012-0.027,0.03-0.034,0.039
			C60.396,54.504,60.262,54.674,60.125,54.846z M59.583,54.438c-0.901,0.682-1.873,1.196-3.025,1.171
			c-2.737-0.062-3.094-3.677-2.488-5.675c0.295-0.971,1.067-1.869,0.769-2.918c-0.271-0.959-0.958-1.93-1.788-2.48
			c-1.44-0.953-3.436,0.185-4.801,0.799c-2.416,1.088-4.756,2.343-6.954,3.827c-0.979,0.664-1.959,1.326-2.937,1.993
			c-0.197,0.135-1.539,1.067-1.141,0.198c0.903-1.978,2.867-3.83,4.41-5.3c1.797-1.71,3.798-3.027,5.971-4.188
			c0.821-0.439,1.629-0.942,2.556-0.471c0.74,0.379,1.165,1.104,2.061,1.176c1.755,0.138,2.412-1.338,1.842-2.795
			c-0.657-1.664-1.496-2.929-3.321-3.327c-1.437-0.315-2.774-0.122-4.097,0.473c-6.766,3.042-12.324,8.367-16.258,14.654
			c-2.197,1.674-5.002,3.258-7.571,4.304c-0.824,0.335-2.391,0.63-2.747-0.52c-0.207-0.669-0.032-1.511,0.068-2.18
			c1.093-7.36,3.834-14.543,7.048-21.203c1.464-3.034,3.048-6.017,4.346-9.128c0.252-0.605,0.59-1.278,0.658-1.94
			c0.095-0.908-1.178-1.882-2.015-1.765c-1.474,0.209-2.494,2.275-3.182,3.383c-0.991,1.593-1.898,3.232-2.749,4.905
			c-1.392,2.736-2.544,5.573-3.616,8.45c-1.369,3.677-2.657,7.391-3.796,11.146c-0.819,2.705-1.695,5.553-1.734,8.4
			c-0.022,1.707,0.653,2.953,1.708,4.272c0.982,1.228,2.409,1.338,3.868,0.998c3.691-0.855,6.172-3.489,8.756-6.042
			c0,1.4,0.835,3.872,2.571,3.683c1.836-0.204,3.622-0.967,5.252-1.805c1.868-0.961,3.632-2.132,5.326-3.374
			c1.142-0.828,2.343-1.8,3.665-2.328c1.85-0.775,2.586,1.551,3.119,2.838c0.699,1.69,1.651,3.104,3.295,3.993
			c1.586,0.854,2.93,0.993,4.488,0.083c1.174-0.679,2.127-1.824,2.985-2.901c0.005-0.007,0.11-0.141,0.403-0.508
			c0.694-0.867,0.379-0.471,0.034-0.039c0.231-0.269,1.17-1.212,1.083-1.538C61.659,52.814,59.733,54.326,59.583,54.438z
			 M79.212,38.174C79.577,37.873,78.847,38.441,79.212,38.174L79.212,38.174z M89.315,41.336c0.947-0.242,1.896-0.483,2.84-0.743
			c0.137-0.037,0.923-0.379,1.036-0.34c-0.343-0.119-1.071,0.15-1.403,0.214c-0.776,0.144-1.552,0.293-2.334,0.403
			c-1.078,0.155-2.205,0.299-3.294,0.168c-1.622-0.195-2.565-1.076-3.683-2.175c-0.879-0.869-2.105-1.644-3.266-0.689
			c-0.918,0.672-1.543,1.55-2.22,2.448c-1.252,1.669-2.476,3.358-3.714,5.038c-0.953,1.29-1.908,2.585-2.931,3.823
			c-0.29,0.353-0.967,1.408-1.542,1.304c-0.699-0.132-1.191-3.357-1.396-3.973c-0.507-1.531-1.046-3.144-2.018-4.451
			c-1.014-1.366-2.934-1.748-4.196-0.436c-1.057,1.103-0.649,2.552-0.061,3.788c0.928,1.949,1.864,3.846,2.539,5.907
			c0.507,1.547,0.679,3.036,0.937,4.628c0.278,1.705,1.162,3.374,2.92,3.888c1.629,0.476,3.021-1.095,3.758-2.366
			c1.678-2.895,3.6-5.703,5.591-8.387c1.905-2.564,3.999-5.692,7.16-6.707C85.759,42.126,87.566,41.786,89.315,41.336z
			 M111.823,55.105c-1.051,0.569-2.587,0.823-3.545-0.063c-1.393-1.29-1.475-3.417-0.955-5.109c0.402-1.315,1.213-2.189,0.498-3.58
			c-0.52-1.014-1.512-2.31-2.784-2.197c-1.221,0.106-2.433,0.687-3.534,1.183c-3.118,1.405-5.963,3.15-8.789,5.068
			c-0.27,0.185-2.682,1.911-2.242,0.949c0.531-1.165,1.563-2.206,2.385-3.159c2.286-2.65,4.927-4.69,7.996-6.327
			c0.692-0.369,1.4-0.85,2.217-0.608c0.796,0.233,1.231,1.021,2.035,1.246c1.281,0.354,2.656-0.559,2.43-1.943
			c-0.517-3.167-3.324-4.839-6.345-4.127c0.089-0.027,0.101-0.034-0.157,0.034c-0.244,0.075-0.244,0.079-0.17,0.06
			c-2.783,0.892-5.549,2.701-7.829,4.472c-2.728,2.117-5.03,4.705-7.138,7.432c-1.569,2.024-3.645,4.303-3.136,7.089
			c0.188,1.019,0.942,2.878,2.211,2.837c1.437-0.044,2.937-0.621,4.234-1.201c3.163-1.412,5.813-3.572,8.701-5.439
			c0.823-0.532,2.06-1.465,3.048-0.814c1.152,0.757,1.475,2.376,1.994,3.562c0.993,2.26,4.103,4.84,6.679,3.684
			c1.175-0.525,2.073-1.395,2.926-2.344c0.38-0.424,2.52-2.43,2.347-3.043C114.964,52.994,112.185,54.91,111.823,55.105z"/>
	</g>
</g>
</svg>
