<?xml version="1.0" encoding="utf-8"?>
<!DOCTYPE svg PUBLIC "-//W3C//DTD SVG 1.1//EN" "http://www.w3.org/Graphics/SVG/1.1/DTD/svg11.dtd">
<svg version="1.1" id="katana-logo" xmlns="http://www.w3.org/2000/svg" xmlns:xlink="http://www.w3.org/1999/xlink" x="0px"
	 y="0px" width="165px" height="80px" viewBox="0.5 0.5 165 80" enable-background="new 0.5 0.5 165 80" xml:space="preserve">
<path fill="#333333" d="M121.292,27.317c2.471,0,4.811,0,7.244,0c0,4.896,0,9.792,0,14.844c-1.325,0-2.657,0-3.988,0
	c-2.946,0-5.894-0.032-8.838,0.021c-0.945,0.016-1.56-0.258-2.026-1.102c-0.428-0.775-1.013-1.465-1.723-2.459
	c0,1.348,0,2.375,0,3.537c-2.277,0-4.453,0.03-6.625-0.042c-0.248-0.008-0.677-0.587-0.68-0.903
	c-0.045-4.586-0.031-9.172-0.031-13.944c2.377,0,4.712-0.024,7.048,0.033c0.266,0.006,0.579,0.426,0.776,0.718
	c2.748,4.03,5.475,8.074,8.227,12.102c0.123,0.18,0.436,0.233,0.616,0.325C121.292,36.223,121.292,31.801,121.292,27.317z"/>
<path fill="#333333" d="M0.526,27.312c2.686,0,5.193,0,7.799,0c0,3.022,0,5.989,0,9.307c1.736-1.991,3.261-3.731,4.775-5.479
	c1.039-1.2,2.058-2.417,3.102-3.61c0.12-0.138,0.344-0.256,0.521-0.258c3.217-0.015,6.435-0.011,9.958-0.011
	c-1.848,1.936-3.481,3.655-5.125,5.363c-0.67,0.697-1.366,1.371-2.05,2.055c-2.016,2.015-2.008,2.01-0.433,4.421
	c0.602,0.921,1.159,1.871,1.894,3.063c-1.816,0-3.346,0-4.875,0c-4.724,0-9.447-0.032-14.17,0.024
	c-1.114,0.016-1.436-0.311-1.42-1.422C0.561,36.315,0.526,31.864,0.526,27.312z"/>
<path fill="#333333" d="M60.643,42.161c0-3.015,0-5.859,0-8.793c-2.596,0-5.104,0-7.713,0c0-2.036,0-3.985,0-6.023
	c7.723,0,15.477,0,23.314,0c0,1.938,0,3.887,0,5.928c-2.53,0-5.039,0-7.75,0c0,1.281,0,2.479,0,3.679
	c0,1.388-0.012,2.775,0.005,4.163c0.008,0.631-0.111,1.062-0.883,1.055C65.351,42.148,63.087,42.161,60.643,42.161z"/>
<path fill="#333333" d="M78.665,42.163c1.906-5.066,3.747-9.958,5.607-14.905c2.623,0,5.231-0.022,7.835,0.027
	c0.303,0.005,0.761,0.335,0.87,0.62c1.768,4.585,3.491,9.187,5.221,13.785c0.04,0.108,0.035,0.234,0.066,0.471
	c-2.26,0-4.478,0.032-6.693-0.04c-0.291-0.009-0.706-0.496-0.822-0.844c-0.718-2.15-1.365-4.326-2.042-6.491
	c-0.071-0.22-0.192-0.423-0.35-0.765c-0.757,2.465-1.512,4.764-2.152,7.094c-0.219,0.796-0.547,1.085-1.371,1.063
	C82.865,42.129,80.893,42.163,78.665,42.163z"/>
<path fill="#333333" d="M154.238,42.159c-2.323,0-4.502,0.026-6.682-0.034c-0.259-0.008-0.631-0.453-0.734-0.767
	c-0.707-2.111-1.354-4.243-2.026-6.366c-0.087-0.27-0.215-0.526-0.415-1.005c-0.746,2.446-1.471,4.675-2.092,6.932
	c-0.251,0.912-0.627,1.313-1.633,1.27c-1.928-0.083-3.862-0.025-5.949-0.025c0.712-1.971,1.362-3.821,2.049-5.659
	c0.996-2.669,2.049-5.319,3.011-8.002c0.346-0.963,0.845-1.324,1.898-1.274c2.101,0.096,4.209-0.006,6.31,0.06
	c0.374,0.013,0.942,0.367,1.071,0.699c1.678,4.352,3.295,8.729,4.92,13.1C154.076,41.386,154.125,41.705,154.238,42.159z"/>
<path fill="#333333" d="M30.97,42.163c0.753-1.993,1.454-3.833,2.141-5.675c1.039-2.786,2.033-5.587,3.139-8.348
	c0.159-0.399,0.815-0.829,1.257-0.846c2.226-0.085,4.46-0.08,6.688-0.002c0.41,0.015,1.029,0.413,1.172,0.781
	c1.765,4.542,3.458,9.111,5.166,13.675c0.025,0.067-0.02,0.162-0.057,0.407c-2.182,0-4.39,0.042-6.594-0.048
	c-0.313-0.012-0.744-0.61-0.879-1.019c-0.759-2.291-1.446-4.606-2.265-7.265c-0.582,1.868-1.103,3.415-1.543,4.985
	c-0.938,3.349-0.92,3.353-4.385,3.353C33.598,42.163,32.384,42.163,30.97,42.163z"/>
<path fill="#333333" d="M61.059,52.968c-2.737,0-5.257,0-7.833,0c-0.404-1.311-0.804-2.61-1.233-4.008
	c-2.803,0-5.618-0.021-8.434,0.034c-0.272,0.004-0.667,0.43-0.776,0.741c-0.367,1.048-0.632,2.131-0.941,3.226
	c-2.52,0-4.998,0-7.621,0c0.899-2.39,1.762-4.724,2.654-7.048c0.849-2.212,0.862-2.206,3.196-2.206
	c5.473,0,10.947,0.017,16.419-0.019c0.784-0.005,1.162,0.221,1.434,0.978C58.904,47.396,59.967,50.1,61.059,52.968z"/>
<path fill="#333333" d="M100.924,52.915c-0.401-1.275-0.81-2.569-1.247-3.957c-2.767,0-5.537-0.017-8.307,0.024
	c-0.285,0.004-0.574,0.338-0.837,0.551c-0.076,0.062-0.056,0.236-0.091,0.354c-0.958,3.111-0.958,3.111-4.186,3.111
	c-1.387,0-2.774,0-4.349,0c0.817-2.207,1.586-4.322,2.384-6.427c1.089-2.87,1.098-2.865,4.146-2.865c5.591,0,11.185,0,16.81,0
	c1.153,3.058,2.292,6.074,3.476,9.208C106.086,52.915,103.589,52.915,100.924,52.915z"/>
<path fill="#333333" d="M164.769,52.996c-2.506,0-4.891,0.025-7.273-0.033c-0.271-0.006-0.644-0.438-0.771-0.749
	c-0.421-1.031-0.455-2.549-1.194-3.037c-0.831-0.55-2.268-0.204-3.44-0.215c-1.515-0.018-3.035-0.053-4.545,0.032
	c-0.355,0.019-0.844,0.418-0.993,0.764c-0.441,1.023-0.449,2.594-1.181,3.039c-0.898,0.549-2.358,0.187-3.576,0.199
	c-1.22,0.014-2.438,0.003-3.888,0.003c1.191-3.166,2.333-6.205,3.493-9.292c6.423,0,12.822-0.01,19.219,0.026
	c0.295,0.002,0.746,0.349,0.862,0.638C162.587,47.187,163.644,50.022,164.769,52.996z"/>
<path fill="#333333" d="M122.049,43.734c4.362,0,8.642,0,13.021,0c0,3.061,0,6.095,0,9.263c-2.146,0-4.274,0.017-6.403-0.02
	c-0.278-0.006-0.65-0.215-0.812-0.446c-1.944-2.81-3.856-5.642-5.773-8.472C122.043,44.002,122.063,43.902,122.049,43.734z"/>
<path fill="#333333" d="M33.699,52.998c-3.039,0-5.848,0.016-8.656-0.023c-0.289-0.004-0.705-0.263-0.84-0.521
	c-1.495-2.832-2.945-5.687-4.511-8.739c2.767,0,5.386-0.017,8.003,0.029c0.227,0.003,0.499,0.377,0.661,0.637
	C30.101,47.17,31.826,49.97,33.699,52.998z"/>
<path fill="#333333" d="M7.688,52.908c0-3.046,0-6.049,0-9.125c3.452,0,6.858,0,10.652,0c-1.035,0.979-1.918,1.686-2.628,2.537
	c-0.414,0.497-0.732,1.213-0.777,1.851c-0.111,1.541-0.036,3.097-0.036,4.737C12.501,52.908,10.169,52.908,7.688,52.908z"/>
<path fill="#333333" d="M74.988,43.81c0,3.078,0,6.053,0,9.107c-2.461,0-4.878,0-7.386,0c0-2.994,0-5.998,0-9.107
	C70.002,43.81,72.448,43.81,74.988,43.81z"/>
<path fill="#333333" d="M118.388,52.953c-2.313,0-4.532,0-6.831,0c0-3.049,0-6.053,0-9.153c2.229,0,4.479,0,6.831,0
	C118.388,46.785,118.388,49.819,118.388,52.953z"/>
</svg>
