<?xml version="1.0" encoding="utf-8"?>
<!-- Generator: Adobe Illustrator 16.0.4, SVG Export Plug-In . SVG Version: 6.00 Build 0)  -->
<!DOCTYPE svg PUBLIC "-//W3C//DTD SVG 1.1//EN" "http://www.w3.org/Graphics/SVG/1.1/DTD/svg11.dtd">
<svg version="1.1" id="logo" xmlns="http://www.w3.org/2000/svg" xmlns:xlink="http://www.w3.org/1999/xlink" x="0px" y="0px"
	 width="130px" height="80px" viewBox="0 0 130 80" enable-background="new 0 0 130 80" xml:space="preserve">
<g id="everest">
	<g>
		<path fill="#333333" d="M5.001,71.041h13.621v-5.414h-7.157v-7.236h6.695v-5.135h-6.695v-7.094h7.157V40.84H5.001V71.041z
			 M29.519,65.953l-3.047-17.691h-6.003l4.94,22.779h8.172l4.941-22.779H32.52L29.519,65.953z M51.681,66.094
			c0,0.248-0.085,0.465-0.254,0.652c-0.169,0.188-0.377,0.281-0.623,0.281h-2.54c-0.246,0-0.456-0.094-0.624-0.281
			c-0.169-0.188-0.254-0.404-0.254-0.652v-4.762h10.48v-7.375c0-4.107-1.909-6.162-5.725-6.162h-5.216
			c-3.817,0-5.725,2.055-5.725,6.162v11.389c0,4.109,1.908,6.162,5.725,6.162h5.217c3.816,0,5.725-2.053,5.725-6.162v-1.773h-6.187
			V66.094z M47.386,53.023c0-0.248,0.085-0.467,0.254-0.654c0.169-0.186,0.377-0.279,0.624-0.279h2.54
			c0.246,0,0.454,0.094,0.623,0.279c0.169,0.188,0.254,0.406,0.254,0.654v4.199h-4.294V53.023z M66.916,50.455v-2.193h-5.634v22.779
			h6.188V55.496c0-1.088,0.521-1.633,1.568-1.633h3.047v-6.068h-1.199C69.131,47.795,67.807,48.684,66.916,50.455z M85.799,47.795
			h-5.217c-3.816,0-5.725,2.055-5.725,6.162v11.389c0,4.109,1.908,6.162,5.725,6.162h5.217c3.816,0,5.725-2.053,5.725-6.162v-1.773
			h-6.188v2.521c0,0.248-0.084,0.465-0.252,0.652c-0.17,0.188-0.379,0.281-0.623,0.281H81.92c-0.246,0-0.455-0.094-0.623-0.281
			c-0.17-0.188-0.254-0.404-0.254-0.652v-4.762h10.48v-7.375C91.523,49.85,89.615,47.795,85.799,47.795z M85.336,57.223h-4.293
			v-4.199c0-0.248,0.084-0.467,0.254-0.654c0.17-0.186,0.377-0.279,0.623-0.279h2.541c0.244,0,0.453,0.094,0.623,0.279
			c0.168,0.188,0.252,0.406,0.252,0.654V57.223z M105.561,56.758h-4.756c-0.246,0-0.455-0.094-0.625-0.281
			c-0.168-0.186-0.254-0.404-0.254-0.652V53.35c0-0.248,0.084-0.467,0.254-0.654c0.17-0.186,0.379-0.279,0.625-0.279h3.508
			c0.246,0,0.455,0.094,0.623,0.279c0.17,0.188,0.256,0.406,0.256,0.654v1.447h5.723v-0.84c0-4.107-1.906-6.162-5.723-6.162h-4.85
			c-3.816,0-5.725,2.055-5.725,6.162v2.1c0,4.109,1.908,6.162,5.725,6.162h4.756c0.246,0,0.453,0.094,0.623,0.279
			c0.17,0.188,0.254,0.406,0.254,0.654v2.801c0,0.248-0.084,0.467-0.254,0.652c-0.17,0.188-0.377,0.281-0.623,0.281h-3.787
			c-0.246,0-0.453-0.094-0.621-0.281c-0.17-0.186-0.254-0.404-0.254-0.652V63.9h-5.727v1.445c0,4.109,1.908,6.162,5.727,6.162h5.125
			c3.816,0,5.725-2.053,5.725-6.162V62.92C111.285,58.811,109.377,56.758,105.561,56.758z M124.998,52.791v-4.529h-3.879v-4.947
			h-6.188v22.031c0,4.109,1.908,6.162,5.725,6.162h4.342v-4.061h-1.848c-0.678,0-1.186-0.156-1.523-0.465
			c-0.338-0.311-0.508-0.902-0.508-1.775V52.791H124.998z M99.551,40.874l1.951-3.289l5.367,6.138h2.523v-2.684l-7.645-8.225
			l-3.58,2.632L84.584,20.397l-3.82,3.011l-10.33-11.399l-5.614,5.757l-7.971-9.273L37.735,29.607l-4.555-3.501L23.154,38.325v5.398
			l8.806-6.139l2.766,6.139h6.182l-3.986-3.343l1.708-1.712l-0.081-2.729l-4.392-6.825l8.377,6.496v3.058l3.091,5.055h32.86
			l-7.461-6.139l-3.764,3.289v-5.839l-2.114-1.728l-5.694-1.314l3.334-3.536l-9.11-7.648l5.612-2.056l-1.626-3.701v-3.042
			l7.157,8.882l10.329,6.661v7.072l10.006,9.099h9.436l3.01-2.849H99.551z M69.457,19.904v-4.112l6.426,6.249L69.457,19.904z
			 M87.758,37.172l-1.383-11.065l6.344,7.12L87.758,37.172z"/>
	</g>
</g>
</svg>
