<?xml version="1.0" encoding="utf-8"?>
<!DOCTYPE svg PUBLIC "-//W3C//DTD SVG 1.1//EN" "http://www.w3.org/Graphics/SVG/1.1/DTD/svg11.dtd">
<svg version="1.1" id="logo_1_" xmlns="http://www.w3.org/2000/svg" xmlns:xlink="http://www.w3.org/1999/xlink" x="0px" y="0px"
	 width="165px" height="80px" viewBox="0 0 165 80" enable-background="new 0 0 165 80" xml:space="preserve">
<path fill="#333333" d="M2,67c0-17.703,0-35.321,0-53c18.488,0,36.929,0,55.449,0c0,17.633,0,35.279,0,53C39.011,67,20.545,67,2,67z
	 M11.601,51.92c0.032,0.052,0.064,0.101,0.094,0.149c0.249-0.099,0.501-0.191,0.748-0.299c4.824-2.138,9.666-4.235,14.456-6.45
	c1.06-0.488,1.562-0.265,2.214,0.588c1.381,1.804,2.873,3.52,4.305,5.255c1.355-0.827,2.66-1.511,3.84-2.373
	c0.999-0.729,1.828-0.705,2.916-0.166c2.503,1.24,5.082,2.327,7.631,3.474c0.037-0.054,0.072-0.108,0.109-0.163
	c-5.855-6.978-11.71-13.957-17.643-21.027C23.992,37.971,17.796,44.945,11.601,51.92z"/>
<path fill="#333333" d="M99.063,42.62c0,2.881,0,5.611,0,8.445c0.422,0,0.791,0,1.166,0c3.818,0,7.639-0.002,11.455,0.002
	c1.168,0,1.887,0.558,1.912,1.456c0.029,1.05-0.686,1.703-1.918,1.705c-4.477,0.008-8.955,0.01-13.434-0.002
	c-1.541-0.002-2.357-0.844-2.357-2.404c-0.002-6.895-0.002-13.788,0.002-20.684c0-1.501,0.727-2.235,2.244-2.237
	c4.514-0.009,9.027-0.005,13.539-0.001c1.201,0,1.926,0.598,1.926,1.559c0,0.982-0.709,1.6-1.898,1.602
	c-3.818,0.008-7.639,0.003-11.455,0.003c-0.373,0-0.748,0-1.176,0c0,2.471,0,4.851,0,7.39c0.352,0,0.719,0,1.08,0
	c3.369,0,6.734-0.031,10.104,0.031c0.551,0.012,1.244,0.309,1.596,0.716c0.313,0.361,0.473,1.161,0.289,1.585
	c-0.174,0.4-0.877,0.79-1.354,0.799c-3.504,0.066-7.01,0.035-10.516,0.035C99.889,42.62,99.514,42.62,99.063,42.62z"/>
<path fill="#333333" d="M116.49,52.349c0.049-0.153,0.129-0.53,0.273-0.88c2.883-6.896,5.787-13.779,8.646-20.684
	c0.49-1.192,1.107-2.11,2.508-2.091c1.346,0.018,1.945,0.904,2.426,2.064c2.832,6.842,5.711,13.663,8.566,20.495
	c0.135,0.318,0.229,0.652,0.326,0.986c0.246,0.863,0.021,1.494-0.863,1.83c-0.879,0.336-1.611,0.17-2.006-0.702
	c-0.713-1.584-1.363-3.199-2-4.816c-0.283-0.721-0.629-1.079-1.506-1.061c-3.361,0.07-6.729,0.048-10.096,0.015
	c-0.697-0.007-1.029,0.211-1.287,0.889c-0.623,1.658-1.352,3.274-2.045,4.905c-0.342,0.803-0.973,1.063-1.775,0.873
	C116.801,53.967,116.455,53.463,116.49,52.349z M127.885,32.827c-1.658,4.063-3.223,7.892-4.82,11.799c3.301,0,6.371,0,9.643,0
	C131.1,40.689,129.541,36.883,127.885,32.827z"/>
<path fill="#333333" d="M75.678,44.732c0,2.687,0.027,5.071-0.023,7.451c-0.012,0.526-0.162,1.208-0.508,1.519
	c-0.368,0.328-1.076,0.479-1.584,0.395c-0.691-0.112-1.057-0.696-1.056-1.474c0.009-7.385,0-14.766,0.013-22.147
	c0.002-0.958,0.615-1.578,1.571-1.566c3.499,0.044,7.007-0.032,10.486,0.251c2.859,0.233,5.27,1.639,6.375,4.486
	c1.141,2.938,0.98,5.851-1.164,8.363c-1.471,1.728-3.453,2.59-5.648,2.694C81.377,44.83,78.603,44.732,75.678,44.732z
	 M75.713,41.563c2.974,0,5.857,0.176,8.705-0.054c2.35-0.19,3.891-2.052,3.967-4.131c0.098-2.711-1.098-4.675-3.662-5.025
	c-2.956-0.403-5.976-0.309-9.011-0.434C75.713,35.332,75.713,38.486,75.713,41.563z"/>
<path fill="#333333" d="M153.195,39.567c2.953,3.773,5.875,7.508,8.797,11.242c0.236,0.301,0.484,0.598,0.693,0.917
	c0.51,0.788,0.391,1.611-0.293,2.147c-0.723,0.568-1.588,0.471-2.193-0.303c-1.59-2.032-3.156-4.081-4.734-6.12
	c-1.469-1.894-2.941-3.784-4.459-5.735c-1.287,1.32-2.527,2.551-3.713,3.833c-0.223,0.241-0.338,0.674-0.344,1.02
	c-0.033,1.898-0.012,3.799-0.021,5.697c-0.006,1.217-0.584,1.933-1.557,1.965c-0.924,0.027-1.561-0.748-1.563-1.939
	c-0.002-7.214-0.002-14.424,0.002-21.636c0-1.22,0.621-1.977,1.564-1.956c0.939,0.021,1.553,0.792,1.553,1.996
	c0.01,3.308,0.004,6.613,0.004,9.921c0,0.334,0,0.668,0,0.9c2.123-2.069,4.258-4.111,6.344-6.197
	c2.002-2.001,3.941-4.061,5.93-6.075c0.693-0.703,1.627-0.709,2.217-0.087c0.518,0.54,0.432,1.619-0.209,2.27
	C158.57,34.119,155.92,36.804,153.195,39.567z"/>
</svg>