<?xml version="1.0" encoding="utf-8"?>
<!-- Generator: Adobe Illustrator 16.0.4, SVG Export Plug-In . SVG Version: 6.00 Build 0)  -->
<!DOCTYPE svg PUBLIC "-//W3C//DTD SVG 1.1//EN" "http://www.w3.org/Graphics/SVG/1.1/DTD/svg11.dtd">
<svg version="1.1" id="icon" xmlns="http://www.w3.org/2000/svg" xmlns:xlink="http://www.w3.org/1999/xlink" x="0px" y="0px"
	 width="80px" height="80px" viewBox="0 0 80 80" enable-background="new 0 0 80 80" xml:space="preserve">
<circle id="circle" fill="#333333" cx="40" cy="40" r="40"/>
<g id="camera">
	<g>
		<path fill="#FFFFFF" d="M53,31h-4.6L46,27H34l-2.4,4H27c-1,0-3,1-3,2.969V50c0,1.656,1.5,3,2.792,3h26.271
			C54.375,53,56,51.593,56,50.031V34C56,33,55,31,53,31z M54,50.031c0,0.395-0.64,0.946-0.938,0.969H26.797
			C26.566,50.981,26,50.53,26,50V33.969c0-0.634,0.851-0.953,1-0.969h5.732l0.583-0.972L35.132,29h9.801l1.785,3.029L47.269,33H53
			c0.705,0,0.99,0.921,1,1V50.031z M40,34c-3.866,0-7,3.133-7,7c0,3.866,3.134,7,7,7s7-3.134,7-7C47,37.133,43.866,34,40,34z M40,46
			c-2.757,0-5-2.243-5-5s2.243-5,5-5s5,2.243,5,5S42.757,46,40,46z"/>
	</g>
</g>
</svg>
