<?xml version="1.0" encoding="utf-8"?>
<!-- Generator: Adobe Illustrator 16.0.4, SVG Export Plug-In . SVG Version: 6.00 Build 0)  -->
<!DOCTYPE svg PUBLIC "-//W3C//DTD SVG 1.1//EN" "http://www.w3.org/Graphics/SVG/1.1/DTD/svg11.dtd">
<svg version="1.1" id="icon" xmlns="http://www.w3.org/2000/svg" xmlns:xlink="http://www.w3.org/1999/xlink" x="0px" y="0px"
	 width="80px" height="80px" viewBox="0 0 80 80" enable-background="new 0 0 80 80" xml:space="preserve">
<circle id="circle" fill="#333333" cx="40" cy="40" r="40"/>
<g id="mail">
	<g>
		<path fill="#FFFFFF" d="M55.981,31.225c0.022-0.171,0-0.342-0.066-0.505C55.674,29.585,54.869,29,53.5,29h-26
			c-1.209,0-2.509,0.455-3.128,1.341c-0.042,0.035-0.091,0.056-0.128,0.099c-0.207,0.239-0.266,0.545-0.212,0.834
			C24.023,31.35,24,31.419,24,31.5v16c0,1.656,1.843,3.5,3.5,3.5h26c1.657,0,2.5-1.844,2.5-3.5v-16
			C56,31.402,55.987,31.316,55.981,31.225z M27.5,31h26.014L40,41.77L26.541,31.044C26.848,30.987,27.224,31,27.5,31z M53.5,49h-26
			c-0.551,0-1.5-0.949-1.5-1.5V33.173L39.345,43.85c0.188,0.162,0.422,0.244,0.655,0.244s0.467-0.082,0.654-0.244L54,33.173V47.5
			C54,48.051,54.052,49,53.5,49z"/>
	</g>
</g>
</svg>
