<?xml version="1.0" encoding="utf-8"?>
<!-- Generator: Adobe Illustrator 16.0.4, SVG Export Plug-In . SVG Version: 6.00 Build 0)  -->
<!DOCTYPE svg PUBLIC "-//W3C//DTD SVG 1.1//EN" "http://www.w3.org/Graphics/SVG/1.1/DTD/svg11.dtd">
<svg version="1.1" id="icon" xmlns="http://www.w3.org/2000/svg" xmlns:xlink="http://www.w3.org/1999/xlink" x="0px" y="0px"
	 width="80px" height="80px" viewBox="0 0 80 80" enable-background="new 0 0 80 80" xml:space="preserve">
<circle id="circle" fill="#333333" cx="40" cy="40" r="40"/>
<g id="marker">
	<g>
		<path fill="#FFFFFF" d="M40.115,24C33.556,24,28,29.587,28,36.204c0,6.931,6.439,14.018,10.77,18.999
			C38.786,55.223,39.486,56,40.349,56h0.077c0.861,0,1.557-0.777,1.574-0.797c4.064-4.673,10-12.377,10-18.999
			C52,29.587,47.668,24,40.115,24z M40.517,53.861c-0.035,0.035-0.086,0.075-0.131,0.105c-0.046-0.03-0.097-0.07-0.133-0.105
			l-0.523-0.602C35.623,48.55,30,42.099,30,36.204C30,30.673,34.632,26,40.115,26C46.943,26,50,31.125,50,36.204
			C50,40.68,46.811,46.62,40.517,53.861z M40.036,30.056c-3.313,0-6,2.686-6,6c0,3.313,2.687,6,6,6s6-2.687,6-6
			C46.036,32.742,43.35,30.056,40.036,30.056z M40.036,40.056c-2.206,0-4.046-1.838-4.046-4.044c0-2.206,1.794-4,4-4s4,1.794,4,4
			C43.99,38.217,42.242,40.056,40.036,40.056z"/>
	</g>
</g>
</svg>
