<?xml version="1.0" encoding="utf-8"?>
<!-- Generator: Adobe Illustrator 16.0.4, SVG Export Plug-In . SVG Version: 6.00 Build 0)  -->
<!DOCTYPE svg PUBLIC "-//W3C//DTD SVG 1.1//EN" "http://www.w3.org/Graphics/SVG/1.1/DTD/svg11.dtd">
<svg version="1.1" id="icon" xmlns="http://www.w3.org/2000/svg" xmlns:xlink="http://www.w3.org/1999/xlink" x="0px" y="0px"
	 width="80px" height="80px" viewBox="0 0 80 80" enable-background="new 0 0 80 80" xml:space="preserve">
<circle id="circle" fill="#333333" cx="40" cy="40" r="40"/>
<g id="user">
	<g>
		<path fill-rule="evenodd" clip-rule="evenodd" fill="#FFFFFF" d="M26.002,51.959c0-0.795,0.597-1.044,0.835-1.153l8.782-4.146
			c0.63-0.289,1.064-0.884,1.148-1.572c0.085-0.688-0.192-1.369-0.732-1.803c-2.078-1.668-3.046-5.335-3.046-7.288V31
			c0-2.09,3.638-4.995,7.004-4.995c3.396,0,6.998,2.859,6.998,4.995v4.997c0,1.924-0.8,5.604-2.945,7.294
			c-0.547,0.43-0.831,1.114-0.749,1.807c0.082,0.691,0.519,1.29,1.151,1.581l2.997,1.422l0.494-1.996l-2.656-1.243
			c2.771-2.181,3.708-6.463,3.708-8.864V31c0-3.311-4.582-6.996-8.998-6.996S30.989,27.689,30.989,31v4.997
			c0,2.184,0.997,6.602,3.794,8.848L26,48.989c0,0-1.998,0.89-1.998,1.999v3.001c0,1.104,0.895,1.999,1.998,1.999h21.998v-2
			l-21.996,0.001V51.959z M54.998,49.996h-3v-3c0-0.553-0.447-1-1-1s-1,0.447-1,1v3h-3c-0.553,0-1,0.447-1,1c0,0.552,0.447,1,1,1h3
			v3c0,0.552,0.447,1,1,1s1-0.448,1-1v-3h3c0.553,0,1-0.448,1-1C55.998,50.443,55.551,49.996,54.998,49.996z"/>
	</g>
</g>
</svg>
