<?xml version="1.0" encoding="utf-8"?>
<!-- Generator: Adobe Illustrator 16.0.4, SVG Export Plug-In . SVG Version: 6.00 Build 0)  -->
<!DOCTYPE svg PUBLIC "-//W3C//DTD SVG 1.1//EN" "http://www.w3.org/Graphics/SVG/1.1/DTD/svg11.dtd">
<svg version="1.1" id="icon" xmlns="http://www.w3.org/2000/svg" xmlns:xlink="http://www.w3.org/1999/xlink" x="0px" y="0px"
	 width="80px" height="80px" viewBox="0 0 80 80" enable-background="new 0 0 80 80" xml:space="preserve">
<circle id="circle" fill="#333333" cx="40" cy="40" r="40"/>
<g id="pages">
	<g>
		<path fill="#FFFFFF" d="M48,24H37c-1.104,0-2,0.896-2,2h11v8h8v16h-7v2h7c1.104,0,2-0.896,2-2V32L48,24z M48,32v-5.172L53.171,32
			H48z M26,28c-1.104,0-2,0.896-2,2v24c0,1.104,0.896,2,2,2h17c1.104,0,2-0.896,2-2V36l-8-8H26z M43,54H26V30h9v8h8V54z M37,36
			v-5.172L42.171,36H37z"/>
	</g>
</g>
</svg>
